<svg width="276" height="162" viewBox="0 0 276 162" fill="none" xmlns="http://www.w3.org/2000/svg">
<g clip-path="url(#clip0_46_382)">
<path d="M144.545 61.2095C146.379 58.8844 149.064 57.9467 150.542 59.1151C152.02 60.2835 151.732 63.1151 149.897 65.4409C149.177 66.38 148.242 67.1328 147.172 67.6363L139.277 77.3899L134.784 73.5843L143.043 64.373C143.284 63.2136 143.799 62.1288 144.545 61.2095H144.545V61.2095V61.2095Z" fill="#FFB6B6"/>
<path d="M115.454 57.0364L126.972 76.6298L140.916 66.9883L146.525 69.2277C146.525 69.2277 136.616 90.8158 128.072 89.4116C119.528 88.0075 102.527 68.6899 104.478 61.9439C106.43 55.1979 115.454 57.0364 115.454 57.0364H115.454V57.0364V57.0364Z" fill="#008864"/>
<path d="M150.174 50.9987L143.738 52.9012L148.173 67.9334L154.609 66.0308L150.174 50.9987Z" fill="#008864"/>
<path d="M114.008 57.5243L114.146 48.3364L108.485 44.8045L102.33 52.3407L114.008 57.5243Z" fill="#FFB6B6"/>
<path opacity="0.1" d="M114.008 57.5243L114.374 48.5654L108.485 44.8045L110.486 55.8916L114.008 57.5243Z" fill="black"/>
<path d="M110.976 49.2519C116.536 49.2519 121.043 44.7405 121.043 39.1753C121.043 33.6101 116.536 29.0987 110.976 29.0987C105.417 29.0987 100.909 33.6101 100.909 39.1753C100.909 44.7405 105.417 49.2519 110.976 49.2519Z" fill="#FFB6B6"/>
<path d="M127.755 118.279L125.981 130.348L125.09 136.426L121.376 161.715C116.692 161.568 112.067 161.357 107.513 161.092L108.175 145.693L108.574 136.426L108.836 130.348L108.999 126.523L106.612 117.397C106.612 117.397 105.826 115.935 105.027 113.987C104.887 113.641 104.743 113.28 104.605 112.909C103.615 110.257 102.828 107.1 103.816 105.449C103.864 105.372 103.912 105.299 103.966 105.228C104.414 104.649 105.574 104.218 107.149 103.898C108.111 103.699 109.233 103.546 110.441 103.428C114.097 103.066 118.561 103.012 121.977 103.047C125.067 103.072 127.298 103.168 127.298 103.168L127.33 104.189L127.333 104.288L127.356 105.062L127.41 106.911L127.547 111.479L127.688 116.12L127.755 118.279Z" fill="#2F2E41"/>
<path d="M127.688 116.12L122.712 126.11L119.564 130.348L115.055 136.426L108.175 145.693L97.2648 160.391C92.0174 159.982 86.8723 159.492 81.8518 158.936L95.2067 136.426L98.8115 130.348L102.292 124.485L104.503 115.314C104.503 115.314 104.503 114.825 104.538 114.041C104.554 113.712 104.577 113.328 104.605 112.909C104.8 110.11 105.391 105.647 107.149 103.898C107.386 103.658 107.644 103.472 107.926 103.344C108.453 103.108 109.332 103.165 110.441 103.428C113.183 104.083 117.324 106.015 121.044 107.935C123.617 109.265 125.985 110.586 127.547 111.479L127.688 116.12Z" fill="#2F2E41"/>
<path d="M103.624 50.3969L115.06 55.8916C115.06 55.8916 127.183 91.8362 127.183 93.6678C127.183 95.4993 130.614 96.6441 128.555 98.7046C126.497 100.765 132.387 102.51 129.213 104.156C126.039 105.802 106.241 114.805 104.039 113.993C97.9675 111.754 104.297 103.526 104.297 103.526C104.297 103.526 99.7356 99.8493 100.422 98.0178C101.108 96.1862 96.3047 61.1574 96.3047 61.1574L103.624 50.3969L103.624 50.3969V50.3969V50.3969Z" fill="#008864"/>
<path d="M111.824 41.5173L114.35 42.9324C114.35 42.9324 112.801 38.3451 113.932 36.3218C115.063 34.2986 114.403 32.8666 114.403 32.8666C114.403 32.8666 118.438 34.1963 119.5 32.5331C120.562 30.8699 120.914 30.004 117.453 28.5973C113.993 27.1906 115.295 28.1854 115.295 28.1854C115.295 28.1854 112.34 27.0617 112.991 27.5591C113.642 28.0565 110.541 26.7184 110.978 27.3615C111.415 28.0046 109.034 26.8039 109.47 27.447C109.907 28.0901 103.954 29.0065 105.179 29.4268C106.403 29.8472 100.159 30.3348 100.346 35.222C100.534 40.1092 97.1335 41.4955 99.6429 42.916C102.152 44.3364 105.655 50.416 105.655 50.416L108.608 48.4063C108.608 48.4063 107.721 40.5477 111.824 41.5173H111.824V41.5173V41.5173Z" fill="#2F2E41"/>
<path d="M90.3775 93.8805C93.3125 93.4999 95.4954 91.6756 95.2531 89.806C95.0109 87.9364 92.4354 86.7298 89.4994 87.1109C88.3245 87.247 87.1992 87.6628 86.2178 88.3235L73.8022 90.0931L74.7561 95.9072L86.8943 93.5454C88.012 93.9339 89.2064 94.0488 90.3775 93.8805V93.8805Z" fill="#A0616A"/>
<path d="M52.4216 68.3675L55.8271 93.7427C55.8271 93.7427 56.7638 99.2002 65.2905 98.3966C73.8171 97.593 85.0224 94.283 85.0224 94.283L84.2933 88.3576L74.7696 89.3903C74.7696 89.3903 70.324 88.3107 69.4415 89.0388C68.5589 89.7668 68.9643 90.6191 68.0915 89.559C67.2187 88.499 67.6569 87.8408 66.8928 88.7678C66.1286 89.6949 65.9734 91.3063 65.5157 89.3105C65.0579 87.3146 64.2064 87.7204 64.2064 87.7204L63.7219 69.1326C63.7219 69.1326 61.1637 60.2659 56.4911 63.2304C51.8185 66.1949 52.4216 68.3675 52.4216 68.3675H52.4216V68.3675H52.4216Z" fill="#E6E6E6"/>
<path d="M67.3475 48.1221H50.4817V73.0669H67.3475V48.1221Z" fill="#2F2E41"/>
<path d="M54.2676 65.4609L54.8582 58.3163H62.7117L64.4527 65.8858L54.2676 65.4609Z" fill="#A0616A"/>
<path opacity="0.1" d="M54.2676 65.4609L54.8582 58.3163H62.7117L64.4527 65.8858L54.2676 65.4609Z" fill="black"/>
<path d="M68.4953 53.3732C69.2548 48.6889 66.0766 44.2752 61.3967 43.5151C56.7168 42.7549 52.3074 45.9361 51.5479 50.6204C50.7885 55.3048 53.9667 59.7184 58.6465 60.4786C63.3264 61.2387 67.7359 58.0576 68.4953 53.3732Z" fill="#A0616A"/>
<path d="M62.1871 42.9567C62.1871 42.9567 62.1871 39.4292 58.9146 40.1851C55.6421 40.941 54.6352 42.2008 54.6352 42.2008C54.6352 42.2008 53.3766 44.2166 51.3628 44.4685C49.3489 44.7205 47.5868 50.5158 47.8386 51.7756C48.0903 53.0355 49.3489 56.311 47.5868 57.8228C45.8247 59.3346 43.3074 61.6024 44.0626 63.8701C44.8178 66.1378 47.0834 71.9331 47.0834 71.9331C47.0834 71.9331 40.7644 72.8576 41.2807 76.8048C41.2807 76.8048 44.3144 74.4527 48.342 74.4527C52.3697 74.4527 51.8662 67.1387 51.8662 67.1387C51.8662 67.1387 52.1179 62.6102 52.8731 61.3504C53.6283 60.0906 52.6214 53.0354 56.3973 49.2559C60.1733 45.4764 62.1871 42.9567 62.1871 42.9567H62.1871Z" fill="#2F2E41"/>
<path d="M61.1804 42.2008C61.1804 42.2008 65.9632 43.2087 67.7253 47.9961C69.4874 52.7835 68.5974 53.6743 68.5974 53.6743C68.5974 53.6743 68.987 56.557 71.1252 57.5679C73.2633 58.5787 71.5012 62.8622 71.5012 62.8622C71.5012 62.8622 72.0047 67.1457 78.8014 68.6575C85.598 70.1693 70.2782 81.7626 70.2782 81.7626C70.2782 81.7626 71.3797 76.2909 64.3313 76.0389C57.2829 75.7869 65.7115 62.8622 65.7115 62.8622L66.4667 54.5472C66.4667 54.5472 64.9563 44.9724 60.4252 43.7126C55.8941 42.4528 61.1804 42.2008 61.1804 42.2008L61.1804 42.2008H61.1804Z" fill="#2F2E41"/>
<path d="M73.3674 118.51L71.6289 130.348L70.7373 136.426L69.2257 146.707L67.695 157.125C65.883 156.863 64.0934 156.591 62.3262 156.309C59.2902 155.826 56.3182 155.318 53.4101 154.78L53.9757 141.56L54.1963 136.426L54.4583 130.348L54.6117 126.75L52.2213 117.624C52.2213 117.624 47.2903 108.434 49.5784 105.459C49.6839 105.324 49.8245 105.196 50.0035 105.078C50.5851 104.685 51.5438 104.371 52.7486 104.128C55.596 103.546 59.8143 103.335 63.6588 103.28C68.593 103.21 72.9072 103.399 72.9072 103.399L72.9328 104.15L72.9807 105.782L73.3674 118.51Z" fill="#2F2E41"/>
<path d="M73.3674 118.51L71.6289 130.348L70.7373 136.426L69.2258 146.707L62.3262 156.309C59.2903 155.826 56.3182 155.318 53.4101 154.78C51.2722 154.387 49.1726 153.977 47.105 153.555L53.9758 141.56L56.9158 136.426L60.3928 130.348L62.0641 127.431L63.5182 124.891L64.5824 120.157L65.4005 116.526L65.589 115.688C65.589 115.688 65.5699 114.37 65.6945 112.602C65.8862 109.921 66.4135 106.198 67.8644 104.448C68.1456 104.102 68.4652 103.837 68.8263 103.667C69.5805 103.312 71.0697 103.555 72.9328 104.15L72.9807 105.782L73.3674 118.51L73.3674 118.51Z" fill="#2F2E41"/>
<path d="M65.0172 65.5074L64.8077 65.4481L54.4957 62.5311L46.2615 73.7494L51.751 97.102L49.6924 106.489C49.6924 106.489 66.3896 102.139 73.0227 105.802C73.0227 105.802 73.4802 103.714 73.0227 102.698C72.5653 101.681 71.8791 97.4499 72.5653 95.5588C73.2515 93.6678 71.1929 84.7388 71.1929 84.7388C71.1929 84.7388 71.8791 78.7862 68.9056 75.8099C65.9321 72.8336 65.0172 65.5073 65.0172 65.5073L65.0172 65.5074V65.5074Z" fill="#E6E6E6"/>
<path d="M62.155 127.803C62.8944 130.672 64.9724 132.615 66.7961 132.144C68.6197 131.672 69.4982 128.965 68.7581 126.096C68.4782 124.946 67.9272 123.879 67.1511 122.986L63.8647 110.872L58.2183 112.537L62.0575 124.302C61.8102 125.46 61.8436 126.661 62.155 127.803V127.803H62.155Z" fill="#A0616A"/>
<path d="M63.6525 75.8183C63.6525 75.8183 60.4542 67.1673 56.949 67.7305C53.4438 68.2938 50.248 73.7317 50.248 73.7317L52.782 104.506L59.7421 122.068L67.125 119.154L63.2901 101.603L63.6525 75.8183V75.8183V75.8183Z" fill="#E6E6E6"/>
<path opacity="0.7" d="M223.556 22.3902V155.02C223.451 155.043 223.346 155.062 223.237 155.078C221.617 155.372 219.974 155.654 218.312 155.929C216.337 156.255 214.334 156.572 212.304 156.876C210.617 157.125 208.914 157.368 207.191 157.602C202.177 158.289 197.022 158.9 191.743 159.431C190.053 159.604 188.346 159.767 186.63 159.921C171.626 161.271 155.679 162 139.145 162C136.802 162 134.476 161.984 132.159 161.955C132.05 161.955 131.945 161.955 131.839 161.952V22.3902H223.556Z" fill="#F2F2F2"/>
<path d="M223.237 66.146V66.5394L223.278 66.4563C223.275 66.3539 223.259 66.2515 223.237 66.146ZM131.839 107.935L131.52 107.675V136.426H131.839V161.952C131.945 161.955 132.05 161.955 132.159 161.955V88.5437C132.053 88.6013 131.948 88.6556 131.839 88.71V107.935ZM131.52 22.0703V161.946C131.625 161.949 131.731 161.952 131.839 161.952C131.945 161.955 132.05 161.955 132.159 161.955V22.71H223.237V155.078C223.346 155.062 223.451 155.043 223.556 155.02C223.662 155.004 223.771 154.985 223.876 154.963V22.0703H131.52Z" fill="#3F3D56"/>
<path d="M139.668 122.673C143.021 122.673 145.74 119.952 145.74 116.595C145.74 113.238 143.021 110.517 139.668 110.517C136.314 110.517 133.596 113.238 133.596 116.595C133.596 119.952 136.314 122.673 139.668 122.673Z" fill="#3F3D56"/>
<path d="M138.882 114.911C141.061 116.915 143.861 117.414 145.135 116.025C146.409 114.636 145.675 111.887 143.494 109.882C142.634 109.07 141.592 108.475 140.455 108.148L131.113 99.774L127.28 104.246L136.897 112.027C137.319 113.133 138 114.122 138.882 114.911H138.882V114.911Z" fill="#FFB6B6"/>
<path d="M111.88 70.4789C111.88 70.4789 104.494 64.9622 101.86 67.3438C99.2247 69.7254 99.4994 76.0283 99.4994 76.0283L118.354 100.469L133.739 111.413L138.35 104.947L125.592 92.3103L111.88 70.4788L111.88 70.4788V70.4789Z" fill="#008864"/>
<path d="M191.743 125.55V159.431C190.052 159.604 188.346 159.767 186.63 159.921V125.55H191.743Z" fill="#3F3D56"/>
<path d="M5.11315 125.55V140.936C3.32673 140.146 1.62021 139.334 0 138.505V125.55H5.11315Z" fill="#3F3D56"/>
<path d="M189.824 130.349H3.51392V136.426H189.824V130.349Z" fill="#008864"/>
<path d="M231.109 40.5187C231.109 40.5187 227.7 42.5197 228.818 44.4985C229.936 46.4774 231.494 49.1728 230.437 50.0217C229.38 50.8706 227.634 54.6134 227.634 54.6134C227.634 54.6134 220.183 53.5717 220.883 59.365C221.582 65.1583 225.082 65.9481 222.082 68.4967C219.082 71.0453 225.2 74.0934 225.2 74.0934C225.2 74.0934 229.424 72.7759 230.388 68.7245C231.351 64.673 229.529 71.8223 230.14 72.335C230.751 72.8476 233.125 76.2265 234.804 71.734C236.484 67.2416 234.821 65.4998 237.04 62.8484C239.259 60.197 240.768 55.9085 240.702 55.1588C240.636 54.4092 243.24 47.5685 239.231 44.9007C235.222 42.2329 231.109 40.5187 231.109 40.5187H231.109Z" fill="#2F2E41"/>
<path d="M202.174 103.696C200.466 105.623 198.087 106.303 196.862 105.214C195.636 104.125 196.029 101.681 197.739 99.7529C198.411 98.9735 199.26 98.3666 200.215 97.983L207.559 89.9086L211.271 93.4388L203.637 101.024C203.37 102.019 202.868 102.935 202.174 103.696H202.174Z" fill="#FFB6B6"/>
<path d="M223.648 65.7057C223.648 65.7057 228.102 61.6104 229.981 62.9891C231.86 64.3677 232.101 68.501 232.101 68.501L221.423 85.7172L206.022 98.7107L202.581 94.7981L216.153 80.8751L223.648 65.7057V65.7057V65.7057Z" fill="#3F3D56"/>
<path d="M232.674 56.427L230.262 65.0108H243.504L239.143 54.4342L232.674 56.427Z" fill="#FFB6B6"/>
<path opacity="0.1" d="M232.674 56.427L230.262 65.0108H243.504L239.143 54.4342L232.674 56.427Z" fill="black"/>
<path d="M239.389 84.7538L247.154 103.114L220.876 101.815L222.662 84.7538H239.389Z" fill="#FFB6B6"/>
<path d="M231.793 60.6158L242.75 60.1588L250.055 72.9541L243.663 93.5179L221.293 95.8027L223.715 75.9708L224.945 64.7286L231.793 60.6158Z" fill="#3F3D56"/>
<path d="M250.055 120.339C249.528 122.895 248.956 126.398 248.397 130.195C248.106 132.172 247.818 134.228 247.543 136.272C246.834 141.515 246.201 146.675 245.783 150.187C242.306 151.089 238.691 151.949 234.949 152.762L233.016 136.272L232.303 130.195L231.565 123.906L231.232 130.195L230.91 136.272L229.983 153.798C227.979 154.201 225.944 154.588 223.876 154.963C223.77 154.985 223.662 155.004 223.556 155.02C223.451 155.043 223.345 155.062 223.237 155.078C221.617 155.372 219.974 155.654 218.312 155.929L218.037 136.272L217.951 130.195L217.641 108.142L220.341 99.2116L221.156 99.138L223.237 98.9493L223.556 98.9205L223.876 98.8885L244.571 97.0076L245.262 96.9436C245.262 96.9436 245.754 97.9065 246.431 99.509C246.489 99.6434 246.55 99.7841 246.61 99.9281C247.195 101.336 247.892 103.162 248.528 105.225C249.368 107.938 250.106 111.06 250.352 114.166C250.519 116.274 250.461 118.372 250.055 120.339Z" fill="#2F2E41"/>
<path d="M250.864 112.002C250.671 114.572 249.19 116.555 247.557 116.432C245.923 116.309 244.755 114.127 244.948 111.556C245.011 110.528 245.319 109.53 245.846 108.646L246.799 97.7687L251.889 98.3252L250.409 108.989C250.799 109.943 250.955 110.976 250.864 112.002Z" fill="#FFB6B6"/>
<path d="M244.945 68.7565C244.945 68.7565 246.008 62.7973 248.338 62.7541C250.667 62.711 253.361 65.8525 253.361 65.8525L255.291 86.0245L250.906 105.702L245.8 104.677L248.167 85.3695L244.945 68.7565L244.945 68.7565V68.7565Z" fill="#3F3D56"/>
<path d="M235.821 58.2923C240.225 58.2923 243.795 54.7186 243.795 50.3101C243.795 45.9017 240.225 42.3279 235.821 42.3279C231.416 42.3279 227.846 45.9017 227.846 50.3101C227.846 54.7186 231.416 58.2923 235.821 58.2923Z" fill="#FFB6B6"/>
<path d="M232.763 41.3967C232.763 41.3967 231.434 45.1217 233.561 45.9199C235.688 46.7181 238.612 47.7824 238.346 49.1128C238.08 50.4431 239.143 54.4342 239.143 54.4342C239.143 54.4342 232.764 58.4253 237.017 62.4164C241.27 66.4075 244.46 64.7629 243.795 68.645C243.13 72.5272 249.776 70.9308 249.776 70.9308C249.776 70.9308 252.168 67.2057 250.308 63.4807C248.447 59.7557 251.637 66.4075 252.434 66.4075C253.232 66.4075 257.219 67.4718 255.624 62.9486C254.029 58.4253 251.637 58.1593 251.637 54.7003C251.637 51.2414 250.042 46.9842 249.51 46.452C248.979 45.9199 246.586 39.002 241.801 39.5341C237.017 40.0663 232.764 41.3967 232.764 41.3967H232.763V41.3966V41.3967Z" fill="#2F2E41"/>
<path d="M197.056 92.6128L190.62 94.5154L195.055 109.547L201.491 107.645L197.056 92.6128Z" fill="#008864"/>
<path d="M91.5978 79.8178L85.1616 81.7203L89.5967 96.7525L96.0329 94.8499L91.5978 79.8178Z" fill="#008864"/>
<path d="M212.304 125.397V156.876C210.617 157.125 208.914 157.368 207.191 157.602V125.397H212.304Z" fill="#3F3D56"/>
<path d="M276 130.194H210.707V136.272H276V130.194Z" fill="#008864"/>
<path d="M111.485 24.4917C115.734 24.4917 119.18 21.0432 119.18 16.7893C119.18 12.5354 115.734 9.08698 111.485 9.08698C107.235 9.08698 103.79 12.5354 103.79 16.7893C103.79 21.0432 107.235 24.4917 111.485 24.4917Z" fill="#E6E6E6"/>
<path d="M240.37 36.6405C244.62 36.6405 248.065 33.192 248.065 28.9381C248.065 24.6842 244.62 21.2357 240.37 21.2357C236.12 21.2357 232.675 24.6842 232.675 28.9381C232.675 33.192 236.12 36.6405 240.37 36.6405Z" fill="#E6E6E6"/>
<path d="M113.59 18.7511C113.177 18.7297 112.765 18.7203 112.353 18.717C112.626 17.1763 112.9 15.6356 113.174 14.0949C113.236 13.741 113.132 13.3823 112.806 13.1918C112.496 13.01 112.095 13.0711 111.838 13.3168C111.079 14.044 110.319 14.7712 109.559 15.4984C109.247 15.7969 109.259 16.3287 109.559 16.6293C109.871 16.9412 110.376 16.9287 110.689 16.6293C110.857 16.4686 111.025 16.3079 111.193 16.1472L110.73 18.7523C110.28 18.7748 109.829 18.8041 109.38 18.8483C108.951 18.8905 108.581 19.1856 108.581 19.648C108.581 20.0894 108.947 20.438 109.38 20.4477C110.044 20.4625 110.708 20.4773 111.371 20.492C111.537 20.4957 111.719 20.429 111.865 20.3185C112.44 20.3131 113.015 20.3207 113.59 20.3505C114.021 20.3729 114.389 19.9669 114.389 19.5508C114.389 19.0992 114.022 18.7736 113.59 18.7511V18.7511Z" fill="white"/>
<path d="M173.549 15.4047C177.799 15.4047 181.244 11.9563 181.244 7.70236C181.244 3.44847 177.799 0 173.549 0C169.299 0 165.854 3.44847 165.854 7.70236C165.854 11.9563 169.299 15.4047 173.549 15.4047Z" fill="#008864"/>
<path d="M175.654 9.66417C175.241 9.64277 174.829 9.63328 174.417 9.63004C174.69 8.08935 174.964 6.54862 175.238 5.00791C175.3 4.654 175.196 4.29535 174.87 4.10482C174.56 3.92307 174.159 3.98412 173.902 4.22987C173.143 4.95705 172.383 5.68423 171.623 6.41141C171.311 6.70996 171.323 7.24173 171.623 7.54233C171.935 7.85422 172.44 7.84175 172.753 7.54233C172.921 7.38161 173.089 7.2209 173.257 7.06018L172.794 9.6653C172.344 9.68779 171.893 9.71714 171.444 9.76134C171.015 9.80357 170.645 10.0986 170.645 10.561C170.645 11.0025 171.011 11.3511 171.444 11.3607C172.108 11.3755 172.772 11.3903 173.435 11.4051C173.601 11.4088 173.783 11.342 173.929 11.2315C174.504 11.2261 175.079 11.2337 175.654 11.2635C176.085 11.2859 176.452 10.88 176.452 10.4639C176.452 10.0122 176.086 9.68662 175.654 9.66417L175.654 9.66417Z" fill="white"/>
<path d="M60.4297 36.6259C64.6795 36.6259 68.1247 33.1774 68.1247 28.9235C68.1247 24.6696 64.6795 21.2211 60.4297 21.2211C56.1798 21.2211 52.7346 24.6696 52.7346 28.9235C52.7346 33.1774 56.1798 36.6259 60.4297 36.6259Z" fill="#E6E6E6"/>
<path d="M62.7702 31.1068C62.1087 30.7645 61.3864 30.5822 60.661 30.5566C61.2266 29.6449 61.6165 28.6213 61.7699 27.5657C61.8594 26.9356 61.869 26.3054 61.4248 25.7968C61.086 25.4066 60.5971 25.2562 60.1017 25.2082C59.6991 25.1699 59.2197 25.1955 58.8394 25.3234C58.1715 25.5409 57.951 26.1167 57.967 26.7724C57.983 27.3962 58.0789 28.0296 58.4975 28.519C58.7851 28.8548 59.2037 29.0756 59.6416 29.1107C59.2389 29.9424 58.6605 30.6781 57.9287 31.2955C57.6251 31.5482 57.6347 32.0568 57.8647 32.3447C58.114 32.6582 58.539 32.7477 58.897 32.5494C59.8365 32.0248 61.0125 31.996 61.9648 32.4886C62.3483 32.687 62.8309 32.5878 63.0578 32.2007C63.2687 31.8425 63.1568 31.3051 62.7702 31.1068V31.1068ZM60.2328 27.0124C60.2328 27.0635 60.2296 27.1115 60.2232 27.1627C60.22 27.1915 60.2168 27.2171 60.2168 27.2331C60.2136 27.2491 60.2136 27.2618 60.2104 27.2651V27.2683C60.1976 27.3482 60.1785 27.425 60.1657 27.5018C60.0378 27.4666 59.9036 27.4634 59.7726 27.5082C59.7598 27.5114 59.7534 27.5114 59.7438 27.5146H59.7342C59.7087 27.4954 59.6895 27.4794 59.7406 27.5114C59.7119 27.4794 59.6959 27.4602 59.6863 27.4538L59.6639 27.4122C59.6671 27.425 59.6671 27.4346 59.6671 27.4378C59.6607 27.4282 59.6512 27.3994 59.6352 27.3482C59.6192 27.2907 59.6032 27.2299 59.5904 27.1691C59.5713 27.0731 59.5681 26.9484 59.5649 26.8076C59.5777 26.8076 59.5904 26.8044 59.5936 26.8044C59.6863 26.798 59.7758 26.7948 59.8685 26.7948C59.9292 26.7948 59.9899 26.8012 60.0506 26.8044C60.0666 26.8108 60.1689 26.8332 60.2072 26.8428C60.2136 26.8492 60.2232 26.8556 60.2296 26.8588C60.236 26.8684 60.2392 26.8748 60.2488 26.8844L60.2328 27.0124L60.2328 27.0124Z" fill="white"/>
<path d="M241.443 28.8357C241.98 28.423 242.405 27.8153 242.36 27.1115C242.277 25.8128 241.005 25.221 239.88 25.0035C239.455 24.9204 239.017 25.1219 238.896 25.5601C238.79 25.9536 239.03 26.4622 239.455 26.5453C239.637 26.5805 239.819 26.6221 240.002 26.6765C240.094 26.7021 240.187 26.7341 240.276 26.7725C240.302 26.7852 240.395 26.8268 240.411 26.8364C240.484 26.8748 240.561 26.9196 240.631 26.9708C240.637 26.9804 240.676 27.0156 240.701 27.0411C240.644 26.9964 240.753 27.1659 240.753 27.1243C240.759 27.1403 240.762 27.1531 240.765 27.1659V27.1947C240.765 27.1979 240.746 27.2618 240.753 27.2618C240.701 27.345 240.682 27.3834 240.65 27.4154C240.513 27.5689 240.417 27.6265 240.216 27.7225C239.749 27.9496 239.235 28.0711 238.768 28.3079C237.956 28.7237 238.522 30.0192 239.385 29.7697C239.426 29.7601 239.465 29.7473 239.506 29.7377C239.529 29.7345 239.567 29.7281 239.592 29.7281C239.647 29.7281 239.698 29.7281 239.749 29.7313H239.768C239.874 29.7537 239.979 29.7793 240.078 29.8209C240.091 29.8273 240.11 29.8368 240.126 29.8497C240.171 29.8753 240.219 29.904 240.264 29.9296L240.315 29.9648L240.318 29.968C240.359 30 240.395 30.0384 240.433 30.0736C240.439 30.08 240.474 30.1215 240.494 30.1407C240.51 30.1631 240.542 30.2047 240.545 30.2111C240.574 30.2591 240.602 30.3103 240.628 30.3614C240.631 30.3711 240.634 30.387 240.637 30.403C240.644 30.435 240.653 30.4702 240.663 30.5054C240.66 30.5182 240.666 30.5726 240.666 30.6078C240.666 30.6173 240.666 30.6238 240.669 30.6302C240.66 30.6717 240.647 30.7133 240.637 30.7549C240.634 30.7645 240.634 30.7677 240.634 30.7709C240.606 30.8253 240.574 30.8764 240.545 30.9276C240.542 30.934 240.535 30.9372 240.532 30.9436V30.9468C240.497 30.982 240.468 31.014 240.433 31.0492C240.411 31.0716 240.382 31.094 240.356 31.1164C240.337 31.126 240.286 31.1643 240.273 31.1707C240.228 31.1931 240.187 31.2187 240.142 31.2411H240.139C240.136 31.2443 240.133 31.2443 240.129 31.2443C240.069 31.2635 240.011 31.2795 239.954 31.2955H239.944C239.89 31.2955 239.762 31.2795 239.762 31.2859C239.743 31.2827 239.717 31.2763 239.701 31.2731C239.666 31.2539 239.599 31.2187 239.599 31.2187C238.714 30.6877 237.908 32.0728 238.79 32.6006C240.222 33.4578 242.171 32.3063 242.261 30.6813C242.302 29.9424 241.964 29.2931 241.443 28.8357H241.443Z" fill="white"/>
</g>
<defs>
<clipPath id="clip0_46_382">
<rect width="276" height="162" fill="white"/>
</clipPath>
</defs>
</svg>
