<svg width="265" height="209" viewBox="0 0 265 209" fill="none" xmlns="http://www.w3.org/2000/svg">
<g clip-path="url(#clip0_46_238)">
<path d="M132.825 5.85142C132.813 6.53398 132.666 7.20746 132.394 7.83338C132.122 8.45931 131.73 9.02542 131.24 9.49937C130.749 9.97333 130.17 10.3458 129.536 10.5956C128.902 10.8454 128.225 10.9676 127.544 10.9552H103.044C102.955 10.9529 102.867 10.9506 102.778 10.9438C102.548 10.929 102.32 10.8977 102.095 10.8503V2.16155C102.095 1.8139 102.201 1.4745 102.398 1.18879C102.596 0.903087 102.876 0.684717 103.201 0.562912H127.73C129.105 0.588958 130.414 1.16039 131.369 2.15183C132.324 3.14327 132.848 4.47377 132.825 5.85142H132.825Z" fill="#E6E6E6"/>
<path d="M262.172 1.19361e-05H104.169C103.828 -0.000995615 103.491 0.0617923 103.173 0.185134C102.635 0.38692 102.171 0.74868 101.843 1.22199C101.516 1.69529 101.34 2.25755 101.341 2.83348V175.486C101.341 176.238 101.639 176.958 102.169 177.49C102.7 178.021 103.419 178.32 104.169 178.32H262.172C262.922 178.32 263.641 178.021 264.171 177.49C264.702 176.958 265 176.238 265 175.486V2.83348C265 2.08208 264.702 1.36154 264.171 0.830217C263.641 0.298897 262.922 0.000284296 262.172 1.19361e-05ZM263.869 175.486C263.868 175.937 263.689 176.369 263.371 176.688C263.053 177.007 262.621 177.186 262.172 177.187H104.169C103.719 177.186 103.288 177.007 102.97 176.688C102.652 176.369 102.473 175.937 102.472 175.486V2.83348C102.473 2.3828 102.652 1.95078 102.97 1.63209C103.288 1.31341 103.719 1.13408 104.169 1.1334H262.172C262.621 1.13408 263.053 1.31341 263.371 1.63209C263.689 1.95078 263.868 2.3828 263.869 2.83348V175.486Z" fill="#E6E6E6"/>
<path d="M178.313 59.3221C180.363 59.3221 182.024 57.6572 182.024 55.6035C182.024 53.5497 180.363 51.8848 178.313 51.8848C176.263 51.8848 174.601 53.5497 174.601 55.6035C174.601 57.6572 176.263 59.3221 178.313 59.3221Z" fill="#008864"/>
<path d="M193.778 59.3221C195.828 59.3221 197.49 57.6572 197.49 55.6035C197.49 53.5497 195.828 51.8848 193.778 51.8848C191.728 51.8848 190.066 53.5497 190.066 55.6035C190.066 57.6572 191.728 59.3221 193.778 59.3221Z" fill="#008864"/>
<path d="M147.381 90.0518C149.431 90.0518 151.093 88.3869 151.093 86.3331C151.093 84.2794 149.431 82.6145 147.381 82.6145C145.331 82.6145 143.669 84.2794 143.669 86.3331C143.669 88.3869 145.331 90.0518 147.381 90.0518Z" fill="#008864"/>
<path d="M162.847 90.0518C164.897 90.0518 166.559 88.3869 166.559 86.3331C166.559 84.2794 164.897 82.6145 162.847 82.6145C160.797 82.6145 159.135 84.2794 159.135 86.3331C159.135 88.3869 160.797 90.0518 162.847 90.0518Z" fill="#008864"/>
<path d="M178.313 105.417C180.363 105.417 182.024 103.752 182.024 101.698C182.024 99.6442 180.363 97.9793 178.313 97.9793C176.263 97.9793 174.601 99.6442 174.601 101.698C174.601 103.752 176.263 105.417 178.313 105.417Z" fill="#008864"/>
<path d="M193.778 105.417C195.828 105.417 197.49 103.752 197.49 101.698C197.49 99.6442 195.828 97.9793 193.778 97.9793C191.728 97.9793 190.066 99.6442 190.066 101.698C190.066 103.752 191.728 105.417 193.778 105.417Z" fill="#008864"/>
<path d="M209.244 105.417C211.294 105.417 212.955 103.752 212.955 101.698C212.955 99.6442 211.294 97.9793 209.244 97.9793C207.194 97.9793 205.532 99.6442 205.532 101.698C205.532 103.752 207.194 105.417 209.244 105.417Z" fill="#008864"/>
<path d="M116.236 2.74745C116.154 2.83035 116.107 2.94277 116.107 3.06C116.107 3.17723 116.154 3.28966 116.236 3.37257L116.236 3.3726L118.131 5.27023H113.46C113.343 5.27057 113.231 5.3173 113.149 5.40016C113.066 5.48302 113.02 5.59526 113.02 5.71227C113.02 5.82928 113.066 5.94152 113.149 6.02438C113.231 6.10725 113.343 6.15397 113.46 6.15431H118.131L116.236 8.05194C116.154 8.13483 116.107 8.24727 116.107 8.36451C116.107 8.48174 116.154 8.59418 116.236 8.67708C116.319 8.75997 116.431 8.80655 116.548 8.80655C116.665 8.80655 116.778 8.75998 116.86 8.67709L119.508 6.02484C119.591 5.94194 119.637 5.82951 119.637 5.71227C119.637 5.59503 119.591 5.4826 119.508 5.3997L116.86 2.74745C116.778 2.66456 116.665 2.618 116.548 2.618C116.431 2.618 116.319 2.66456 116.237 2.74745H116.236Z" fill="white"/>
<path d="M228.1 63.5371H128.436C128.05 63.5371 127.737 63.368 127.737 63.1593C127.737 62.9507 128.05 62.7815 128.436 62.7815H228.1C228.486 62.7815 228.798 62.9507 228.798 63.1593C228.798 63.368 228.486 63.5371 228.1 63.5371Z" fill="#E6E6E6"/>
<path d="M228.1 46.8467H128.436C128.05 46.8467 127.737 46.6776 127.737 46.469C127.737 46.2603 128.05 46.0912 128.436 46.0912H228.1C228.486 46.0912 228.798 46.2603 228.798 46.469C228.798 46.6776 228.486 46.8467 228.1 46.8467Z" fill="#E6E6E6"/>
<path d="M228.421 79.126H128.204C128.104 79.126 128.008 79.0862 127.937 79.0154C127.867 78.9445 127.827 78.8484 127.827 78.7482C127.827 78.648 127.867 78.5519 127.937 78.4811C128.008 78.4102 128.104 78.3704 128.204 78.3704H228.421C228.521 78.3704 228.617 78.4102 228.688 78.4811C228.759 78.5519 228.798 78.648 228.798 78.7482C228.798 78.8484 228.759 78.9445 228.688 79.0154C228.617 79.0862 228.521 79.126 228.421 79.126Z" fill="#E6E6E6"/>
<path d="M228.421 94.2379H128.204C128.104 94.2379 128.008 94.1981 127.937 94.1272C127.867 94.0564 127.827 93.9603 127.827 93.8601C127.827 93.7599 127.867 93.6638 127.937 93.5929C128.008 93.5221 128.104 93.4823 128.204 93.4823H228.421C228.521 93.4823 228.617 93.5221 228.688 93.5929C228.759 93.6638 228.798 93.7599 228.798 93.8601C228.798 93.9603 228.759 94.0564 228.688 94.1272C228.617 94.1981 228.521 94.2379 228.421 94.2379Z" fill="#E6E6E6"/>
<path d="M228.421 109.728H128.204C128.104 109.728 128.008 109.688 127.937 109.617C127.867 109.546 127.827 109.45 127.827 109.35C127.827 109.25 127.867 109.153 127.937 109.083C128.008 109.012 128.104 108.972 128.204 108.972H228.421C228.521 108.972 228.617 109.012 228.688 109.083C228.759 109.153 228.798 109.25 228.798 109.35C228.798 109.45 228.759 109.546 228.688 109.617C228.617 109.688 228.521 109.728 228.421 109.728Z" fill="#E6E6E6"/>
<path d="M216.732 108.949V46.7031C216.732 46.5738 216.901 46.4689 217.109 46.4689C217.317 46.4689 217.486 46.5738 217.486 46.7031V108.949C217.486 109.078 217.317 109.183 217.109 109.183C216.901 109.183 216.732 109.078 216.732 108.949Z" fill="#E6E6E6"/>
<path d="M201.271 108.949V46.7031C201.271 46.5738 201.44 46.4689 201.648 46.4689C201.856 46.4689 202.025 46.5738 202.025 46.7031V108.949C202.025 109.078 201.856 109.183 201.648 109.183C201.44 109.183 201.271 109.078 201.271 108.949Z" fill="#E6E6E6"/>
<path d="M185.81 108.949V46.7031C185.81 46.5738 185.979 46.4689 186.187 46.4689C186.395 46.4689 186.564 46.5738 186.564 46.7031V108.949C186.564 109.078 186.395 109.183 186.187 109.183C185.979 109.183 185.81 109.078 185.81 108.949Z" fill="#E6E6E6"/>
<path d="M170.726 108.949V46.7031C170.726 46.5738 170.895 46.4689 171.103 46.4689C171.312 46.4689 171.481 46.5738 171.481 46.7031V108.949C171.481 109.078 171.312 109.183 171.103 109.183C170.895 109.183 170.726 109.078 170.726 108.949Z" fill="#E6E6E6"/>
<path d="M154.888 124.757V46.7624C154.91 46.6785 154.958 46.6041 155.027 46.5509C155.095 46.4978 155.179 46.4689 155.265 46.4689C155.352 46.4689 155.436 46.4978 155.504 46.5509C155.572 46.6041 155.621 46.6785 155.642 46.7624V124.757C155.621 124.841 155.572 124.915 155.504 124.969C155.436 125.022 155.352 125.051 155.265 125.051C155.179 125.051 155.095 125.022 155.027 124.969C154.958 124.915 154.91 124.841 154.888 124.757Z" fill="#E6E6E6"/>
<path d="M139.05 124.757V46.7624C139.072 46.6785 139.12 46.6041 139.189 46.5509C139.257 46.4978 139.341 46.4689 139.427 46.4689C139.514 46.4689 139.598 46.4978 139.666 46.5509C139.734 46.6041 139.783 46.6785 139.804 46.7624V124.757C139.783 124.841 139.734 124.915 139.666 124.969C139.598 125.022 139.514 125.051 139.427 125.051C139.341 125.051 139.257 125.022 139.189 124.969C139.12 124.915 139.072 124.841 139.05 124.757Z" fill="#E6E6E6"/>
<path d="M128.204 125.217C128.104 125.218 128.008 125.178 127.937 125.107C127.866 125.037 127.826 124.941 127.826 124.84C127.826 124.74 127.865 124.644 127.936 124.573C128.006 124.502 128.102 124.462 128.202 124.462L166.576 124.295C166.676 124.297 166.77 124.337 166.841 124.407C166.911 124.477 166.952 124.572 166.955 124.671C166.955 124.721 166.946 124.77 166.927 124.816C166.908 124.862 166.881 124.904 166.846 124.939C166.811 124.974 166.77 125.002 166.724 125.021C166.678 125.04 166.629 125.05 166.58 125.051L128.206 125.217H128.204Z" fill="#E6E6E6"/>
<path d="M156.26 30.291C156.16 30.2911 156.064 30.2514 155.993 30.1806C155.922 30.1098 155.882 30.0137 155.882 29.9135C155.882 29.8133 155.922 29.7172 155.993 29.6463C156.063 29.5754 156.159 29.5355 156.259 29.5354L210.08 29.4681H210.081C210.181 29.468 210.277 29.5078 210.348 29.5786C210.418 29.6494 210.458 29.7454 210.458 29.8456C210.458 29.9458 210.419 30.0419 210.348 30.1129C210.277 30.1838 210.181 30.2236 210.081 30.2237L156.26 30.291H156.26Z" fill="#E6E6E6"/>
<path d="M174.484 153.462C172.989 153.462 171.529 153.018 170.286 152.186C169.044 151.355 168.075 150.172 167.504 148.789C166.932 147.406 166.782 145.884 167.074 144.416C167.365 142.948 168.085 141.599 169.141 140.54C170.198 139.482 171.544 138.761 173.01 138.469C174.475 138.177 175.994 138.327 177.375 138.9C178.756 139.473 179.936 140.443 180.766 141.687C181.596 142.932 182.039 144.396 182.039 145.893C182.039 146.887 181.844 147.871 181.464 148.789C181.084 149.708 180.528 150.542 179.826 151.245C179.125 151.948 178.292 152.505 177.375 152.886C176.458 153.266 175.476 153.462 174.484 153.462Z" fill="#E6E6E6"/>
<path d="M177.465 145.146H175.229V142.906C175.229 142.708 175.151 142.518 175.011 142.378C174.871 142.238 174.681 142.159 174.484 142.159C174.286 142.159 174.097 142.238 173.957 142.378C173.817 142.518 173.738 142.708 173.738 142.906V145.146H171.503C171.305 145.146 171.115 145.225 170.976 145.365C170.836 145.505 170.757 145.695 170.757 145.893C170.757 146.091 170.836 146.281 170.976 146.421C171.115 146.561 171.305 146.639 171.503 146.639H173.738V148.879C173.738 148.978 173.757 149.075 173.795 149.166C173.832 149.256 173.887 149.339 173.956 149.408C174.025 149.478 174.108 149.533 174.198 149.571C174.289 149.608 174.386 149.628 174.484 149.628C174.582 149.628 174.679 149.608 174.769 149.571C174.86 149.533 174.942 149.478 175.011 149.408C175.081 149.339 175.135 149.256 175.173 149.166C175.21 149.075 175.229 148.978 175.229 148.879V146.639H177.465C177.662 146.639 177.852 146.561 177.992 146.421C178.132 146.281 178.21 146.091 178.21 145.893C178.21 145.695 178.132 145.505 177.992 145.365C177.852 145.225 177.662 145.146 177.465 145.146Z" fill="white"/>
<path d="M191.83 153.462C190.336 153.462 188.875 153.018 187.633 152.186C186.39 151.355 185.422 150.172 184.85 148.789C184.278 147.406 184.129 145.884 184.42 144.416C184.712 142.948 185.431 141.599 186.488 140.54C187.544 139.482 188.891 138.761 190.356 138.469C191.822 138.177 193.341 138.327 194.721 138.9C196.102 139.473 197.282 140.443 198.112 141.687C198.942 142.932 199.385 144.396 199.385 145.893C199.385 146.887 199.19 147.871 198.81 148.789C198.431 149.708 197.874 150.542 197.173 151.245C196.471 151.948 195.638 152.505 194.721 152.886C193.805 153.266 192.822 153.462 191.83 153.462Z" fill="#E6E6E6"/>
<path d="M195.654 149.114L193.686 146.805C194.147 146.152 194.347 145.35 194.247 144.556C194.147 143.763 193.754 143.035 193.146 142.517C192.537 141.999 191.758 141.728 190.96 141.757C190.162 141.787 189.404 142.114 188.835 142.675C188.265 143.236 187.926 143.99 187.884 144.789C187.842 145.587 188.1 146.373 188.607 146.991C189.114 147.609 189.834 148.014 190.624 148.127C191.414 148.24 192.218 148.053 192.878 147.602L194.794 149.85C194.892 149.963 195.03 150.033 195.179 150.045C195.328 150.056 195.476 150.008 195.59 149.911C195.703 149.813 195.774 149.675 195.786 149.526C195.798 149.376 195.751 149.228 195.654 149.114ZM189.002 144.948C189.002 144.537 189.124 144.136 189.352 143.794C189.58 143.452 189.903 143.186 190.282 143.029C190.661 142.871 191.078 142.83 191.481 142.91C191.883 142.99 192.253 143.188 192.543 143.479C192.833 143.77 193.03 144.14 193.11 144.543C193.19 144.946 193.149 145.364 192.992 145.743C192.835 146.123 192.569 146.448 192.228 146.676C191.887 146.904 191.486 147.026 191.076 147.026C190.526 147.026 189.999 146.806 189.61 146.417C189.221 146.027 189.003 145.499 189.002 144.948Z" fill="white"/>
<path d="M156.26 154.208C156.16 154.208 156.064 154.169 155.993 154.098C155.922 154.027 155.882 153.931 155.882 153.831C155.882 153.731 155.922 153.635 155.993 153.564C156.063 153.493 156.159 153.453 156.259 153.453L210.08 153.385H210.081C210.181 153.385 210.277 153.425 210.348 153.496C210.418 153.567 210.458 153.663 210.458 153.763C210.458 153.863 210.419 153.959 210.348 154.03C210.277 154.101 210.181 154.141 210.081 154.141L156.26 154.208H156.26Z" fill="#E6E6E6"/>
<path d="M87.3845 203.637L92.1951 203.636L94.4837 185.048L87.3838 185.048L87.3845 203.637Z" fill="#FFB6B6"/>
<path d="M86.1594 202.063V208.308H101.669V208.111C101.669 206.507 101.033 204.969 99.9008 203.835C98.7686 202.7 97.2332 202.063 95.6321 202.063L92.7963 199.909L92.6492 199.97L87.5132 202.063H86.1594Z" fill="#2F2E41"/>
<path d="M43.9194 197.371L48.2247 199.521L58.55 183.907L52.1955 180.734L43.9194 197.371Z" fill="#FFB6B6"/>
<path d="M40.7422 201.005L54.6231 207.934L54.7098 207.76C55.0639 207.049 55.2748 206.276 55.3304 205.483C55.386 204.691 55.2852 203.895 55.0337 203.142C54.7823 202.389 54.3851 201.693 53.865 201.093C53.3448 200.494 52.7118 200.003 52.0022 199.649L50.4222 196.456L50.2563 196.445L44.7356 196.018L44.6225 195.961L43.5214 195.413L40.7422 201.005Z" fill="#2F2E41"/>
<path d="M90.6473 103.722L64.122 104.653L63.9372 104.383C63.9372 104.383 61.6746 109.673 61.6746 114.206C61.6746 115.713 62.721 125.572 62.189 127.437C62.1229 127.669 62.578 128.238 62.4288 129.318C62.3319 130.019 61.7974 129.48 61.6746 130.451C61.5864 131.149 62.5272 131.534 62.4288 132.34C62.3213 133.222 61.0272 136.076 60.9107 137.057C59.6705 147.494 58.0193 162.614 58.0193 162.614C58.0193 162.614 51.3875 180.409 49.9846 180.698C47.6298 181.184 46.04 185.473 47.345 186.365C47.9663 186.79 55.9972 189.648 55.9972 189.648C56.4385 189.728 57.819 189.034 56.9395 187.394C56.7776 187.092 57.7432 187.86 57.9036 187.499C58.0743 187.114 57.7393 185.584 57.9347 185.158C59.6898 181.326 62.3845 176.015 64.9381 173.288C68.7112 169.259 71.1006 164.128 71.7578 158.643L77.615 126.105L79.6225 135.229L81.2835 136.874L80.8278 140.708L80.9064 144.43L85.0545 159.92C85.0545 159.92 85.6766 188.847 84.6774 189.765C84.1362 190.263 81.8399 196.391 86.1858 196.944L94.0815 196.333C94.0815 196.333 95.1453 194.087 94.6134 193.288C94.0815 192.488 94.1134 192.707 94.7624 191.399C95.4113 190.09 95.1453 187.874 95.1453 187.874C96.1796 177.456 96.5877 166.986 96.3673 156.519C95.9715 139.328 93.5729 119.58 93.5729 119.177C93.5529 118.766 93.6285 118.355 93.7939 117.978V116.893L92.775 113.048L90.6473 103.722Z" fill="#2F2E41"/>
<path d="M56.3065 113.388C56.0841 113.008 55.9477 112.583 55.907 112.143C55.8662 111.704 55.9221 111.261 56.0707 110.846C56.2193 110.43 56.457 110.053 56.7671 109.74C57.0771 109.426 57.4519 109.185 57.8652 109.032L57.6746 89.938L62.3756 92.9174L61.8352 111.015C62.0449 111.727 61.9864 112.492 61.6709 113.164C61.3554 113.836 60.8047 114.369 60.1232 114.662C59.4417 114.954 58.6768 114.986 57.9733 114.752C57.2699 114.517 56.6768 114.032 56.3065 113.388Z" fill="#FFB8B8"/>
<path d="M57.3796 105.384L57.7798 105.365L57.8275 105.366L59.3079 105.361L61.7464 105.355L61.923 105.353L62.0025 105.368L62.8349 105.513L62.8694 105.289L64.4921 102.184L65.7396 100.465L65.2857 98.4393L64.3905 97.3223L65.911 95.4764L66.103 94.5648L67.3756 88.569L71.5939 68.6822L71.5942 68.6703L71.6828 68.2484L73.0547 61.7878L72.632 60.1633L72.1611 58.3798C71.8598 57.2475 71.1615 56.2618 70.1941 55.6032C69.7742 55.3185 69.312 55.1023 68.8247 54.9624C68.2036 54.7781 67.5512 54.7243 66.9083 54.8044L66.9011 54.8066C66.5363 54.852 66.1779 54.9388 65.8326 55.0653L65.6953 55.1191C65.5041 55.1967 65.3181 55.2864 65.1383 55.3876C64.5811 55.6981 64.0911 56.1164 63.6968 56.6184C63.3025 57.1203 63.0118 57.6958 62.8416 58.3114L58.3721 63.2994L57.5859 66.1218L57.3331 67.0282L56.5229 71.8602L56.535 90.8758L56.3907 91.7373L56.1856 96.5111L56.9872 97.6054L56.0816 98.9321L56.0505 99.6603L56.0444 99.8477L57.254 101.078L57.3311 103.732L57.3796 105.384Z" fill="#3F3D56"/>
<path d="M61.7456 109.939C68.4431 111.099 72.9343 110.657 75.6981 106.539C79.3039 101.939 85.8613 107.37 91.3939 109.39L92.05 108.679L93.1662 107.474L92.1405 106.311L93.1662 104.066L92.3102 101.297L91.2166 101.097L91.5108 98.7131L91.9708 97.319L90.6208 95.8343L89.4745 92.1281L90.3003 84.372C91.4304 73.7405 89.2407 63.0195 84.033 53.6873L80.8993 50.869L79.5983 49.6978L77.8524 46.4337L76.0084 46.649L71.0157 47.227L70.846 47.635L69.6204 50.597L65.1682 55.3883C64.5385 56.066 64.0601 56.8702 63.7647 57.7475C63.4693 58.6248 63.3637 59.555 63.4549 60.4763L63.5831 61.7684L63.6774 62.6978L64.1224 67.1709L65.9362 85.4449L66.072 86.4158L67.5313 96.9224C65.1594 99.2193 65.015 98.7182 64.0082 102.761C63.895 103.21 62.5827 104.211 62.4998 104.65C62.3829 105.269 61.7456 109.939 61.7456 109.939Z" fill="#3F3D56"/>
<path d="M75.3441 44.5081C80.1334 44.5081 84.0159 40.6184 84.0159 35.8202C84.0159 31.022 80.1334 27.1323 75.3441 27.1323C70.5548 27.1323 66.6724 31.022 66.6724 35.8202C66.6724 40.6184 70.5548 44.5081 75.3441 44.5081Z" fill="#FFB6B6"/>
<path d="M66.2716 29.2802C67.4356 28.066 69.295 27.4671 70.8738 28.0433C71.2269 27.0311 71.8504 26.1353 72.6764 25.4536C73.5025 24.7718 74.4993 24.3302 75.5586 24.1767C76.6178 24.0232 77.6987 24.1639 78.6837 24.5833C79.6686 25.0027 80.5199 25.6848 81.1447 26.5553C81.4304 26.4267 81.7444 26.3743 82.0563 26.403C82.3681 26.4317 82.6673 26.5406 82.9248 26.7192C83.4362 27.0834 83.8481 27.5704 84.1229 28.1355C84.8319 29.4849 85.1624 31.0016 85.0792 32.5243C84.996 34.0469 84.5022 35.5185 83.6504 36.7823C83.9898 36.0958 83.0356 37.2782 82.1057 36.9684C81.3068 36.7586 78.0255 34.6507 77.2066 34.7573C76.3878 34.8638 76.1222 34.2023 75.3211 34.0017C74.5366 33.7503 72.5338 36.9997 72.1324 39.1497C72.0563 39.5572 71.8716 40.0634 71.458 40.0726C70.9486 40.0841 70.796 39.3532 70.3664 39.0787C70.1638 38.9755 69.9292 38.9551 69.712 39.0218C69.4947 39.0885 69.3118 39.2371 69.2018 39.4362C69.1013 39.6409 69.0512 39.8667 69.0554 40.0947C69.0597 40.3228 69.1182 40.5465 69.2262 40.7473C69.4458 41.1464 69.7282 41.5074 70.0627 41.8163L69.8402 41.9388C69.621 42.096 69.3541 42.172 69.0852 42.1537C68.8162 42.1354 68.562 42.024 68.3661 41.8385C67.5379 42.2128 65.2853 40.1017 65.5843 38.8244C64.9553 37.2588 64.6114 35.5929 64.5688 33.9057C64.5341 32.204 65.1422 30.5518 66.2716 29.2802Z" fill="#2F2E41"/>
<path d="M129.884 81.0666C129.464 81.1992 129.02 81.2379 128.584 81.18C128.147 81.1222 127.728 80.9691 127.357 80.7316C126.986 80.4942 126.671 80.178 126.435 79.8056C126.199 79.4331 126.048 79.0133 125.991 78.5757L107.367 74.5173L111.311 70.5877L128.803 75.1385C129.543 75.0921 130.274 75.3192 130.858 75.7768C131.442 76.2344 131.839 76.8908 131.972 77.6215C132.105 78.3522 131.966 79.1065 131.581 79.7415C131.197 80.3764 130.593 80.8479 129.884 81.0666Z" fill="#FFB8B8"/>
<path d="M79.5525 54.1301C78.473 54.1695 77.4374 54.5683 76.6094 55.2633C76.1512 55.6438 75.7691 56.1079 75.4834 56.6309C75.1689 57.1982 74.9727 57.8237 74.9067 58.4692L74.9069 58.473C74.8103 59.4238 74.997 60.3819 75.4434 61.2265C75.8898 62.0711 76.5759 62.7643 77.4151 63.2187L83.5504 66.5497L84.3275 66.9707C89.555 72.3086 98.3697 75.0989 108.51 76.9501L114.34 78.5478L116.3 77.819L116.774 79.6858L118.726 79.7498L119.787 79.5289L122.007 78.6565L122.431 77.8022L122.431 77.7984L123.342 73.7484L123.348 73.7216L123.348 73.7178L123.561 72.7913L122.309 72.2108L121.219 70.7531L119.25 70.7927L117.454 70.9494L116.927 69.7161L94.1666 59.1642L89.4539 56.9772L89.4422 56.9703L89.2177 56.8647L83.0696 54.0149L81.3958 54.0681L79.5525 54.1301Z" fill="#3F3D56"/>
<path d="M129.29 85.7679C131.34 85.7679 133.002 84.103 133.002 82.0492C133.002 79.9955 131.34 78.3306 129.29 78.3306C127.24 78.3306 125.578 79.9955 125.578 82.0492C125.578 84.103 127.24 85.7679 129.29 85.7679Z" fill="#008864"/>
<path d="M22.8871 206.394C20.164 206.634 17.4216 206.263 14.8602 205.305C12.2989 204.348 9.98334 202.83 8.08268 200.861C5.59742 198.236 3.89194 194.857 2.24258 191.589C1.76246 190.638 1.26617 189.655 0.761273 188.713C0.198365 187.685 -0.0445778 186.512 0.0637425 185.345C0.172063 184.178 0.626681 183.071 1.36904 182.165C2.08044 181.259 3.04622 180.588 4.14194 180.237C5.23765 179.886 6.4131 179.872 7.51681 180.197L7.75749 180.267L9.92359 188.735C10.2467 187.472 10.9403 184.626 11.3784 181.837L11.4151 181.604L11.6309 181.7C13.8926 182.703 16.0193 183.987 17.9609 185.522C21.4003 188.286 24.1977 191.767 26.1586 195.723C28.1195 199.68 29.197 204.017 29.316 208.432L29.3217 208.696L22.8871 206.394Z" fill="#F2F2F2"/>
<path d="M105.564 208.884L0.449003 209C0.329921 209 0.215712 208.953 0.131508 208.868C0.0473043 208.784 0 208.669 0 208.55C0 208.431 0.0473043 208.316 0.131508 208.232C0.215712 208.148 0.329921 208.1 0.449003 208.1L105.564 207.984C105.683 207.985 105.797 208.032 105.881 208.116C105.965 208.201 106.012 208.315 106.012 208.434C106.012 208.553 105.965 208.667 105.881 208.752C105.797 208.836 105.683 208.884 105.564 208.884Z" fill="#CACACA"/>
<path d="M193.163 25.2446H173.177C172.727 25.2446 172.296 25.0654 171.978 24.7466C171.659 24.4278 171.48 23.9954 171.48 23.5445C171.48 23.0936 171.659 22.6612 171.978 22.3423C172.296 22.0235 172.727 21.8444 173.177 21.8444H193.163C193.613 21.8444 194.045 22.0235 194.363 22.3423C194.682 22.6612 194.86 23.0936 194.86 23.5445C194.86 23.9954 194.682 24.4278 194.363 24.7466C194.045 25.0654 193.613 25.2446 193.163 25.2446Z" fill="#E6E6E6"/>
<path d="M256.113 10.8076C255.292 10.8076 254.488 10.5635 253.805 10.1061C253.122 9.64876 252.589 8.99867 252.275 8.23809C251.96 7.4775 251.878 6.64057 252.038 5.83313C252.199 5.0257 252.594 4.28402 253.175 3.7019C253.756 3.11977 254.497 2.72333 255.303 2.56272C256.109 2.40212 256.944 2.48455 257.703 2.79959C258.462 3.11464 259.111 3.64815 259.568 4.33266C260.024 5.01717 260.268 5.82194 260.268 6.64519C260.268 7.74914 259.83 8.80787 259.051 9.58848C258.272 10.3691 257.215 10.8076 256.113 10.8076Z" fill="#E6E6E6"/>
</g>
<defs>
<clipPath id="clip0_46_238">
<rect width="265" height="209" fill="white"/>
</clipPath>
</defs>
</svg>
