<svg width="248" height="179" viewBox="0 0 248 179" fill="none" xmlns="http://www.w3.org/2000/svg">
<g clip-path="url(#clip0_46_140)">
<path opacity="0.1" d="M144.092 31.5681C128.193 31.0146 113.039 25.8733 98.5899 20.2495C84.1409 14.6256 69.8199 8.39345 54.2932 5.41343C44.3104 3.4946 32.8937 3.22473 24.8518 8.58556C17.1113 13.7428 14.6111 22.6463 13.2662 30.9071C12.2547 37.1233 11.6678 43.6642 14.433 49.4848C16.3578 53.5237 19.7737 56.9199 22.1369 60.7896C30.357 74.2534 24.5459 90.8574 15.6363 104.015C11.4578 110.19 6.61026 116.065 3.38618 122.631C0.162114 129.197 -1.33119 136.719 1.49102 143.416C4.2881 150.048 10.9509 155.039 18.1708 158.545C32.8344 165.66 50.1124 167.695 66.9611 168.862C104.257 171.416 141.754 170.309 179.148 169.202C192.988 168.791 206.889 168.377 220.502 166.229C228.062 165.038 235.869 163.149 241.358 158.588C248.324 152.797 250.053 142.995 245.383 135.734C237.551 123.558 215.899 120.532 210.423 107.464C207.411 100.271 210.505 92.257 214.885 85.5857C224.276 71.2757 240.022 58.7198 240.851 42.3606C241.422 31.1244 233.852 19.8744 222.148 14.557C209.882 8.97893 192.871 9.68334 183.822 18.9024C174.504 28.4005 158.128 32.0552 144.092 31.5681Z" fill="#008864"/>
<path d="M55.3138 165.82C55.3138 165.82 42.7555 156.31 40.3831 144.214C39.421 139.134 36.8404 134.503 33.0284 131.016C31.2049 129.375 29.2353 127.905 27.1443 126.624" stroke="#535461" stroke-width="2" stroke-miterlimit="10"/>
<path d="M25.6075 119.004C26.7081 120.495 27.2058 126.814 27.2058 126.814C27.2058 126.814 21.3217 124.493 20.2188 123.004C19.6893 122.288 19.4652 121.391 19.5961 120.51C19.7269 119.629 20.2018 118.836 20.9164 118.305C21.631 117.775 22.5267 117.551 23.4064 117.682C24.2862 117.813 25.0779 118.288 25.6075 119.004Z" fill="#008864"/>
<path d="M36.1613 123.962C36.2755 125.813 33.2683 131.388 33.2683 131.388C33.2683 131.388 29.5853 126.233 29.4688 124.383C29.4245 123.501 29.729 122.637 30.3163 121.978C30.9036 121.32 31.7264 120.919 32.6065 120.864C33.4865 120.808 34.3528 121.103 35.0178 121.683C35.6828 122.263 36.0928 123.082 36.159 123.962H36.1613Z" fill="#008864"/>
<path d="M46.3906 138.215C45.5595 139.871 40.1502 143.164 40.1502 143.164C40.1502 143.164 39.5726 136.852 40.4037 135.196C40.8128 134.418 41.5108 133.831 42.3475 133.563C43.1841 133.294 44.0925 133.365 44.8772 133.761C45.6619 134.157 46.2601 134.845 46.5431 135.678C46.8262 136.511 46.7714 137.422 46.3906 138.215Z" fill="#008864"/>
<path d="M51.7085 150.739C51.1674 152.511 46.3929 156.672 46.3929 156.672C46.3929 156.672 44.7558 150.549 45.2969 148.774C45.557 147.923 46.1442 147.21 46.9294 146.792C47.7145 146.374 48.6332 146.285 49.4834 146.546C50.3337 146.806 51.0458 147.394 51.463 148.181C51.8803 148.967 51.9686 149.887 51.7085 150.739Z" fill="#008864"/>
<path d="M27.8247 135.871C29.6513 136.118 35.4259 133.506 35.4259 133.506C35.4259 133.506 30.5533 129.463 28.7175 129.216C27.8363 129.097 26.9443 129.334 26.2375 129.874C25.5308 130.414 25.0672 131.214 24.9488 132.096C24.8304 132.979 25.0669 133.872 25.6062 134.58C26.1456 135.288 26.9436 135.752 27.8247 135.871Z" fill="#008864"/>
<path d="M34.2295 150.442C36.0562 150.128 40.7759 145.909 40.7759 145.909C40.7759 145.909 34.9168 143.512 33.0924 143.825C32.6556 143.897 32.2373 144.055 31.8617 144.289C31.4861 144.524 31.1605 144.83 30.9038 145.192C30.6472 145.553 30.4645 145.961 30.3663 146.394C30.268 146.826 30.2563 147.273 30.3317 147.71C30.4071 148.147 30.5681 148.565 30.8055 148.939C31.0428 149.313 31.3518 149.637 31.7146 149.89C32.0775 150.144 32.4869 150.324 32.9193 150.418C33.3518 150.513 33.7986 150.521 34.2341 150.442H34.2295Z" fill="#008864"/>
<path d="M42.3923 163.75C44.2441 163.75 49.6099 160.39 49.6099 160.39C49.6099 160.39 44.2418 157.035 42.39 157.035C41.501 157.035 40.6485 157.389 40.0198 158.019C39.3912 158.648 39.0381 159.502 39.0381 160.393C39.0381 161.283 39.3912 162.137 40.0198 162.767C40.6485 163.396 41.501 163.75 42.39 163.75H42.3923Z" fill="#008864"/>
<path d="M177.312 83.5708C177.312 83.5708 185.053 69.8371 196.721 65.8806C201.62 64.2508 205.86 61.0738 208.804 56.8262C210.185 54.7954 211.377 52.6419 212.364 50.3927" stroke="#535461" stroke-width="2" stroke-miterlimit="10"/>
<path d="M219.689 47.877C218.36 49.1669 212.174 50.5025 212.174 50.5025C212.174 50.5025 213.693 44.3503 215.022 43.0582C215.663 42.4566 216.515 42.1315 217.393 42.1526C218.272 42.1738 219.107 42.5396 219.718 43.1713C220.33 43.803 220.67 44.6501 220.664 45.5302C220.659 46.4103 220.309 47.253 219.689 47.877Z" fill="#008864"/>
<path d="M216.191 58.9989C214.364 59.3602 208.457 57.1143 208.457 57.1143C208.457 57.1143 213.07 52.769 214.885 52.4145C215.321 52.3176 215.772 52.3089 216.211 52.3889C216.65 52.4689 217.069 52.636 217.443 52.8804C217.817 53.1247 218.138 53.4415 218.388 53.812C218.638 54.1824 218.812 54.5992 218.899 55.0378C218.986 55.4765 218.984 55.9281 218.895 56.3661C218.805 56.8042 218.629 57.22 218.377 57.5889C218.125 57.9579 217.801 58.2727 217.426 58.5148C217.051 58.7569 216.631 58.9215 216.191 58.9989Z" fill="#008864"/>
<path d="M203.459 71.047C201.71 70.4409 197.735 65.5101 197.735 65.5101C197.735 65.5101 203.9 64.0967 205.653 64.7028C206.075 64.8427 206.464 65.0652 206.799 65.3571C207.134 65.649 207.407 66.0047 207.604 66.4034C207.8 66.8021 207.916 67.2359 207.943 67.6797C207.971 68.1234 207.91 68.5683 207.765 68.9884C207.62 69.4085 207.393 69.7956 207.097 70.127C206.801 70.4585 206.442 70.7278 206.042 70.9193C205.641 71.1108 205.206 71.2208 204.763 71.2427C204.32 71.2646 203.876 71.1981 203.459 71.047Z" fill="#008864"/>
<path d="M191.759 77.9905C189.933 77.6886 185.192 73.4919 185.192 73.4919C185.192 73.4919 191.035 71.0539 192.86 71.3558C193.738 71.5004 194.523 71.9885 195.041 72.7128C195.56 73.437 195.771 74.3379 195.626 75.2174C195.482 76.0969 194.994 76.883 194.271 77.4026C193.548 77.9222 192.649 78.1328 191.771 77.9882L191.759 77.9905Z" fill="#008864"/>
<path d="M203.299 52.3047C203.297 54.1595 206.656 59.5409 206.656 59.5409C206.656 59.5409 210.01 54.1663 210.01 52.3138C210.021 51.8657 209.943 51.4198 209.78 51.0024C209.617 50.5849 209.372 50.2045 209.06 49.8834C208.748 49.5623 208.374 49.3071 207.962 49.1328C207.55 48.9586 207.107 48.8688 206.659 48.8688C206.211 48.8688 205.768 48.9586 205.356 49.1328C204.944 49.3071 204.57 49.5623 204.258 49.8834C203.946 50.2045 203.701 50.5849 203.538 51.0024C203.375 51.4198 203.297 51.8657 203.308 52.3138L203.299 52.3047Z" fill="#008864"/>
<path d="M189.729 60.5975C190.282 62.3677 195.086 66.4958 195.086 66.4958C195.086 66.4958 196.684 60.3619 196.127 58.5918C195.838 57.7716 195.243 57.0958 194.466 56.7065C193.69 56.3173 192.793 56.2451 191.964 56.505C191.136 56.765 190.44 57.3368 190.024 58.1002C189.608 58.8635 189.504 59.7588 189.734 60.5975H189.729Z" fill="#008864"/>
<path d="M177.657 70.4707C177.904 72.3003 181.941 77.1877 181.941 77.1877C181.941 77.1877 184.546 71.4129 184.299 69.5764C184.251 69.1315 184.113 68.7008 183.896 68.3097C183.678 67.9187 183.385 67.5752 183.033 67.2994C182.681 67.0236 182.277 66.8211 181.846 66.7038C181.414 66.5865 180.964 66.5568 180.521 66.6165C180.078 66.6761 179.652 66.8239 179.267 67.0511C178.881 67.2782 178.546 67.5803 178.279 67.9394C178.012 68.2985 177.819 68.7074 177.713 69.1421C177.606 69.5768 177.587 70.0285 177.657 70.4707Z" fill="#008864"/>
<path opacity="0.25" d="M219.689 47.877C218.36 49.1669 212.174 50.5025 212.174 50.5025C212.174 50.5025 213.693 44.3503 215.022 43.0582C215.663 42.4566 216.515 42.1315 217.393 42.1526C218.272 42.1738 219.107 42.5396 219.718 43.1713C220.33 43.803 220.67 44.6501 220.664 45.5302C220.659 46.4103 220.309 47.253 219.689 47.877Z" fill="black"/>
<path opacity="0.25" d="M216.191 58.9989C214.364 59.3602 208.457 57.1143 208.457 57.1143C208.457 57.1143 213.07 52.769 214.885 52.4145C215.321 52.3176 215.772 52.3089 216.211 52.3889C216.65 52.4689 217.069 52.636 217.443 52.8804C217.817 53.1247 218.138 53.4415 218.388 53.812C218.638 54.1824 218.812 54.5992 218.899 55.0378C218.986 55.4765 218.984 55.9281 218.895 56.3661C218.805 56.8042 218.629 57.22 218.377 57.5889C218.125 57.9579 217.801 58.2727 217.426 58.5148C217.051 58.7569 216.631 58.9215 216.191 58.9989Z" fill="black"/>
<path opacity="0.25" d="M203.459 71.047C201.71 70.4409 197.735 65.5101 197.735 65.5101C197.735 65.5101 203.9 64.0967 205.653 64.7028C206.075 64.8427 206.464 65.0652 206.799 65.3571C207.134 65.649 207.407 66.0047 207.604 66.4034C207.8 66.8021 207.916 67.2359 207.943 67.6797C207.971 68.1234 207.91 68.5683 207.765 68.9884C207.62 69.4085 207.393 69.7956 207.097 70.127C206.801 70.4585 206.442 70.7278 206.042 70.9193C205.641 71.1108 205.206 71.2208 204.763 71.2427C204.32 71.2646 203.876 71.1981 203.459 71.047Z" fill="black"/>
<path opacity="0.25" d="M191.759 77.9905C189.933 77.6886 185.192 73.4919 185.192 73.4919C185.192 73.4919 191.035 71.0539 192.86 71.3558C193.738 71.5004 194.523 71.9885 195.041 72.7128C195.56 73.437 195.771 74.3379 195.626 75.2174C195.482 76.0969 194.994 76.883 194.271 77.4026C193.548 77.9222 192.649 78.1328 191.771 77.9882L191.759 77.9905Z" fill="black"/>
<path opacity="0.25" d="M203.299 52.3047C203.297 54.1595 206.656 59.5409 206.656 59.5409C206.656 59.5409 210.01 54.1663 210.01 52.3138C210.021 51.8657 209.943 51.4198 209.78 51.0024C209.617 50.5849 209.372 50.2045 209.06 49.8834C208.748 49.5623 208.374 49.3071 207.962 49.1328C207.55 48.9586 207.107 48.8688 206.659 48.8688C206.211 48.8688 205.768 48.9586 205.356 49.1328C204.944 49.3071 204.57 49.5623 204.258 49.8834C203.946 50.2045 203.701 50.5849 203.538 51.0024C203.375 51.4198 203.297 51.8657 203.308 52.3138L203.299 52.3047Z" fill="black"/>
<path opacity="0.25" d="M189.729 60.5975C190.282 62.3677 195.086 66.4958 195.086 66.4958C195.086 66.4958 196.684 60.3619 196.127 58.5918C195.838 57.7716 195.243 57.0958 194.466 56.7065C193.69 56.3173 192.793 56.2451 191.964 56.505C191.136 56.765 190.44 57.3368 190.024 58.1002C189.608 58.8635 189.504 59.7588 189.734 60.5975H189.729Z" fill="black"/>
<path opacity="0.25" d="M177.657 70.4707C177.904 72.3003 181.941 77.1877 181.941 77.1877C181.941 77.1877 184.546 71.4129 184.299 69.5764C184.251 69.1315 184.113 68.7008 183.896 68.3097C183.678 67.9187 183.385 67.5752 183.033 67.2994C182.681 67.0236 182.277 66.8211 181.846 66.7038C181.414 66.5865 180.964 66.5568 180.521 66.6165C180.078 66.6761 179.652 66.8239 179.267 67.0511C178.881 67.2782 178.546 67.5803 178.279 67.9394C178.012 68.2985 177.819 68.7074 177.713 69.1421C177.606 69.5768 177.587 70.0285 177.657 70.4707Z" fill="black"/>
<path d="M177.758 83.2987C177.758 83.2987 179.279 67.6004 188.334 59.2527C192.154 55.7737 194.745 51.1484 195.719 46.0702C196.162 43.6561 196.383 41.2063 196.378 38.7517" stroke="#535461" stroke-width="2" stroke-miterlimit="10"/>
<path d="M202.055 33.4549C201.37 35.1747 196.246 38.9072 196.246 38.9072C196.246 38.9072 195.145 32.6658 195.837 30.946C196.17 30.1201 196.817 29.4607 197.636 29.1126C198.454 28.7645 199.377 28.7564 200.202 29.09C201.026 29.4236 201.685 30.0717 202.032 30.8915C202.38 31.7114 202.388 32.6359 202.055 33.4617V33.4549Z" fill="#008864"/>
<path d="M203.358 45.0548C201.845 46.1205 195.527 46.4704 195.527 46.4704C195.527 46.4704 197.988 40.6293 199.502 39.5636C199.861 39.2944 200.27 39.1002 200.706 38.9923C201.141 38.8845 201.593 38.8652 202.036 38.9357C202.479 39.0062 202.903 39.1649 203.284 39.4026C203.664 39.6402 203.993 39.9519 204.252 40.3193C204.51 40.6866 204.691 41.102 204.786 41.541C204.881 41.98 204.887 42.4336 204.804 42.875C204.721 43.3163 204.55 43.7364 204.302 44.1105C204.053 44.4845 203.733 44.8048 203.358 45.0525V45.0548Z" fill="#008864"/>
<path d="M196.586 61.2424C194.741 61.3979 189.11 58.498 189.11 58.498C189.11 58.498 194.179 54.7015 196.024 54.546C196.91 54.4714 197.79 54.7523 198.469 55.3271C199.148 55.9018 199.571 56.7232 199.646 57.6106C199.72 58.498 199.44 59.3787 198.866 60.0589C198.292 60.7392 197.472 61.1632 196.586 61.2379V61.2424Z" fill="#008864"/>
<path d="M188.706 72.3323C186.914 72.7897 180.877 70.8983 180.877 70.8983C180.877 70.8983 185.231 66.2991 187.023 65.8325C187.884 65.609 188.798 65.7371 189.564 66.1885C190.33 66.6399 190.886 67.3777 191.109 68.2397C191.333 69.1016 191.205 70.017 190.754 70.7845C190.303 71.552 189.567 72.1088 188.706 72.3323Z" fill="#008864"/>
<path d="M188.866 44.1674C189.615 45.8621 194.853 49.4276 194.853 49.4276C194.853 49.4276 195.744 43.1519 194.995 41.4572C194.621 40.6643 193.954 40.0491 193.133 39.743C192.313 39.4368 191.406 39.464 190.606 39.8188C189.806 40.1736 189.176 40.8278 188.851 41.6417C188.526 42.4555 188.531 43.3644 188.866 44.1742V44.1674Z" fill="#008864"/>
<path d="M179.815 57.2538C181.037 58.6466 187.097 60.4717 187.097 60.4717C187.097 60.4717 186.074 54.2166 184.852 52.8238C184.564 52.4855 184.211 52.2079 183.815 52.0072C183.418 51.8065 182.986 51.6867 182.543 51.6548C182.1 51.6228 181.655 51.6794 181.234 51.8212C180.813 51.963 180.425 52.1871 180.091 52.4806C179.757 52.7742 179.485 53.1312 179.29 53.531C179.095 53.9308 178.982 54.3653 178.956 54.8094C178.931 55.2535 178.993 55.6983 179.141 56.118C179.288 56.5376 179.517 56.9237 179.815 57.2538Z" fill="#008864"/>
<path d="M172.762 71.1865C173.73 72.7646 179.395 75.5891 179.395 75.5891C179.395 75.5891 179.443 69.2517 178.481 67.6713C178.003 66.9416 177.259 66.4273 176.409 66.2375C175.558 66.0477 174.667 66.1972 173.924 66.6545C173.182 67.1117 172.646 67.8407 172.431 68.6867C172.216 69.5328 172.339 70.4294 172.773 71.1865H172.762Z" fill="#008864"/>
<path d="M166.113 21.8207C166.492 20.4279 166.948 19.0282 167.268 17.6171C166.885 19.0282 166.426 20.4324 166.113 21.8207Z" fill="url(#paint0_linear_46_140)"/>
<path d="M164.414 35.2365C164.382 35.1816 164.359 35.1267 164.334 35.0764C164.334 35.0535 164.311 35.0352 164.302 35.0123C164.252 35.0359 164.201 35.0565 164.149 35.0741C164.049 35.113 163.946 35.1496 163.841 35.1793C163.736 35.209 163.692 35.225 163.612 35.2433C163.546 35.2662 163.478 35.2838 163.409 35.2959L163.427 35.3371C163.512 35.3188 163.594 35.3028 163.679 35.2799L163.701 35.5635C163.797 35.5635 163.886 35.5498 163.973 35.5498C164.014 35.5475 164.055 35.5475 164.096 35.5498C164.275 35.5498 164.43 35.5498 164.553 35.5498C164.505 35.4469 164.455 35.3394 164.414 35.2365ZM210.766 109.138C209.692 107.69 207.551 92.1518 207.551 92.1518C207.551 92.1518 203.338 81.1031 204.486 76.6937C205.635 72.2843 201.349 61.0023 201.349 61.0023C201.349 61.0023 198.518 59.7696 198.365 57.9399C198.365 57.9399 186.804 54.2807 186.263 51.5362C185.825 49.2858 178.655 47.6711 176.079 47.1611C175.294 43.9867 174.504 41.025 173.922 39.408C173.764 38.9049 173.616 38.4703 173.479 38.1273C172.495 35.6115 169.453 35.3828 167.247 35.5841C167.152 35.1553 166.974 34.7491 166.725 34.388C166.688 34.2638 166.616 34.1532 166.517 34.0701C166.469 34.0297 166.419 33.993 166.366 33.9603C166.326 33.8862 166.274 33.8196 166.211 33.7636C166.148 33.7071 166.079 33.658 166.005 33.6172C165.952 33.5885 165.897 33.5633 165.841 33.5418C165.709 33.4913 165.572 33.4538 165.432 33.4297C165.27 33.3962 165.105 33.3748 164.939 33.3657C165.342 33.1891 165.701 32.926 165.992 32.5949C166.189 32.3625 166.336 32.0915 166.423 31.799C166.496 31.5559 166.528 31.3025 166.519 31.0489C166.46 31.1534 166.391 31.2522 166.314 31.3439C166.41 30.3308 165.875 29.3016 165.569 28.293C165.199 26.98 165.13 25.5998 165.368 24.2564C165.674 22.2301 166.432 20.1809 166.946 18.118C166.947 18.1066 166.947 18.095 166.946 18.0836C167.216 17.0592 167.382 16.0103 167.444 14.9527C167.533 12.8189 166.987 10.6896 166.11 8.74565C165.332 7.02351 164.183 5.32881 162.425 4.62897C161.119 4.10067 159.655 4.18529 158.249 4.09838C155.093 3.90169 152.084 2.79019 149.084 1.77932C146.083 0.768446 142.996 -0.150946 139.838 0.0251562C136.68 0.201258 133.431 1.72672 131.991 4.52606C131.534 5.39971 131.271 6.3717 130.726 7.19275C129.703 8.74108 127.871 9.51639 126.344 10.5844C124.816 11.6525 123.471 13.1688 122.919 14.9778C122.617 15.9525 122.575 16.9892 122.796 17.9853C122.845 18.2103 122.909 18.4318 122.987 18.6485C123.204 19.2528 123.542 19.8063 123.981 20.2746C124.311 20.6208 124.691 20.916 125.109 21.1506C125.632 21.4414 126.193 21.6599 126.775 21.8001C126.755 21.8687 126.734 21.9419 126.711 22.0128C126.675 22.1294 126.643 22.2415 126.609 22.3673C126.533 22.6486 126.463 22.9345 126.403 23.2226C126.401 23.2431 126.401 23.2639 126.403 23.2844C126.123 24.5852 125.982 25.9124 125.983 27.2433C125.983 27.8727 126.015 28.5017 126.079 29.1278C126.992 38.4086 134.641 45.7294 144.092 46.2051C144.416 46.2211 144.743 46.2303 145.074 46.2303C145.225 46.2303 145.373 46.2303 145.531 46.2303C145.679 46.427 145.825 46.6282 145.965 46.8249C146.104 47.0216 146.232 47.2229 146.353 47.4196L146.022 47.0765L145.691 46.7723C145.601 46.8957 145.501 47.0112 145.391 47.1177C145.176 47.0416 144.955 46.979 144.732 46.9301C143.784 46.7197 142.341 46.642 140.441 47.216C138.694 47.7397 136.559 48.8169 134.062 50.8638L121.889 58.1824L115.304 62.1939L112.932 68.0029C112.932 68.0029 111.148 74.9052 109.164 82.8138C109.086 82.8367 109.011 82.8596 108.936 82.887C108.775 82.8687 108.613 82.8595 108.452 82.8596C107.3 82.8569 106.193 83.3011 105.362 84.0991C104.531 84.897 104.041 85.9864 103.995 87.1386C100.049 91.9414 99.8252 96.7442 100.752 98.9489C100.836 99.1555 100.942 99.3525 101.067 99.5367C101.675 100.415 102.809 102.679 103.96 105.092C103.931 105.291 103.912 105.458 103.903 105.584C103.901 105.625 103.901 105.666 103.903 105.707C103.903 105.707 104.588 116.07 102.305 119.041C101.805 119.688 101.88 120.539 102.305 121.481C103.835 124.87 109.883 129.396 109.883 129.396C109.883 129.396 117.137 129.357 121.179 128.916C121.168 129.323 121.158 129.728 121.149 130.124C121.058 134.121 121.058 137.472 121.058 137.472L120.907 141.664C120.907 141.664 119.537 150.499 118.852 152.935C118.421 154.462 118.918 168.608 119.352 179.007H190.825C191.665 172.855 190.48 154.163 190.48 154.163C190.48 154.163 189.355 149.33 189.314 145.117C189.311 145.113 189.31 145.108 189.31 145.103C189.31 145.097 189.311 145.092 189.314 145.088C189.314 144.72 189.314 144.36 189.327 144.008L189.846 143.99L190.777 143.958H190.862C190.862 143.958 190.885 143.871 190.937 143.729C191.06 143.376 191.228 143.04 191.437 142.73C191.834 142.142 192.456 141.566 193.389 141.527C193.905 141.506 194.705 141.088 195.607 140.47C195.613 140.472 195.619 140.472 195.625 140.47C198.052 138.826 201.26 135.791 202.039 135.292C203.11 134.606 208.238 130.032 208.238 130.032C208.238 130.032 209.003 129.062 209.818 127.894L209.848 127.853C210.861 126.389 211.939 124.639 211.674 124.088C211.218 123.1 211.98 120.738 211.98 120.738C214.362 116.372 211.839 110.585 210.766 109.138ZM166.613 38.7928C166.635 38.8611 166.648 38.9317 166.654 39.0032C166.597 38.9278 166.54 38.8477 166.483 38.7745L166.428 38.7013L166.389 38.6465L166.476 38.5275C166.476 38.5275 166.476 38.5275 166.476 38.5435C166.536 38.6177 166.582 38.7021 166.613 38.7928ZM165.846 36.7665C165.597 36.8168 165.4 36.8626 165.272 36.8969C165.11 36.6087 164.955 36.3205 164.816 36.0278C165.182 36.2405 165.527 36.4879 165.846 36.7665ZM165.416 37.1279C165.416 37.1233 165.416 37.1187 165.416 37.1141L165.435 37.1279C165.528 37.1896 165.619 37.2491 165.704 37.3108C165.779 37.3657 165.848 37.4183 165.916 37.4732C165.871 37.5532 165.82 37.6356 165.77 37.7019C165.69 37.5761 165.615 37.4549 165.542 37.3291C165.496 37.2788 165.455 37.2102 165.416 37.1279ZM164.046 34.3056C164.487 34.2621 164.932 34.2621 165.373 34.3056C165.435 34.3056 165.489 34.3171 165.544 34.3262C165.668 34.3454 165.79 34.3768 165.907 34.42C166.177 34.7981 166.343 35.2405 166.389 35.703L166.266 35.7213L166.145 35.7442C165.916 35.7831 165.688 35.822 165.51 35.8585L165.282 35.9066C164.978 35.9729 164.802 36.0232 164.795 36.0255C164.766 35.9637 164.736 35.9066 164.704 35.8471C164.654 35.7488 164.601 35.6481 164.555 35.5498C164.51 35.4515 164.45 35.3394 164.402 35.2365C164.371 35.1816 164.348 35.1267 164.323 35.0764C164.323 35.0535 164.3 35.0352 164.291 35.0123C164.277 34.9881 164.266 34.9629 164.256 34.9369C164.117 34.6533 163.989 34.3697 163.866 34.0907C163.852 34.0632 163.841 34.0335 163.829 34.006L164.003 33.9946V34.0541L164.046 34.3056ZM109.568 176.18C109.55 172.775 109.303 169.09 108.618 165.632C108.326 164.162 108.025 162.691 107.719 161.246C107.641 160.884 107.566 160.528 107.49 160.171L106.787 160.265H106.723C104.805 151.206 102.8 143.224 102.8 143.224C102.8 143.224 98.8182 127.994 99.2794 126.78C99.3388 126.622 99.2635 126.197 99.0945 125.572C98.1309 122.11 94.1077 112.568 92.7011 109.307C92.7011 109.293 92.6897 109.277 92.6852 109.266C92.4568 108.719 92.2924 108.351 92.2422 108.243L92.5733 103.377L92.5915 103.084L92.6349 102.462L92.6167 102.446L92.6349 102.158C92.6349 102.158 89.1597 99.3034 83.2733 97.2428C83.0449 97.1605 82.8029 97.0804 82.5631 97.0026C82.8577 95.0335 83.2481 92.8105 83.7573 90.6447C83.8053 90.4274 83.8578 90.217 83.9126 90.0043C83.9605 89.7916 84.0153 89.5858 84.0701 89.3776C84.1569 89.0392 84.2505 88.7052 84.3464 88.3759C84.6638 88.2753 84.9766 88.1632 85.2849 88.0443L85.4036 87.9986C89.201 86.5185 92.3343 83.7104 94.2235 80.0942C96.1126 76.478 96.6296 72.2986 95.6786 68.33C95.1364 66.0792 94.1351 63.9651 92.7377 62.1207C92.6326 61.9789 92.5208 61.8371 92.4089 61.6976C92.297 61.558 92.1623 61.4025 92.0367 61.2607C92.6966 59.7581 93.4752 58.3287 93.5391 56.8673C93.5505 56.6823 93.5505 56.4967 93.5391 56.3116V56.2887C93.4546 55.3487 93.0391 54.3973 92.0709 53.3979C90.6576 51.9319 88.6459 51.1886 86.6343 50.8318C84.6227 50.475 82.5723 50.4659 80.5492 50.2257C77.195 49.8232 73.9276 48.7872 70.5733 48.4693C66.4418 48.0861 62.2823 48.7959 58.5105 50.5276C56.0148 51.6712 53.4871 53.67 53.3364 56.4122C53.2131 58.6787 54.7886 60.8514 54.3913 63.0904C53.9963 65.2905 51.7586 67.0218 51.955 69.2471C52.0304 70.1162 52.4756 70.8938 53.0328 71.5867C53.2246 71.8154 53.4278 72.0441 53.6378 72.2729C54.4507 73.1351 55.3458 73.963 55.8002 75.0493C55.8184 75.0951 55.8367 75.1408 55.8527 75.1865C56.2385 76.2592 56.065 77.6154 55.1106 78.2306C55.1159 78.2347 55.1198 78.2403 55.122 78.2466C55.1357 78.2649 55.1494 78.2786 55.1608 78.2969C55.1622 78.2932 55.1622 78.2892 55.1608 78.2855C55.4992 78.6873 55.9554 78.9722 56.4646 79.0997L56.6587 79.1591C56.5011 79.3307 56.3527 79.5091 56.202 79.6966L56.1038 79.827C55.8522 80.1658 55.6234 80.5211 55.4188 80.8904C55.3024 81.0963 55.1905 81.3021 55.0969 81.5079C54.7839 82.1353 54.5573 82.8024 54.4233 83.4908C54.179 85.0048 54.5238 86.5829 54.1539 88.0649C53.6972 89.8945 52.2518 91.2988 51.4367 92.998C49.8932 96.1999 50.7677 99.9575 51.0782 103.493C51.5006 108.296 50.8156 113.119 50.1329 117.89C49.7706 120.427 49.4083 122.967 49.046 125.508C48.1327 131.888 47.2194 138.267 46.306 144.646C45.9727 146.984 45.5777 149.449 44.0227 151.254H44.0387C44.0387 151.254 44.0387 151.267 44.0227 151.272C44.4895 151.476 44.9859 151.604 45.4932 151.652C47.5231 151.855 49.674 150.872 51.5006 149.797C52.9472 148.959 54.3172 147.996 55.5947 146.917C55.4074 147.603 55.2065 148.351 54.9918 149.156C54.9926 149.164 54.9926 149.172 54.9918 149.179C52.414 159.014 48.2674 177.042 48.2674 177.042C48.2674 177.042 47.8907 177.827 47.402 178.995H111.792C111.039 178.081 110.338 177.205 109.79 176.498L109.568 176.18ZM61.8921 85.2472C61.9081 85.2198 61.9195 85.1946 61.9355 85.1695C61.9355 85.2427 61.9355 85.3136 61.9355 85.3822C61.9355 85.4508 61.9355 85.5125 61.9355 85.5766C61.9355 85.6406 61.9355 85.6338 61.9355 85.6658C61.9355 85.6978 61.9355 85.6658 61.9355 85.6658C61.9355 85.7595 61.9149 85.8533 61.8989 85.9471C61.8989 85.9471 61.8989 85.9585 61.8989 85.9677L62.1273 86.0523L62.3921 86.1621C63.957 86.7811 65.5416 87.3414 67.1461 87.843C67.3105 87.8956 67.4771 87.946 67.6438 87.994L67.6781 88.2776C67.7192 88.568 67.758 88.8631 67.7945 89.1581C67.7945 89.1581 67.7945 89.1718 67.7945 89.181C67.8973 89.9974 67.9977 90.8116 68.0868 91.6075C68.0868 91.6075 63.8946 90.0066 63.9471 92.4377C63.9447 92.4811 63.9447 92.5247 63.9471 92.5681C63.9424 92.6259 63.9424 92.684 63.9471 92.7419C63.9859 94.6356 64.5773 95.7585 64.696 96.3348C64.6889 96.3587 64.6764 96.3806 64.6595 96.3989C64.5582 96.6197 64.5233 96.8652 64.559 97.1056C64.555 97.5147 64.5871 97.9234 64.6549 98.3268C64.5316 98.4023 64.4106 98.4778 64.2896 98.5555C64.1983 98.6127 64.1115 98.6768 64.0224 98.7408C63.4623 96.7946 62.7295 94.9026 61.8327 93.0872C61.2048 91.7928 60.4993 90.4434 60.5061 89.0231C60.5061 88.9317 60.5061 88.8379 60.5175 88.7441C60.543 88.3325 60.6213 87.9259 60.7504 87.5343C60.8029 87.3856 60.86 87.2393 60.924 87.0952C61.0732 86.7528 61.2401 86.4184 61.424 86.0935C61.5427 85.8785 61.6683 85.6658 61.7893 85.4508C61.8282 85.3868 61.8647 85.3204 61.9012 85.2564L61.8921 85.2472ZM164.414 35.2365C164.382 35.1816 164.359 35.1267 164.334 35.0764C164.334 35.0535 164.311 35.0352 164.302 35.0123C164.252 35.0359 164.201 35.0565 164.149 35.0741C164.049 35.113 163.946 35.1496 163.841 35.1793C163.736 35.209 163.692 35.225 163.612 35.2433L163.409 35.2959L163.427 35.3371C163.512 35.3188 163.594 35.3028 163.679 35.2799L163.701 35.5635C163.797 35.5635 163.886 35.5498 163.973 35.5498H164.096C164.275 35.5498 164.43 35.5498 164.553 35.5498C164.505 35.4469 164.455 35.3394 164.414 35.2365Z" fill="url(#paint1_linear_46_140)"/>
<path d="M114.523 68.8285L113.153 69.4346C113.153 69.4346 104.223 104.184 104.223 106.992C104.223 109.801 123.159 125.428 123.159 125.428L126.113 105.453C126.113 105.453 121.871 59.6461 114.523 68.8285Z" fill="#E8F5FF"/>
<path d="M156.059 57.7753L148.147 53.6403C147.704 51.7481 146.918 49.9535 145.828 48.3458C144.67 46.6717 143.131 45.0273 141.213 44.1697C136.365 41.9924 161.717 30.564 161.717 30.564C162.117 31.9369 162.587 33.2881 163.126 34.6121C164.432 37.8414 166.599 42.0176 169.392 43.2068C174.139 45.2308 156.059 57.7753 156.059 57.7753Z" fill="#FFC1C7"/>
<path opacity="0.1" d="M163.126 34.6121C162.043 38.428 159.79 41.8067 156.686 44.271C153.582 46.7353 149.784 48.1606 145.828 48.3458C144.67 46.6717 143.131 45.0273 141.213 44.1697C136.365 41.9924 161.717 30.564 161.717 30.564C162.117 31.9369 162.587 33.2881 163.126 34.6121Z" fill="black"/>
<path d="M163.838 28.8419C163.839 32.5844 162.732 36.243 160.657 39.3552C158.582 42.4673 155.632 44.8931 152.18 46.3258C148.728 47.7585 144.93 48.1338 141.265 47.404C137.6 46.6743 134.234 44.8724 131.592 42.2262C128.95 39.5801 127.15 36.2085 126.421 32.538C125.692 28.8675 126.067 25.0628 127.497 21.6053C128.926 18.1478 131.348 15.1927 134.455 13.1137C137.562 11.0347 141.214 9.92532 144.951 9.92577C147.434 9.91426 149.895 10.3957 152.192 11.3422C154.488 12.2887 156.575 13.6816 158.331 15.4404C160.087 17.1992 161.478 19.289 162.423 21.5893C163.369 23.8895 163.85 26.3545 163.838 28.8419Z" fill="#FFC1C7"/>
<path d="M166.565 55.3464L161.414 67.3854L156.87 75.3764H142.325L138.083 64.4512L139.802 53.1212H150.91L158.082 52.7164L160.505 51.9067L162.067 52.7941L166.565 55.3464Z" fill="#575A89"/>
<path opacity="0.1" d="M164.791 39.2983C164.791 39.2983 168.003 39.9844 165.126 42.3469C162.249 44.7094 152.324 52.2223 152.324 52.2223C152.324 52.2223 155.81 55.3327 155.089 58.976L166.64 52.5265L168.695 42.2074C168.695 42.2074 168.926 39.1061 164.791 39.2983Z" fill="black"/>
<path opacity="0.1" d="M154.595 52.2224L147.248 53.4368C147.248 53.4368 148.764 59.0515 148.006 60.6455C147.983 60.6951 147.964 60.7463 147.949 60.7988L144.951 68.9155L147.197 75.2895L154.975 64.6662L152.324 60.6455C152.324 60.6455 155.125 56.9268 156.792 55.6369C158.459 54.347 154.595 52.2224 154.595 52.2224Z" fill="black"/>
<path d="M154.595 51.909L147.248 53.1212C147.248 53.1212 148.764 58.7359 148.006 60.3299C147.983 60.3795 147.964 60.4307 147.949 60.4832L144.951 68.5999L147.197 74.9739L154.975 64.3437L152.324 60.3231C152.324 60.3231 155.125 56.6043 156.792 55.3144C158.459 54.0245 154.595 51.909 154.595 51.909Z" fill="#DCE6F2"/>
<path d="M165.099 38.6922C165.099 38.6922 168.312 39.3783 165.432 41.7408C162.553 44.1033 152.324 52.2223 152.324 52.2223C152.324 52.2223 156.112 54.7267 155.393 58.3676L166.944 51.9205L168.999 41.6013C168.999 41.6013 169.227 38.5001 165.099 38.6922Z" fill="#575A89"/>
<path opacity="0.1" d="M146.332 49.0616C146.332 49.0616 147.033 50.3744 150.127 52.7415C150.127 52.7415 144.976 55.486 146.946 59.3442L139.067 57.2859L137.854 53.4916L146.332 49.0616Z" fill="black"/>
<path d="M146.028 48.7598C146.028 48.7598 146.729 50.0725 149.823 52.4396C149.823 52.4396 144.672 55.1704 146.643 59.04L138.765 56.9817L137.553 53.1898L146.028 48.7598Z" fill="#575A89"/>
<path opacity="0.1" d="M166.565 55.3464L161.414 67.3854L156.879 75.3764H142.325L138.083 64.4512L139.8 53.1211H142.889C142.839 55.765 143.802 58.8708 143.741 60.0257C143.636 61.924 146.567 72.1654 146.567 72.1654C146.567 72.1654 152.703 62.2259 155.125 61.3408C156.648 60.785 159.875 56.1606 162.064 52.7941L166.565 55.3464Z" fill="black"/>
<path d="M186.857 118.7L186.334 119.358C186.334 119.358 190.122 138.403 189.074 142.727C188.896 143.507 188.794 144.302 188.77 145.101V145.136C188.585 149.536 189.912 155.247 189.912 155.247C189.912 155.247 190.971 172.079 190.369 179.002H119.444C119.028 168.765 118.58 155.503 118.987 154.032C119.672 151.606 121.042 142.803 121.042 142.803L121.193 138.631C121.193 138.631 121.193 134.599 121.316 130.108C121.368 128.088 121.446 125.968 121.558 124.088C121.702 121.723 121.903 119.731 122.179 118.752C122.349 118.01 122.447 117.254 122.471 116.493C122.471 116.422 122.471 116.349 122.485 116.276C122.485 116.047 122.508 115.8 122.517 115.546C122.517 115.475 122.517 115.404 122.517 115.317C122.56 113.844 122.544 112.097 122.496 110.286C122.496 110.187 122.496 110.087 122.496 109.986C122.458 108.628 122.4 107.242 122.337 105.924C122.138 101.808 121.88 98.3268 121.88 98.3268L113.169 69.4186L115.516 63.6278L122.031 59.6301L134.075 52.3458C139.95 47.5087 143.818 48.0896 145.293 48.6202C145.436 48.6692 145.577 48.7265 145.713 48.7918C145.759 48.8146 145.796 48.8329 145.83 48.8535C145.877 48.8758 145.922 48.9018 145.965 48.9313C145.561 49.1259 145.21 49.4154 144.942 49.7752C144.64 50.1846 144.424 50.6516 144.309 51.1474C144.232 51.4548 144.178 51.7674 144.147 52.0828C144.117 52.4144 144.106 52.7575 144.106 53.1028C144.122 53.8602 144.187 54.6157 144.3 55.3647C144.3 55.3785 144.3 55.3967 144.3 55.415C144.375 55.9502 144.469 56.4739 144.56 56.9657C144.559 56.974 144.559 56.9825 144.56 56.9908C144.665 57.5649 144.77 58.0955 144.841 58.5529C144.855 58.6352 144.866 58.7107 144.878 58.7816C144.928 59.0838 144.952 59.39 144.948 59.6964C144.974 60.4363 145.074 61.1718 145.245 61.892C145.305 62.1938 145.373 62.5163 145.448 62.8525C145.551 63.3099 145.663 63.8085 145.784 64.3162C145.85 64.5952 145.921 64.8834 145.994 65.1693C146.022 65.2836 146.051 65.398 146.079 65.5146L146.124 65.6953C146.611 67.6324 147.138 69.5604 147.462 70.7268C147.654 71.4129 147.775 71.836 147.775 71.836C147.775 71.836 151.214 66.2671 153.958 63.0972C154 63.0515 154.036 63.008 154.075 62.9669C154.347 62.6535 154.614 62.3677 154.87 62.1161C155.429 61.558 155.931 61.1601 156.335 61.0137C156.422 60.9821 156.505 60.9431 156.584 60.8971C157.708 60.259 159.521 57.9422 161.217 55.5157C161.384 55.287 161.546 55.0377 161.71 54.8021C162.087 54.2578 162.452 53.7112 162.797 53.1875C163.062 52.7872 163.316 52.3984 163.555 52.0279C164.697 50.2486 165.501 48.9221 165.501 48.9221L167.085 48.8512L167.362 48.8375H167.547L174.741 48.5036C174.741 48.5036 175.052 48.5562 175.563 48.6591C175.591 48.6591 175.618 48.6591 175.648 48.6774C178.201 49.1851 185.293 50.7929 185.727 53.0228C186.256 55.7535 197.696 59.3968 197.696 59.3968C197.846 61.2264 200.648 62.4317 200.648 62.4317C200.648 62.4317 204.891 73.6611 203.756 78.0614C202.635 82.4067 206.674 93.1558 206.781 93.4577L206.007 94.4366L186.857 118.7Z" fill="#E8F5FF"/>
<path opacity="0.1" d="M164.788 38.5001C164.788 38.5001 171.791 36.5103 173.383 40.6064C174.974 44.7025 178.534 61.2447 178.534 61.2447C178.534 61.2447 169.291 62.9897 166.869 61.2447C165.448 60.2091 163.689 59.7484 161.943 59.9548L156.717 63.5203L155.173 63.0629C155.173 63.0629 163.535 50.6123 165.352 46.3812C167.17 42.1502 167.784 40.2588 164.788 38.5001Z" fill="black"/>
<path d="M164.485 37.5853C164.485 37.5853 171.492 35.5955 173.091 39.6916C174.689 43.7877 178.242 60.3299 178.242 60.3299C178.242 60.3299 169.001 62.0749 166.576 60.3299C165.156 59.2942 163.398 58.8335 161.653 59.04L156.422 62.6055L154.879 62.1481C154.879 62.1481 163.24 49.6974 165.058 45.4664C166.875 41.2354 167.48 39.3486 164.485 37.5853Z" fill="#E8F5FF"/>
<path opacity="0.1" d="M117.478 103.578C117.478 103.578 122.704 104.868 123.691 107.827C124.677 110.787 119.827 110.862 119.827 110.862C119.827 110.862 116.873 105.627 117.478 103.578Z" fill="black"/>
<path opacity="0.1" d="M136.945 125.428C136.945 125.428 124.145 151.681 127.1 154.186C130.054 156.69 136.945 125.428 136.945 125.428Z" fill="black"/>
<path opacity="0.1" d="M154.595 106.082C154.595 106.082 164.823 131.583 162.777 135.521C160.731 139.459 167.17 135.521 167.17 135.521L154.595 106.082Z" fill="black"/>
<path d="M168.837 131.272C168.837 131.272 134.294 132.941 144.371 143.716C154.447 154.49 175.125 144.173 175.125 144.173L168.837 131.272Z" fill="#FFC1C7"/>
<path opacity="0.1" d="M163.839 28.8419C163.842 31.3234 163.355 33.781 162.407 36.0735C162.089 36.1101 161.772 36.133 161.466 36.1467C161.009 35.1427 161.254 33.9832 161.263 32.8785C161.272 31.7739 160.866 30.4748 159.804 30.1775C157.687 29.5806 156.226 33.5441 154.139 32.8282C152.541 32.2839 152.958 29.8551 152.038 28.4531C151.31 27.3439 149.851 27.0306 148.716 26.3353C146.302 24.851 146.376 22.4771 145.254 20.2312C144.081 17.8778 141.601 18.5731 139.448 19.9613C137.813 21.0179 136.402 22.4336 134.653 23.2752C133.139 24.0071 131.438 24.2724 129.76 24.3113C128.727 24.3514 127.693 24.242 126.691 23.9865C127.87 19.5482 130.62 15.6909 134.428 13.1337C138.237 10.5766 142.844 9.49425 147.391 10.0885C151.937 10.6828 156.113 12.9132 159.139 16.3637C162.165 19.8142 163.834 24.2493 163.836 28.8419H163.839Z" fill="black"/>
<path d="M139.455 19.3552C137.818 20.4119 136.409 21.8252 134.66 22.6715C133.146 23.401 131.445 23.6663 129.767 23.7052C127.712 23.7509 125.499 23.3896 124.095 21.903C122.805 20.5308 122.496 18.4198 123.042 16.6199C123.588 14.82 124.896 13.3266 126.433 12.2448C127.97 11.1631 129.753 10.4152 130.771 8.86686C131.31 8.0481 131.57 7.08297 132.018 6.2116C133.45 3.4237 136.669 1.91425 139.781 1.72671C142.894 1.53917 145.978 2.46771 148.942 3.47401C151.906 4.48031 154.892 5.58724 158.021 5.79536C159.413 5.88227 160.861 5.79536 162.153 6.32367C163.891 7.03037 165.03 8.72049 165.807 10.4403C166.677 12.3798 167.218 14.4976 167.127 16.6154C166.935 21.1368 163.953 25.5737 165.263 29.9054C165.61 31.0603 166.261 32.245 165.914 33.4C165.407 35.0855 163.236 35.4697 161.48 35.5498C161.023 34.5458 161.268 33.384 161.277 32.2816C161.286 31.1793 160.879 29.8779 159.82 29.5806C157.701 28.9883 156.24 32.9449 154.157 32.2313C152.57 31.6847 152.981 29.2581 152.059 27.8562C151.33 26.7447 149.869 26.4336 148.737 25.7384C146.323 24.2541 146.396 21.8801 145.275 19.6343C144.092 17.2695 141.61 17.9647 139.455 19.3552Z" fill="#99607E"/>
<path d="M105.96 106.384L104.218 106.992C104.218 106.992 104.903 117.312 102.62 120.271C100.337 123.23 110.118 130.588 110.118 130.588C110.118 130.588 123.526 130.512 123.905 129.444C124.284 128.376 123.22 110.325 123.22 110.325C123.22 110.325 116.023 107.516 116.628 103.04C116.628 103.04 114.432 113.586 111.176 113.131C107.92 112.676 104.223 109.952 105.96 106.384Z" fill="#E8F5FF"/>
<path opacity="0.1" d="M111.772 116.324C114.31 116.324 116.368 114.439 116.368 112.113C116.368 109.788 114.31 107.903 111.772 107.903C109.233 107.903 107.175 109.788 107.175 112.113C107.175 114.439 109.233 116.324 111.772 116.324Z" fill="black"/>
<path d="M116.797 106.688C116.797 106.688 115.884 78.7681 107.933 84.9888C99.9827 91.2096 99.9051 98.6493 101.419 100.847C102.933 103.045 107.787 114.048 107.787 114.048C108.546 114.489 109.399 114.743 110.276 114.79C111.152 114.837 112.027 114.676 112.829 114.318C113.631 113.961 114.337 113.419 114.89 112.736C115.442 112.053 115.825 111.249 116.007 110.389L116.797 106.688Z" fill="#FFC1C7"/>
<path opacity="0.1" d="M166.394 35.966C166.357 35.8434 166.285 35.7339 166.188 35.6504C165.795 35.2914 164.951 35.1656 163.676 35.2754L163.729 35.8791C165.428 35.7328 165.763 36.0712 165.807 36.1284V36.1856L165.859 36.2611C166.071 36.5462 166.221 36.8725 166.3 37.2191C166.378 37.5656 166.384 37.9248 166.316 38.2737C165.944 40.1376 163.658 41.6219 163.635 41.6379L163.581 41.6699L163.546 41.7225C162.56 43.1885 156.982 47.3258 155.523 48.3961L155.395 48.2498C154.742 48.8169 149.001 53.8507 148.691 55.7787C148.49 56.9885 147.129 57.4574 146.636 57.5877C146.115 57.1921 144.426 55.845 143.547 54.3356C142.722 52.9153 146.04 50.1434 146.332 49.0616L145.876 48.5928C145.828 48.7666 141.567 52.7552 142.752 54.793C143.702 56.4282 145.437 57.8279 146.044 58.2899C145.85 60.0555 144.643 70.4226 142.786 72.8789C140.48 75.9321 138.541 91.3194 138.756 96.6916C138.946 101.465 137.701 110.48 133.546 114.352C132.826 115.052 131.958 115.58 131.006 115.897C130.055 116.213 129.044 116.311 128.05 116.182H127.999H127.949C127.89 116.182 121.862 116.799 116.797 112.523C112.653 109.03 110.306 103.331 109.817 95.5778H109.717L109.676 93.3205C110.799 93.1449 111.811 92.5398 112.499 91.6325C113.186 90.7252 113.496 89.5862 113.363 88.455C113.23 87.3237 112.664 86.2882 111.784 85.566C110.905 84.8438 109.78 84.4911 108.647 84.5821C107.513 84.6731 106.459 85.2007 105.705 86.0539C104.952 86.9072 104.558 88.0198 104.606 89.1578C104.655 90.2959 105.142 91.3709 105.965 92.157C106.788 92.943 107.883 93.3789 109.02 93.3731H109.07L109.112 95.6167L108.911 95.6304C109.413 103.635 111.879 109.556 116.217 113.213C119.515 115.95 123.727 117.331 128.002 117.076C128.305 117.109 128.61 117.126 128.915 117.126C130.874 117.136 132.76 116.377 134.167 115.011C138.544 110.928 139.875 101.581 139.667 96.6459C139.439 90.9534 141.473 76.1197 143.515 73.4187C145.515 70.768 146.727 60.4397 146.94 58.4385C147.663 58.235 149.301 57.5923 149.579 55.9228C149.78 54.7152 153.614 50.9942 155.972 48.9336L155.902 48.8512C157.171 47.9227 161.119 44.9953 163.076 43.1153C163.683 42.5321 164.286 41.9489 164.916 41.3932C165.674 40.7208 166.638 39.6528 166.891 38.3903C166.978 37.9736 166.978 37.5436 166.893 37.1267C166.807 36.7098 166.637 36.3148 166.394 35.966Z" fill="black"/>
<path d="M145.967 58.1458C145.871 58.0795 143.597 56.4488 142.457 54.4865C141.275 52.4488 145.535 48.4625 145.581 48.2886L146.038 48.7575C145.748 49.837 142.43 52.6111 143.254 54.0291C144.293 55.8199 146.481 57.3865 146.503 57.4025L145.967 58.1458Z" fill="#353146"/>
<path d="M155.226 48.8398L154.87 48.3481C154.943 48.2955 162.115 43.0993 163.245 41.4184L163.281 41.368L163.334 41.3337C163.357 41.3177 165.642 39.8357 166.015 37.9695C166.083 37.6211 166.078 37.2621 165.999 36.9158C165.921 36.5695 165.77 36.2436 165.558 35.9592L165.505 35.8814V35.8265C165.46 35.7671 165.124 35.4309 163.425 35.5772L163.373 34.9712C164.649 34.8614 165.492 34.9872 165.884 35.3463C165.982 35.4305 166.054 35.5407 166.092 35.6642C166.339 36.0119 166.512 36.4066 166.601 36.8239C166.69 37.2413 166.692 37.6724 166.608 38.0907C166.355 39.3554 165.394 40.4235 164.633 41.0936C164.005 41.6493 163.4 42.2371 162.795 42.8157C160.5 45.0182 155.477 48.6591 155.226 48.8398Z" fill="#E8F5FF"/>
<path d="M109.381 92.5242L108.776 92.5353L108.843 96.2192L109.448 96.208L109.381 92.5242Z" fill="#E8F5FF"/>
<path d="M108.726 93.0827C111.166 93.0827 113.144 91.1013 113.144 88.6572C113.144 86.2131 111.166 84.2318 108.726 84.2318C106.285 84.2318 104.307 86.2131 104.307 88.6572C104.307 91.1013 106.285 93.0827 108.726 93.0827Z" fill="#008864"/>
<path d="M108.726 92.3325C110.752 92.3325 112.395 90.687 112.395 88.6572C112.395 86.6274 110.752 84.9819 108.726 84.9819C106.699 84.9819 105.056 86.6274 105.056 88.6572C105.056 90.687 106.699 92.3325 108.726 92.3325Z" fill="#E8F5FF"/>
<path d="M128.627 116.831C128.322 116.832 128.017 116.816 127.714 116.783C123.439 117.035 119.228 115.655 115.929 112.92C111.591 109.261 109.13 103.347 108.623 95.3354L109.536 95.2782C110.025 103.031 112.372 108.733 116.519 112.223C121.583 116.488 127.609 115.882 127.668 115.882H127.718H127.769C128.763 116.011 129.774 115.913 130.726 115.596C131.678 115.279 132.547 114.752 133.267 114.053C137.42 110.181 138.665 101.165 138.475 96.392C138.247 91.0152 140.185 75.6279 142.494 72.577C144.515 69.9035 145.768 57.853 145.782 57.7318L145.816 57.3888L146.154 57.3293C146.175 57.3293 148.147 56.9542 148.394 55.4768C148.714 53.5511 154.445 48.5173 155.096 47.9478L155.692 48.634C153.324 50.6923 149.49 54.4156 149.298 55.6255C149.02 57.2996 147.382 57.9399 146.661 58.1412C146.433 60.1446 145.229 70.4706 143.236 73.1213C141.195 75.8223 139.16 90.6561 139.388 96.3485C139.585 101.284 138.267 110.633 133.89 114.713C132.481 116.083 130.591 116.844 128.627 116.831Z" fill="#353146"/>
<g opacity="0.1">
<path d="M165.784 23.4353C166.158 22.0494 166.611 20.6543 166.926 19.25C166.549 20.6612 166.094 22.0494 165.784 23.4353Z" fill="black"/>
<path d="M161.964 34.3262C161.507 33.3222 161.752 32.1604 161.761 31.058C161.77 29.9557 161.363 28.6658 160.304 28.357C158.185 27.7647 156.724 31.7236 154.641 31.0077C153.043 30.4611 153.465 28.0346 152.543 26.6326C151.814 25.5211 150.355 25.2101 149.223 24.5148C146.807 23.0305 146.88 20.6566 145.761 18.4107C144.585 16.055 142.108 16.7503 139.953 18.1408C138.315 19.1974 136.907 20.6131 135.157 21.457C133.644 22.1866 131.943 22.4519 130.264 22.4908C128.221 22.5388 125.997 22.1752 124.592 20.6886C123.51 19.5451 123.12 17.8687 123.344 16.2975C123.305 16.405 123.27 16.5125 123.236 16.6199C122.688 18.4198 123.008 20.5354 124.289 21.903C125.693 23.3896 127.917 23.7509 129.961 23.7052C131.641 23.6663 133.34 23.401 134.856 22.6715C136.61 21.8253 138.019 20.4119 139.651 19.3552C141.807 17.9647 144.286 17.2695 145.46 19.6251C146.579 21.871 146.508 24.2449 148.921 25.7292C150.063 26.4153 151.513 26.7355 152.244 27.847C153.157 29.2536 152.753 31.6755 154.342 32.2222C156.422 32.9357 157.884 28.9791 160.002 29.5715C161.062 29.8688 161.471 31.1724 161.459 32.2725C161.448 33.3725 161.21 34.5366 161.662 35.5407C163.418 35.4606 165.59 35.0832 166.099 33.3908C166.169 33.148 166.201 32.8957 166.195 32.643C165.453 33.926 163.544 34.2553 161.964 34.3262Z" fill="black"/>
</g>
<path opacity="0.1" d="M203.231 90.679L205.882 93.4875C205.882 93.4875 208.003 108.964 209.062 110.412C210.122 111.859 212.624 117.618 210.275 121.943C210.275 121.943 209.517 124.296 209.971 125.282C210.425 126.268 206.564 131.201 206.564 131.201C206.564 131.201 201.488 135.752 200.427 136.436C199.365 137.12 193.762 142.581 191.869 142.657C189.976 142.732 189.357 145.085 189.357 145.085L178.676 145.465C178.676 145.465 172.775 145.156 171.492 145.991C171.492 145.991 172.177 136.962 165.585 131.043L173.992 128.008C173.992 128.008 177.175 126.636 178.16 125.202C178.779 124.323 179.657 123.66 180.671 123.306C180.671 123.306 183.018 121.636 183.094 120.726C183.169 119.816 185.964 118.7 185.964 118.7L184.382 105.172L185.215 82.7132C185.215 82.7132 187.866 63.8954 193.472 64.9589C199.077 66.0224 203.231 90.679 203.231 90.679Z" fill="black"/>
<path d="M204.144 90.679L206.795 93.4875C206.795 93.4875 208.916 108.964 209.976 110.412C211.035 111.859 213.538 117.618 211.188 121.943C211.188 121.943 210.432 124.296 210.887 125.282C211.341 126.268 207.478 131.201 207.478 131.201C207.478 131.201 202.402 135.752 201.34 136.436C200.278 137.12 194.675 142.581 192.782 142.657C190.889 142.732 190.27 145.085 190.27 145.085L179.589 145.465C179.589 145.465 173.684 145.156 172.406 145.991C172.406 145.991 173.091 136.962 166.499 131.043L174.906 128.008C174.906 128.008 178.089 126.636 179.073 125.202C179.692 124.323 180.57 123.66 181.585 123.306C181.585 123.306 183.932 121.636 184.007 120.726C184.083 119.816 186.877 118.7 186.877 118.7L185.295 105.172L186.128 82.7132C186.128 82.7132 188.779 63.8954 194.385 64.9589C199.991 66.0224 204.144 90.679 204.144 90.679Z" fill="#E8F5FF"/>
<path opacity="0.1" d="M194.289 113.366C194.289 113.366 202.091 111.308 204.137 113.824C206.183 116.34 194.289 113.366 194.289 113.366Z" fill="black"/>
<path opacity="0.1" d="M192.471 116.818C195.122 118.677 203.304 118.752 203.304 118.752L192.471 116.818Z" fill="black"/>
<path opacity="0.1" d="M196.486 126.112C196.714 126.188 202.109 131.956 204.375 130.21C206.64 128.465 196.486 126.112 196.486 126.112Z" fill="black"/>
<path opacity="0.1" d="M123.821 77.7046C123.821 77.7046 125.405 88.6321 124.625 93.0827C123.844 97.5333 126.693 103.047 126.693 103.047L123.821 77.7046Z" fill="black"/>
<path d="M88.7395 82.1483C86.9128 83.5823 85.5794 86.9763 84.6135 90.7064C82.9284 97.2131 82.3781 104.758 82.3781 104.758C82.3781 104.758 67.8333 101.419 68.8927 99.9026C69.5595 98.9489 68.6644 91.763 67.9177 86.5532C67.4725 83.4748 67.0752 81.0848 67.0752 81.0848C67.0752 81.0848 93.74 78.2009 88.7395 82.1483Z" fill="#FFCCD0"/>
<path opacity="0.1" d="M88.7395 81.8441C86.9128 83.2804 85.5794 86.6721 84.6135 90.4023C81.7156 91.2836 78.6336 91.3631 75.6943 90.6323C72.7549 89.9015 70.0678 88.3877 67.9177 86.2513C67.4725 83.1706 67.0752 80.7807 67.0752 80.7807C67.0752 80.7807 93.74 77.899 88.7395 81.8441Z" fill="black"/>
<path d="M96.5576 73.6702C96.5592 77.6481 95.1556 81.4983 92.5955 84.5394C90.0353 87.5804 86.4837 89.6163 82.569 90.2866C78.6543 90.9569 74.6291 90.2185 71.2058 88.202C67.7824 86.1855 65.1816 83.021 63.8637 79.2685C62.5458 75.516 62.5958 71.4175 64.0047 67.6984C65.4137 63.9793 68.0908 60.8793 71.5623 58.9471C75.0337 57.0149 79.0757 56.3751 82.9729 57.1409C86.8701 57.9067 90.3711 60.0288 92.8564 63.1315C95.2513 66.1203 96.5569 69.8378 96.5576 73.6702Z" fill="#FFCCD0"/>
<path opacity="0.1" d="M109.819 179.002H105.024L104.62 170.52L104.198 161.74C104.198 161.74 105.287 161.577 107.022 161.335L107.723 161.241H107.78C108.159 163.023 108.534 164.852 108.895 166.68C109.495 169.924 109.808 173.215 109.828 176.514C109.828 176.743 109.828 176.971 109.828 177.186C109.842 177.797 109.828 178.408 109.819 179.002Z" fill="black"/>
<path d="M108.899 179.002H48.7651C49.0254 178.41 49.199 178.051 49.199 178.051C49.199 178.051 54.01 156.969 56.4554 148.049C56.4562 148.042 56.4562 148.034 56.4554 148.027C56.761 146.815 57.1298 145.62 57.5605 144.447C57.5884 144.368 57.6243 144.291 57.6679 144.219C58.878 142.247 60.3942 140.123 58.2729 137.088C56.1517 134.053 56.9029 120.699 56.9029 120.699C56.9029 120.699 59.4785 109.316 62.2049 103.246C62.6186 102.306 63.2058 101.453 63.9356 100.731C64.1729 100.498 64.4262 100.282 64.6937 100.086C64.897 99.9325 65.109 99.7912 65.3285 99.6625L65.3718 99.635C66.5171 98.9846 67.7889 98.5891 69.1005 98.4755C70.0322 98.3779 70.9727 98.4041 71.8976 98.5533C76.3182 99.2028 79.8573 100.289 82.6704 101.526C90.2945 104.882 92.6029 109.378 92.6486 109.472L92.6668 109.51C92.9728 110.226 97.4481 120.692 99.0602 125.575C99.478 126.846 99.7064 127.741 99.615 127.985C99.1584 129.197 103.099 144.372 103.099 144.372C103.099 144.372 104.926 151.69 106.753 160.269C106.833 160.626 106.908 160.983 106.981 161.344C107.308 162.902 107.632 164.489 107.945 166.074C108.551 169.34 108.863 172.654 108.879 175.977C108.912 177.012 108.919 178.02 108.899 179.002Z" fill="#FF748E"/>
<path opacity="0.1" d="M68.7421 93.2565C68.7421 93.2565 64.5933 91.6555 64.6435 94.0844C64.6938 96.5132 65.655 97.675 65.3514 98.0295C65.0477 98.384 65.5021 100.509 65.5021 100.509C65.5021 100.509 71.1077 100.509 73.6833 101.67C76.2589 102.832 85.753 105.161 86.9654 105.87C88.1779 106.578 92.6738 109.757 92.6738 109.757L93.0779 103.738C93.0779 103.738 88.4313 99.8935 80.8073 97.922C73.1832 95.9506 68.7421 93.2565 68.7421 93.2565Z" fill="black"/>
<path d="M68.7421 92.9523C68.7421 92.9523 64.5933 91.3514 64.6435 93.7802C64.6938 96.209 65.655 97.3709 65.3514 97.7254C65.0477 98.0799 65.5021 100.205 65.5021 100.205C65.5021 100.205 71.1077 100.205 73.6833 101.369C76.2589 102.533 85.753 104.859 86.9654 105.565C88.1779 106.272 92.6738 109.453 92.6738 109.453L93.0825 103.452C93.0825 103.452 88.4359 99.6076 80.8118 97.6362C73.1878 95.6647 68.7421 92.9523 68.7421 92.9523Z" fill="#FF748E"/>
<path opacity="0.1" d="M81.2661 107.438C81.2661 107.438 89.1939 116.035 88.7897 118.416C88.3856 120.797 81.2661 107.438 81.2661 107.438Z" fill="black"/>
<path opacity="0.1" d="M68.3883 138.494C68.3883 138.494 62.5772 143.857 60.8647 144.161C59.1522 144.466 62.1776 145.477 64.1459 144.669C66.1141 143.862 70.3109 141.737 70.3109 141.737L68.3883 138.494Z" fill="black"/>
<path d="M111.26 179.002H97.7086C95.8134 177.356 94.021 175.83 92.8794 174.913C91.0527 173.445 89.7352 171.283 88.8949 169.545C88.7054 169.15 88.541 168.779 88.4017 168.443C88.1523 167.864 87.9328 167.272 87.7441 166.671L97.7794 160.701C98.334 161.174 98.8551 161.684 99.3389 162.229L99.4599 162.369C100.017 163.027 100.508 163.775 100.551 164.388C100.602 165.102 102.584 167.862 104.609 170.513C106.664 173.209 108.769 175.787 108.908 175.961C108.908 175.961 109.255 176.434 109.822 177.161C110.221 177.687 110.715 178.318 111.26 179.002Z" fill="#FFCCD0"/>
<path opacity="0.1" d="M92.8563 63.1315C92.3745 64.2202 91.943 65.35 91.8791 66.5621C91.6987 70.0613 91.9909 77.8853 88.123 79.6417C86.2073 80.5062 84.1568 78.608 82.0562 78.5622C80.5446 78.5302 79.1586 79.4908 78.2361 80.6915C77.3137 81.8921 76.7405 83.317 76.0715 84.6755C75.4625 85.9085 74.761 87.0936 73.9731 88.2204C73.7376 88.5653 73.4782 88.8931 73.1968 89.2015C70.8383 88.2047 68.738 86.6818 67.0561 84.7488C65.3742 82.8158 64.155 80.5237 63.4914 78.0473C62.8278 75.5709 62.7374 72.9754 63.2269 70.4586C63.7165 67.9419 64.7732 65.5703 66.3164 63.5245C67.8597 61.4788 69.8488 59.8129 72.1322 58.6537C74.4156 57.4946 76.9331 56.8728 79.4927 56.8358C82.0524 56.7988 84.5867 57.3475 86.9026 58.4401C89.2184 59.5327 91.2547 61.1404 92.8563 63.1407V63.1315Z" fill="black"/>
<path d="M91.5756 65.9446C91.3929 69.4438 91.6875 77.2677 87.8172 79.0219C85.9015 79.8864 83.8511 77.9905 81.7504 77.9447C80.2388 77.9104 78.8551 78.8733 77.9304 80.0717C77.0056 81.2701 76.4371 82.6972 75.7658 84.058C75.1566 85.2909 74.4551 86.476 73.6674 87.6029C73.197 88.2707 72.6764 88.9408 71.9526 89.3159C70.6922 89.9746 69.1646 89.6041 67.8129 89.181C66.0593 88.6275 64.3316 88.0039 62.6297 87.3102C62.6688 87.0528 62.6886 86.7929 62.6891 86.5326C62.6389 86.6286 62.5841 86.7178 62.5293 86.8139L62.4219 87.0014C62.2279 87.3445 62.0383 87.6875 61.8648 88.0397C61.7986 88.1747 61.7347 88.3142 61.6776 88.4537C61.4479 88.9729 61.3037 89.5258 61.2506 90.0912C61.1341 91.6167 61.8854 93.0644 62.5521 94.4366C65.1163 99.7448 66.7009 105.952 64.7715 111.521C63.9358 113.943 62.4882 116.095 61.431 118.435C59.5829 122.578 59.0389 127.188 59.8715 131.649C60.3989 134.421 61.4561 137.165 61.1958 139.976C60.7391 144.813 56.5743 148.413 52.4027 150.888C50.149 152.219 47.3907 153.403 44.9978 152.351C46.5231 150.567 46.9158 148.1 47.2446 145.772C48.1442 139.421 49.0462 133.068 49.9504 126.711C50.3111 124.182 50.6711 121.652 51.0304 119.123C51.7017 114.37 52.3821 109.565 51.962 104.783C51.656 101.259 50.7929 97.5172 52.3182 94.3268C53.1242 92.6367 54.5604 91.237 55.008 89.4165C55.3756 87.9368 55.0331 86.3633 55.2751 84.8562C55.4076 84.1704 55.6318 83.5058 55.9418 82.8801C56.3366 82.0312 56.8518 81.2439 57.4717 80.5428C56.8597 80.3644 56.2889 80.1197 55.9418 79.6074C56.9237 78.967 57.0721 77.5239 56.6268 76.4398C56.1816 75.3558 55.2911 74.5302 54.4896 73.6748C53.6882 72.8194 52.9164 71.8223 52.8159 70.6559C52.6219 68.4352 54.8367 66.7153 55.2271 64.5243C55.6222 62.2945 54.0604 60.1264 54.1859 57.8691C54.3321 55.1406 56.8346 53.1577 59.3052 52.0074C63.0334 50.2787 67.1518 49.5686 71.2425 49.949C74.5716 50.2646 77.7934 51.2961 81.1133 51.6963C83.1158 51.925 85.1457 51.9479 87.1345 52.3001C89.1233 52.6523 91.1166 53.3956 92.5163 54.857C96.2062 58.7107 91.7856 61.8828 91.5756 65.9446Z" fill="#FFE0D0"/>
<path opacity="0.1" d="M88.4885 169.548C87.324 169.042 85.2051 169.344 81.5677 168.235C77.9304 167.126 77.2294 162.112 77.2294 162.112V162.096C77.186 161.982 76.8481 161.237 74.5602 158.625C72.0325 155.741 66.5685 141.175 66.5685 141.175C66.5685 141.175 61.7233 135.962 61.8763 134.041C62.0292 132.12 61.0154 127.009 61.1159 121.291C61.2164 115.573 72.0234 111.781 72.0234 111.781C92.8314 108.088 87.9314 132.116 87.3766 133.936C86.8217 135.757 89.701 140.674 89.701 140.674C89.2946 142.814 91.3678 146.128 91.3678 146.128C91.3678 146.128 91.8702 149.06 91.9729 150.174C91.9786 150.226 91.9901 150.276 92.0072 150.325C92.3405 151.375 95.0577 152.326 96.1628 152.905C97.3251 153.513 101.063 158.824 101.063 158.824C101.869 162.723 89.6485 170.06 88.4885 169.548Z" fill="black"/>
<path d="M89.0935 168.633C87.9312 168.125 85.81 168.429 82.1749 167.318C78.5399 166.206 77.8366 161.198 77.8366 161.198V161.182C77.7955 161.065 77.4553 160.322 75.1674 157.71C72.6397 154.826 67.1757 140.257 67.1757 140.257C67.1757 140.257 62.3305 135.048 62.4812 133.126C62.6319 131.205 61.6226 126.094 61.7231 120.381C61.8236 114.668 72.6238 110.878 72.6238 110.878C93.4318 107.185 88.5318 131.212 87.9769 133.033C87.4221 134.853 90.3013 139.77 90.3013 139.77C89.8949 141.911 91.9682 145.225 91.9682 145.225C91.9682 145.225 92.4705 148.157 92.5756 149.271C92.5794 149.322 92.5901 149.373 92.6075 149.422C92.9409 150.471 95.6581 151.423 96.7655 152.001C97.9254 152.608 101.666 157.92 101.666 157.92C102.476 161.813 90.2557 169.15 89.0935 168.633Z" fill="#FF748E"/>
<path opacity="0.1" d="M73.0347 123.423C73.0347 123.423 82.1246 133.028 84.497 133.028C86.8694 133.028 73.0347 123.423 73.0347 123.423Z" fill="black"/>
<path d="M89.0935 168.633C87.9313 168.125 85.8101 168.429 82.175 167.318C78.5399 166.206 77.8367 161.198 77.8367 161.198V161.182C80.2456 159.581 86.3467 155.059 88.751 153.406C90.443 152.246 91.8244 150.542 92.6327 149.413C92.9661 150.462 95.6832 151.414 96.7906 151.992C97.9506 152.598 101.691 157.911 101.691 157.911C102.476 161.813 90.2557 169.15 89.0935 168.633Z" fill="#FF748E"/>
<g opacity="0.1">
<path d="M55.9556 79.6325C55.967 79.6508 55.983 79.6668 55.9967 79.6851C56.0652 79.5982 56.1359 79.5113 56.209 79.429C56.1312 79.5048 56.0463 79.5729 55.9556 79.6325Z" fill="black"/>
<path d="M61.2529 90.1164C61.3488 88.847 62.0269 87.7287 62.6617 86.6126C62.2461 86.4525 61.8306 86.2901 61.4196 86.1209C61.4587 85.8643 61.4785 85.6051 61.4789 85.3456C60.8373 86.4891 60.1386 87.6143 60.0404 88.9019C59.924 90.4297 60.6752 91.8751 61.3419 93.2473C63.9084 98.5533 65.4907 104.76 63.5613 110.332C62.7233 112.751 61.278 114.906 60.2208 117.245C58.3734 121.389 57.8302 125.997 58.6636 130.458C59.1865 133.232 60.2459 135.974 59.9856 138.785C59.529 143.622 55.3664 147.222 51.1925 149.694C49.4868 150.705 47.4935 151.631 45.5869 151.565C45.4104 151.849 45.2135 152.121 44.9978 152.377C47.393 153.435 50.149 152.244 52.4027 150.908C56.5789 148.438 60.7505 144.848 61.2072 140.001C61.4675 137.191 60.408 134.448 59.8829 131.674C59.0493 127.214 59.5908 122.606 61.4355 118.462C62.4859 116.125 63.9472 113.968 64.7761 111.548C66.7055 105.977 65.1208 99.77 62.5567 94.464C61.8922 93.0827 61.1364 91.6441 61.2529 90.1164Z" fill="black"/>
<path d="M92.5117 54.8845C92.2871 54.6537 92.0459 54.4396 91.7901 54.2441C94.5575 57.8393 90.5617 60.8948 90.363 64.7645C90.1849 68.2637 90.4772 76.0899 86.6069 77.8418C84.6935 78.7086 82.6408 76.8103 80.5424 76.7646C79.0286 76.7326 77.6449 77.6954 76.7201 78.8938C75.7954 80.0922 75.2268 81.5194 74.5578 82.8779C73.9475 84.1107 73.2452 85.2957 72.4571 86.4228C72.0004 87.0929 71.4661 87.7607 70.74 88.1381C69.4842 88.7944 67.9567 88.4262 66.6026 88.0008C65.2859 87.5861 63.9814 87.1287 62.689 86.6286C62.6863 86.8668 62.6665 87.1045 62.6296 87.3399C64.333 88.0351 66.0615 88.6587 67.8151 89.2107C69.1668 89.6361 70.6944 90.0043 71.9525 89.3479C72.6763 88.9705 73.2015 88.3004 73.6696 87.6303C74.4583 86.5048 75.1598 85.3205 75.7679 84.0877C76.4392 82.7292 77.0055 81.2998 77.9326 80.1014C78.8596 78.903 80.241 77.9424 81.7526 77.9744C83.8532 78.0202 85.906 79.9184 87.8194 79.0516C91.6897 77.2998 91.3951 69.4735 91.5755 65.9743C91.7856 61.9057 96.2061 58.7358 92.5117 54.8845Z" fill="black"/>
</g>
<path opacity="0.1" d="M62.4242 87.0037C62.2301 87.3468 62.0406 87.6898 61.8671 88.042C61.8008 88.177 61.7369 88.3165 61.6798 88.456C60.4834 87.2484 57.5698 84.3782 55.9441 83.4885C56.3394 82.6399 56.8546 81.8527 57.4739 81.1512C57.4739 81.1512 61.3487 83.2026 62.4242 87.0037Z" fill="black"/>
<path d="M62.5315 86.8161C61.6342 82.7475 57.4739 80.5451 57.4739 80.5451C56.8541 81.2462 56.3388 82.0335 55.9441 82.8824C57.6589 83.8224 60.819 86.974 61.8671 88.042L62.5315 86.8161Z" fill="#FF748E"/>
</g>
<defs>
<linearGradient id="paint0_linear_46_140" x1="166.69" y1="21.8207" x2="166.69" y2="17.6171" gradientUnits="userSpaceOnUse">
<stop stop-color="#808080" stop-opacity="0.25"/>
<stop offset="0.54" stop-color="#808080" stop-opacity="0.12"/>
<stop offset="1" stop-color="#808080" stop-opacity="0.1"/>
</linearGradient>
<linearGradient id="paint1_linear_46_140" x1="128.513" y1="179.002" x2="128.513" y2="6.72236e-07" gradientUnits="userSpaceOnUse">
<stop stop-color="#808080" stop-opacity="0.25"/>
<stop offset="0.54" stop-color="#808080" stop-opacity="0.12"/>
<stop offset="1" stop-color="#808080" stop-opacity="0.1"/>
</linearGradient>
<clipPath id="clip0_46_140">
<rect width="248" height="179" fill="white"/>
</clipPath>
</defs>
</svg>
