<svg width="327" height="114" viewBox="0 0 327 114" fill="none" xmlns="http://www.w3.org/2000/svg">
<g filter="url(#filter0_d_361_2957)">
<path d="M255.708 92.64L254.88 87.636L249.516 87.852L248.148 94.62L243.108 94.188L249.552 68.088L256.212 68.664L260.928 93.072L255.708 92.64ZM252.54 72.804L250.272 84L254.304 83.856L252.54 72.804ZM270.562 76.692L270.599 72.228C270.599 70.572 270.563 68.688 270.491 66.576L274.703 66.936C274.751 68.64 274.775 71.736 274.775 76.224C274.775 80.688 274.583 86.448 274.199 93.504L270.995 93.216C270.923 92.256 270.851 91.128 270.779 89.832C269.747 91.896 268.631 92.928 267.431 92.928C265.583 92.928 264.299 92.352 263.579 91.2C262.859 90.048 262.499 88.38 262.499 86.196C262.499 83.988 262.967 81.708 263.903 79.356C264.863 77.004 265.943 75.828 267.143 75.828C268.223 75.828 269.363 76.116 270.562 76.692ZM270.671 80.04C270.071 79.584 269.471 79.356 268.871 79.356C268.295 79.356 267.791 80.136 267.359 81.696C266.927 83.232 266.711 84.84 266.711 86.52C266.711 88.2 267.119 89.04 267.935 89.04C268.247 89.04 268.667 88.524 269.195 87.492C269.723 86.436 270.203 85.104 270.635 83.496L270.671 80.04ZM286.084 76.944C287.548 76.944 288.664 77.448 289.432 78.456C290.68 76.632 291.916 75.72 293.14 75.72C296.476 75.72 298.144 78.228 298.144 83.244C298.144 86.076 297.904 89.508 297.424 93.54L293.248 93.18C293.704 88.692 293.932 85.272 293.932 82.92C293.932 80.568 293.548 79.392 292.78 79.392C292.444 79.392 292.048 79.932 291.592 81.012C291.136 82.092 290.836 83.292 290.692 84.612C290.644 87.612 290.548 90.288 290.404 92.64L286.192 92.244C286.384 88.86 286.48 86.076 286.48 83.892C286.48 81.708 286.18 80.616 285.58 80.616C285.196 80.616 284.692 81.288 284.068 82.632C283.468 83.952 283.036 85.344 282.772 86.808C282.796 89.016 282.904 91.296 283.096 93.648L278.884 93.252C278.62 89.868 278.488 86.784 278.488 84C278.488 81.216 278.56 78.612 278.704 76.188L281.692 76.404C281.836 77.052 282.04 78.228 282.304 79.932C283.576 77.94 284.836 76.944 286.084 76.944ZM302.121 75.828L306.225 76.224V93.504L302.121 93.108V75.828ZM302.409 69.492L306.441 69.96L306.081 73.992L302.049 73.488L302.409 69.492ZM317.397 75.864C320.565 75.864 322.149 78.504 322.149 83.784C322.149 86.568 321.993 89.52 321.681 92.64L317.469 92.244C317.733 89.508 317.865 86.748 317.865 83.964C317.865 81.156 317.469 79.752 316.677 79.752C316.293 79.752 315.801 80.724 315.201 82.668C314.601 84.588 314.229 86.472 314.085 88.32C314.133 89.304 314.229 91.08 314.373 93.648L310.161 93.252C309.897 89.868 309.765 86.892 309.765 84.324C309.765 81.756 309.837 79.452 309.981 77.412L312.645 77.7C312.693 77.892 312.873 78.672 313.185 80.04C314.577 77.256 315.981 75.864 317.397 75.864Z" fill="#333333"/>
<path d="M5.376 90.576C4.864 73.936 4.608 61.392 4.608 52.944C4.608 44.496 5.152 35.472 6.24 25.872L24.288 27.312C26.528 35.376 28.896 46.672 31.392 61.2C34.976 49.488 38.144 36.816 40.896 23.184L59.04 24.816C59.552 44.592 59.808 59.056 59.808 68.208C59.808 77.296 59.52 85.392 58.944 92.496L45.792 91.248C46.624 83.184 47.328 66.096 47.904 39.984L47.136 39.888C46.496 42.384 45.472 46.672 44.064 52.752C41.12 65.36 38.272 76.112 35.52 85.008L26.784 84.24C25.248 78.096 23.456 70.16 21.408 60.432C19.424 50.64 17.888 43.44 16.8 38.832L16.032 38.736C16.608 60.112 17.28 77.776 18.048 91.728L5.376 90.576ZM80.1015 83.088C82.5335 83.088 85.1255 80.752 87.8775 76.08L95.1735 80.4C93.9575 82.512 92.7735 84.304 91.6215 85.776C90.5335 87.248 88.8695 88.656 86.6295 90C84.3895 91.344 81.8935 92.016 79.1415 92.016C75.1095 92.016 71.7175 90.32 68.9655 86.928C66.2135 83.472 64.8375 78.832 64.8375 73.008C64.8375 66.352 66.0215 60.144 68.3895 54.384C69.6695 51.376 71.4935 48.944 73.8615 47.088C76.2935 45.168 78.7575 44.208 81.2535 44.208C83.8135 44.208 85.8615 44.624 87.3975 45.456C88.9335 46.224 90.1495 47.12 91.0455 48.144C92.0055 49.104 92.8375 50.544 93.5415 52.464C94.2455 54.384 94.7255 55.952 94.9815 57.168C95.3015 58.384 95.5575 60.144 95.7495 62.448C96.0055 65.52 96.1335 68.304 96.1335 70.8C91.0135 72.208 84.3895 73.488 76.2615 74.64C76.4535 77.2 76.9015 79.248 77.6055 80.784C78.3095 82.32 79.1415 83.088 80.1015 83.088ZM82.2135 53.616C80.8055 53.616 79.5255 55.024 78.3735 57.84C77.2855 60.656 76.6455 63.92 76.4535 67.632C79.8455 66.928 82.7895 66.256 85.2855 65.616C85.2855 57.616 84.2615 53.616 82.2135 53.616ZM121.688 46.512L121.784 34.608C121.784 30.192 121.688 25.168 121.496 19.536L132.728 20.496C132.856 25.04 132.92 33.296 132.92 45.264C132.92 57.168 132.408 72.528 131.384 91.344L122.84 90.576C122.648 88.016 122.456 85.008 122.264 81.552C119.512 87.056 116.536 89.808 113.336 89.808C108.408 89.808 104.984 88.272 103.064 85.2C101.144 82.128 100.184 77.68 100.184 71.856C100.184 65.968 101.432 59.888 103.928 53.616C106.488 47.344 109.368 44.208 112.568 44.208C115.448 44.208 118.488 44.976 121.688 46.512ZM121.976 55.44C120.376 54.224 118.776 53.616 117.176 53.616C115.64 53.616 114.296 55.696 113.144 59.856C111.992 63.952 111.416 68.24 111.416 72.72C111.416 77.2 112.504 79.44 114.68 79.44C115.512 79.44 116.632 78.064 118.04 75.312C119.448 72.496 120.728 68.944 121.88 64.656L121.976 55.44ZM143.687 44.208L154.631 45.264V91.344L143.687 90.288V44.208ZM144.455 27.312L155.207 28.56L154.247 39.312L143.495 37.968L144.455 27.312Z" fill="#008864"/>
<path fill-rule="evenodd" clip-rule="evenodd" d="M201.56 75.8627C194.332 77.5643 188.445 74.8702 184.621 72.1012C173.225 63.8455 169.181 46.6842 177.386 34.8639C179.281 32.1344 180.074 30.8267 182.633 28.3098L185.981 25.4069C181.092 26.7422 176.2 29.9877 172.871 33.0088C162.177 42.7139 159.124 58.7645 164.822 71.9673C166.889 76.7529 169.919 80.6444 173.173 83.6458C174.172 84.5675 177.037 86.8047 178.322 87.5491C178.613 87.7185 178.817 87.7657 179.112 87.939L184.063 90.3338C190.233 92.835 198.156 93.2761 205.104 91.417C209.671 90.192 210.084 89.3649 212.866 88.3369C219.244 92.4687 229.785 94.3278 237 91.9527C236.768 91.6218 236.414 91.5509 236.049 91.3106C231.357 90.7907 222.577 84.6068 221.182 81.8654C233.396 67.9182 234.508 46.5621 219.787 32.9694C218.144 31.453 216.592 30.0507 214.984 29.0464C214.375 28.6643 214.324 28.5658 213.64 28.2271C213.169 27.9908 212.846 27.7308 212.371 27.4748C207.969 25.1036 202.436 23.6739 196.981 24.0638C189.247 24.6192 182.991 27.6441 178.947 34.0171L177.382 36.6403C173.967 43.6868 180.519 31.4411 191.805 32.1462C194.8 32.3313 198.706 33.4893 201.155 35.0294C201.485 35.2342 201.65 35.3917 201.964 35.6005C208.178 39.7244 212.803 46.1092 213.955 54.2231C214.403 57.3544 214.238 60.0052 213.66 62.7348C213.259 64.6018 212.988 64.8735 212.418 66.4097C212.072 67.3353 211.204 69.0211 210.433 69.6828C208.979 67.5834 204.747 64.5821 202.224 63.8022C200.282 63.2035 198.522 63.2901 196.675 64.8144C195.405 65.8622 195.806 65.4171 194.097 65.5352C192.992 65.6101 191.994 65.7755 190.925 66.1261C191.196 66.3545 190.945 66.1694 191.224 66.3112C192.584 67.0005 192.674 66.9611 194.073 67.8788C197.417 70.0648 199.359 72.0579 201.56 75.8627ZM199.316 65.3147C199.768 65.3541 199.897 65.5156 200.07 66.1458C200.239 66.7799 199.705 66.1182 199.253 66.0788C198.805 66.0434 198.404 66.4372 198.439 66.0118C198.475 65.5904 198.868 65.2792 199.316 65.3147Z" fill="#008864"/>
</g>
<defs>
<filter id="filter0_d_361_2957" x="0.608002" y="19.5359" width="325.541" height="83.0842" filterUnits="userSpaceOnUse" color-interpolation-filters="sRGB">
<feFlood flood-opacity="0" result="BackgroundImageFix"/>
<feColorMatrix in="SourceAlpha" type="matrix" values="0 0 0 0 0 0 0 0 0 0 0 0 0 0 0 0 0 0 127 0" result="hardAlpha"/>
<feOffset dy="4"/>
<feGaussianBlur stdDeviation="2"/>
<feComposite in2="hardAlpha" operator="out"/>
<feColorMatrix type="matrix" values="0 0 0 0 0 0 0 0 0 0 0 0 0 0 0 0 0 0 0.25 0"/>
<feBlend mode="normal" in2="BackgroundImageFix" result="effect1_dropShadow_361_2957"/>
<feBlend mode="normal" in="SourceGraphic" in2="effect1_dropShadow_361_2957" result="shape"/>
</filter>
</defs>
</svg>
