<svg width="158" height="76" viewBox="0 0 158 76" fill="none" xmlns="http://www.w3.org/2000/svg">
<path d="M3.584 60.384C3.24267 49.2907 3.072 40.928 3.072 35.296C3.072 29.664 3.43467 23.648 4.16 17.248L16.192 18.208C17.6853 23.584 19.264 31.1147 20.928 40.8C23.3173 32.992 25.4293 24.544 27.264 15.456L39.36 16.544C39.7013 29.728 39.872 39.3707 39.872 45.472C39.872 51.5307 39.68 56.928 39.296 61.664L30.528 60.832C31.0827 55.456 31.552 44.064 31.936 26.656L31.424 26.592C30.9973 28.256 30.3147 31.1147 29.376 35.168C27.4133 43.5733 25.5147 50.7413 23.68 56.672L17.856 56.16C16.832 52.064 15.6373 46.7733 14.272 40.288C12.9493 33.76 11.9253 28.96 11.2 25.888L10.688 25.824C11.072 40.0747 11.52 51.8507 12.032 61.152L3.584 60.384ZM53.401 55.392C55.0223 55.392 56.7503 53.8347 58.585 50.72L63.449 53.6C62.6383 55.008 61.849 56.2027 61.081 57.184C60.3557 58.1653 59.2463 59.104 57.753 60C56.2597 60.896 54.5957 61.344 52.761 61.344C50.073 61.344 47.8117 60.2133 45.977 57.952C44.1423 55.648 43.225 52.5547 43.225 48.672C43.225 44.2347 44.0143 40.096 45.593 36.256C46.4463 34.2507 47.6623 32.6293 49.241 31.392C50.8623 30.112 52.505 29.472 54.169 29.472C55.8757 29.472 57.241 29.7493 58.265 30.304C59.289 30.816 60.0997 31.4133 60.697 32.096C61.337 32.736 61.8917 33.696 62.361 34.976C62.8303 36.256 63.1503 37.3013 63.321 38.112C63.5343 38.9227 63.705 40.096 63.833 41.632C64.0037 43.68 64.089 45.536 64.089 47.2C60.6757 48.1387 56.2597 48.992 50.841 49.76C50.969 51.4667 51.2677 52.832 51.737 53.856C52.2063 54.88 52.761 55.392 53.401 55.392ZM54.809 35.744C53.8703 35.744 53.017 36.6827 52.249 38.56C51.5237 40.4373 51.097 42.6133 50.969 45.088C53.2303 44.6187 55.193 44.1707 56.857 43.744C56.857 38.4107 56.1743 35.744 54.809 35.744ZM81.125 31.008L81.189 23.072C81.189 20.128 81.125 16.7787 80.997 13.024L88.485 13.664C88.5703 16.6933 88.613 22.1973 88.613 30.176C88.613 38.112 88.2717 48.352 87.589 60.896L81.893 60.384C81.765 58.6773 81.637 56.672 81.509 54.368C79.6743 58.0373 77.6903 59.872 75.557 59.872C72.2717 59.872 69.989 58.848 68.709 56.8C67.429 54.752 66.789 51.7867 66.789 47.904C66.789 43.9787 67.621 39.9253 69.285 35.744C70.9917 31.5627 72.9117 29.472 75.045 29.472C76.965 29.472 78.9917 29.984 81.125 31.008ZM81.317 36.96C80.2503 36.1493 79.1837 35.744 78.117 35.744C77.093 35.744 76.197 37.1307 75.429 39.904C74.661 42.6347 74.277 45.4933 74.277 48.48C74.277 51.4667 75.0023 52.96 76.453 52.96C77.0077 52.96 77.7543 52.0427 78.693 50.208C79.6317 48.3307 80.485 45.9627 81.253 43.104L81.317 36.96ZM95.791 29.472L103.087 30.176V60.896L95.791 60.192V29.472ZM96.303 18.208L103.471 19.04L102.831 26.208L95.663 25.312L96.303 18.208Z" fill="#008864"/>
<path fill-rule="evenodd" clip-rule="evenodd" d="M134.373 50.5752C129.555 51.7095 125.63 49.9134 123.081 48.0675C115.483 42.5637 112.787 31.1228 118.258 23.2426C119.52 21.4229 120.05 20.5511 121.755 18.8732L123.987 16.9379C120.728 17.8281 117.466 19.9918 115.247 22.0058C108.118 28.476 106.083 39.1763 109.882 47.9782C111.26 51.1686 113.28 53.7629 115.449 55.7638C116.114 56.3783 118.024 57.8698 118.881 58.3661C119.075 58.479 119.211 58.5105 119.408 58.626L122.709 60.2225C126.822 61.89 132.104 62.1841 136.736 60.9447C139.781 60.128 140.056 59.5766 141.911 58.8912C146.163 61.6458 153.19 62.8852 158 61.3018C157.845 61.0812 157.61 61.0339 157.366 60.8738C154.238 60.5271 148.385 56.4046 147.455 54.577C155.597 45.2788 156.339 31.0414 146.525 21.9796C145.429 20.9686 144.394 20.0338 143.323 19.3642C142.917 19.1095 142.883 19.0439 142.427 18.8181C142.112 18.6605 141.898 18.4872 141.581 18.3165C138.646 16.7358 134.957 15.7826 131.321 16.0425C126.165 16.4128 121.994 18.4294 119.298 22.6781L118.255 24.4269C115.978 29.1245 120.346 20.9608 127.87 21.4308C129.867 21.5542 132.471 22.3262 134.103 23.3529C134.323 23.4895 134.433 23.5945 134.643 23.7337C138.785 26.4829 141.869 30.7394 142.636 36.1487C142.935 38.2363 142.825 40.0035 142.44 41.8232C142.173 43.0678 141.992 43.249 141.612 44.2731C141.381 44.8902 140.802 46.014 140.289 46.4552C139.32 45.0556 136.498 43.0547 134.816 42.5348C133.522 42.1357 132.348 42.1934 131.116 43.2096C130.27 43.9081 130.537 43.6114 129.398 43.6902C128.662 43.7401 127.996 43.8503 127.283 44.084C127.464 44.2363 127.297 44.1129 127.483 44.2075C128.389 44.667 128.449 44.6407 129.382 45.2525C131.612 46.7099 132.906 48.0386 134.373 50.5752ZM132.877 43.5431C133.178 43.5694 133.265 43.677 133.38 44.0972C133.493 44.5199 133.136 44.0788 132.835 44.0525C132.536 44.0289 132.269 44.2915 132.293 44.0079C132.316 43.7269 132.578 43.5195 132.877 43.5431Z" fill="#008864"/>
</svg>
