<svg width="472" height="442" viewBox="0 0 472 442" fill="none" xmlns="http://www.w3.org/2000/svg">
<g clip-path="url(#clip0_46_540)">
<path d="M436.318 338.143L457.493 341.456C464.66 332.767 469.601 322.458 471.886 311.424C456.403 324.113 432.858 317.37 414.083 324.298C408.244 326.503 402.976 329.996 398.669 334.518C394.361 339.039 391.125 344.473 389.2 350.417L378.852 361.564C388.219 365.277 398.279 366.912 408.338 366.358C418.398 365.803 428.217 363.072 437.121 358.352C442.089 355.654 446.699 352.341 450.84 348.49C443.432 343.819 436.318 338.143 436.318 338.143Z" fill="#F2F2F2"/>
<path d="M428.801 304.237L449.229 297.747C451.774 286.77 451.604 275.336 448.734 264.44C440.529 282.711 416.451 287.189 402.733 301.773C398.489 306.354 395.33 311.833 393.489 317.804C391.647 323.774 391.171 330.082 392.096 336.262L387.799 350.859C397.837 350 407.57 346.972 416.326 341.984C425.082 336.996 432.655 330.166 438.521 321.966C441.767 317.333 444.417 312.309 446.409 307.013C437.697 306.141 428.801 304.237 428.801 304.237Z" fill="#F2F2F2"/>
<path d="M472 368.316C472 368.426 471.979 368.534 471.937 368.635C471.896 368.736 471.835 368.828 471.757 368.906C471.68 368.983 471.588 369.044 471.487 369.086C471.386 369.128 471.278 369.149 471.169 369.149H0.831295C0.610822 369.149 0.399377 369.061 0.243479 368.905C0.0875813 368.749 0 368.537 0 368.316C0 368.096 0.0875813 367.884 0.243479 367.728C0.399377 367.572 0.610822 367.484 0.831295 367.484H471.169C471.278 367.484 471.386 367.505 471.487 367.547C471.588 367.589 471.68 367.65 471.757 367.727C471.835 367.805 471.896 367.896 471.937 367.998C471.979 368.099 472 368.207 472 368.316Z" fill="#CCCCCC"/>
<path d="M194.898 332.833C277.847 332.833 345.09 265.507 345.09 182.456C345.09 99.4056 277.847 32.0798 194.898 32.0798C111.95 32.0798 44.7065 99.4056 44.7065 182.456C44.7065 265.507 111.95 332.833 194.898 332.833Z" fill="#E6E6E6"/>
<path d="M324.133 182.456C324.148 202.647 319.437 222.559 310.379 240.598C301.321 258.636 288.166 274.298 271.971 286.328C270.888 287.139 269.784 287.93 268.674 288.699C247.017 303.772 221.273 311.85 194.898 311.85C168.523 311.85 142.779 303.772 121.123 288.699C120.012 287.93 118.908 287.139 117.825 286.328C101.641 274.288 88.4953 258.624 79.438 240.587C70.3808 222.551 65.6636 202.644 65.6636 182.456C65.6636 162.269 70.3808 142.361 79.438 124.325C88.4953 106.289 101.641 90.6249 117.825 78.5846C118.908 77.7733 120.012 76.9829 121.123 76.2136C142.779 61.141 168.523 53.0626 194.898 53.0626C221.273 53.0626 247.017 61.141 268.674 76.2136C269.784 76.9829 270.888 77.7733 271.971 78.5846C288.166 90.6143 301.321 106.276 310.379 124.315C319.437 142.353 324.148 162.266 324.133 182.456Z" fill="white"/>
<path d="M194.898 300.659C260.1 300.659 312.956 247.738 312.956 182.456C312.956 117.175 260.1 64.2534 194.898 64.2534C129.697 64.2534 76.8406 117.175 76.8406 182.456C76.8406 247.738 129.697 300.659 194.898 300.659Z" fill="#008864"/>
<path opacity="0.2" d="M195.206 64.5838C193.417 64.5838 191.638 64.6307 189.868 64.7096C219.706 67.3348 247.432 81.2181 267.429 103.547C287.425 125.876 298.197 154.98 297.561 184.963C296.925 214.947 284.93 243.567 264.005 265.026C243.081 286.485 214.791 299.178 184.868 300.534C188.276 300.83 191.722 300.99 195.206 300.99C226.517 300.99 256.546 288.536 278.686 266.369C300.826 244.202 313.264 214.136 313.264 182.787C313.264 151.437 300.826 121.372 278.686 99.2047C256.546 77.0373 226.517 64.5838 195.206 64.5838Z" fill="black"/>
<path d="M195.248 55.8603C194.229 55.8621 193.253 56.2679 192.533 56.989C191.813 57.71 191.407 58.6874 191.406 59.7071V76.4934C191.406 77.5136 191.81 78.4921 192.531 79.2135C193.251 79.9349 194.229 80.3402 195.248 80.3402C196.267 80.3402 197.244 79.9349 197.964 79.2135C198.685 78.4921 199.09 77.5136 199.09 76.4934V59.7071C199.088 58.6874 198.683 57.71 197.962 56.989C197.242 56.2679 196.266 55.8621 195.248 55.8603Z" fill="white"/>
<path d="M271.971 78.5846C270.888 77.7733 269.785 76.983 268.674 76.2136C268.007 76.1701 267.341 76.3014 266.741 76.5946C266.14 76.8877 265.627 77.3326 265.251 77.8852L255.813 91.7548C255.24 92.5979 255.024 93.6346 255.214 94.6367C255.404 95.6388 255.984 96.5243 256.826 97.0984C257.668 97.6726 258.704 97.8882 259.704 97.6981C260.705 97.5079 261.59 96.9274 262.163 96.0843L271.601 82.2147C271.96 81.6885 272.182 81.0807 272.247 80.4467C272.311 79.8128 272.217 79.1726 271.971 78.5846Z" fill="white"/>
<path d="M314.849 141.827C314.659 141.359 314.379 140.933 314.025 140.574C313.671 140.215 313.25 139.929 312.785 139.733C312.321 139.537 311.822 139.434 311.318 139.431C310.814 139.428 310.314 139.524 309.847 139.714L294.311 146.03C293.368 146.415 292.616 147.159 292.221 148.098C291.825 149.038 291.818 150.096 292.201 151.04C292.585 151.985 293.327 152.738 294.265 153.135C295.202 153.532 296.259 153.54 297.203 153.157L312.739 146.842C313.682 146.455 314.433 145.71 314.829 144.77C315.224 143.83 315.231 142.772 314.849 141.827Z" fill="white"/>
<path d="M133.983 91.7548L124.546 77.8852C124.17 77.3326 123.656 76.8877 123.056 76.5946C122.456 76.3014 121.789 76.1701 121.123 76.2136C120.012 76.983 118.908 77.7733 117.826 78.5846C117.58 79.1726 117.485 79.8128 117.55 80.4467C117.615 81.0807 117.837 81.6885 118.196 82.2147L127.633 96.0843C128.207 96.9274 129.091 97.5079 130.092 97.6981C131.093 97.8883 132.128 97.6726 132.97 97.0984C133.812 96.5243 134.392 95.6388 134.582 94.6367C134.772 93.6346 134.557 92.5979 133.983 91.7548Z" fill="white"/>
<path d="M95.4853 146.03L79.9492 139.715C79.0053 139.331 77.9478 139.338 77.0093 139.735C76.0708 140.132 75.3281 140.885 74.9446 141.83C74.5612 142.775 74.5683 143.834 74.9645 144.774C75.3606 145.714 76.1134 146.457 77.0571 146.842L92.5932 153.157C93.537 153.54 94.5939 153.532 95.5319 153.135C96.4698 152.738 97.2119 151.985 97.5952 151.04C97.9785 150.096 97.9716 149.038 97.5759 148.098C97.1803 147.159 96.4284 146.415 95.4853 146.03V146.03Z" fill="white"/>
<path d="M195.248 284.573C194.229 284.574 193.253 284.98 192.533 285.701C191.813 286.422 191.407 287.4 191.406 288.419V305.206C191.406 306.226 191.81 307.204 192.531 307.926C193.251 308.647 194.229 309.052 195.248 309.052C196.267 309.052 197.244 308.647 197.964 307.926C198.685 307.204 199.09 306.226 199.09 305.206V288.419C199.088 287.4 198.683 286.422 197.962 285.701C197.242 284.98 196.266 284.574 195.248 284.573Z" fill="white"/>
<path d="M271.601 282.698L262.163 268.828C261.879 268.411 261.516 268.054 261.094 267.777C260.672 267.5 260.2 267.309 259.704 267.215C259.209 267.12 258.7 267.125 258.206 267.228C257.712 267.331 257.243 267.53 256.826 267.814C256.409 268.099 256.052 268.462 255.776 268.885C255.499 269.307 255.308 269.78 255.214 270.276C255.12 270.772 255.125 271.282 255.228 271.777C255.33 272.271 255.529 272.74 255.813 273.158L265.251 287.028C265.627 287.58 266.14 288.025 266.741 288.318C267.341 288.611 268.007 288.743 268.674 288.699C269.785 287.93 270.888 287.139 271.971 286.328C272.217 285.74 272.311 285.1 272.247 284.466C272.182 283.832 271.96 283.224 271.601 282.698Z" fill="white"/>
<path d="M312.739 218.071L297.203 211.755C296.259 211.372 295.202 211.379 294.263 211.776C293.325 212.172 292.582 212.926 292.199 213.871C291.815 214.816 291.822 215.875 292.219 216.815C292.615 217.755 293.368 218.498 294.311 218.882L309.847 225.198C310.791 225.581 311.848 225.573 312.786 225.176C313.724 224.779 314.466 224.026 314.849 223.081C315.233 222.137 315.226 221.078 314.83 220.139C314.434 219.199 313.683 218.456 312.739 218.071V218.071Z" fill="white"/>
<path d="M132.97 267.814C132.128 267.24 131.093 267.025 130.092 267.215C129.091 267.405 128.207 267.986 127.633 268.828L118.196 282.698C117.837 283.224 117.615 283.832 117.55 284.466C117.485 285.1 117.58 285.74 117.826 286.328C118.908 287.139 120.012 287.93 121.123 288.699C121.789 288.743 122.456 288.611 123.056 288.318C123.656 288.025 124.17 287.58 124.546 287.028L133.983 273.158C134.267 272.74 134.466 272.271 134.569 271.777C134.672 271.282 134.676 270.772 134.582 270.276C134.488 269.78 134.297 269.307 134.021 268.885C133.744 268.462 133.387 268.099 132.97 267.814Z" fill="white"/>
<path d="M97.5951 213.867C97.4053 213.4 97.1254 212.974 96.7713 212.615C96.4172 212.256 95.9958 211.97 95.5313 211.774C95.0668 211.578 94.5683 211.475 94.0642 211.472C93.5601 211.469 93.0603 211.565 92.5933 211.755L77.0572 218.071C76.1142 218.456 75.3622 219.199 74.9666 220.139C74.571 221.078 74.5641 222.137 74.9473 223.081C75.3306 224.026 76.0727 224.779 77.0107 225.176C77.9486 225.573 79.0056 225.581 79.9493 225.198L95.4854 218.882C96.428 218.496 97.1792 217.751 97.5746 216.811C97.97 215.871 97.9774 214.813 97.5951 213.867Z" fill="white"/>
<path d="M200.233 180.548C200.587 182.65 200.095 184.808 198.862 186.547C197.63 188.287 195.759 189.466 193.66 189.826L125.481 201.437C124.441 201.614 123.377 201.585 122.348 201.35C121.319 201.115 120.347 200.68 119.487 200.069C118.626 199.457 117.894 198.683 117.333 197.788C116.771 196.894 116.391 195.898 116.214 194.857C116.037 193.815 116.067 192.749 116.302 191.719C116.536 190.69 116.971 189.716 117.581 188.855C118.192 187.993 118.966 187.26 119.859 186.698C120.752 186.136 121.747 185.755 122.787 185.578L190.966 173.967C193.066 173.612 195.221 174.105 196.958 175.339C198.695 176.572 199.873 178.446 200.233 180.548Z" fill="#3F3D56"/>
<path d="M271.989 256.177C271.009 257.163 269.679 257.72 268.29 257.726C266.901 257.731 265.567 257.185 264.58 256.206L191.186 183.299C190.201 182.319 189.645 180.987 189.64 179.597C189.636 178.206 190.182 176.871 191.16 175.884C192.138 174.897 193.468 174.339 194.857 174.333C196.245 174.327 197.58 174.873 198.566 175.851L271.96 248.759C272.945 249.739 273.501 251.071 273.506 252.462C273.512 253.853 272.966 255.189 271.989 256.177Z" fill="#3F3D56"/>
<path d="M194.898 191.549C199.914 191.549 203.98 187.478 203.98 182.456C203.98 177.435 199.914 173.364 194.898 173.364C189.883 173.364 185.817 177.435 185.817 182.456C185.817 187.478 189.883 191.549 194.898 191.549Z" fill="#CCCCCC"/>
<path d="M132.346 24.7909C118.406 46.7337 97.1372 61.2959 70.9073 70.8624C70.389 71.2511 69.7993 71.5337 69.1719 71.6942C68.5445 71.8547 67.8916 71.8899 67.2506 71.7978C66.6096 71.7057 65.993 71.4881 65.436 71.1573C64.879 70.8266 64.3926 70.3893 64.0044 69.8704C49.7565 50.8233 52.9737 23.6012 71.7779 9.04697C76.3241 5.53438 81.5219 2.96095 87.0695 1.47608C92.6172 -0.00878091 98.4042 -0.375509 104.095 0.397202C109.785 1.16991 115.265 3.06666 120.218 5.97734C125.17 8.88801 129.495 12.7546 132.943 17.3527L133.337 17.8795C133.725 18.3985 134.007 18.9889 134.168 19.6171C134.328 20.2453 134.363 20.8989 134.271 21.5407C134.179 22.1825 133.962 22.7998 133.631 23.3575C133.301 23.9152 132.864 24.4023 132.346 24.7909Z" fill="#E6E6E6"/>
<path d="M256.854 17.3527C260.301 12.7546 264.627 8.888 269.579 5.97733C274.531 3.06665 280.012 1.16991 285.702 0.397204C291.392 -0.375506 297.179 -0.00878858 302.727 1.47608C308.275 2.96094 313.473 5.53437 318.019 9.04696C336.823 23.6012 340.04 50.8233 325.792 69.8704C325.404 70.3893 324.918 70.8266 324.361 71.1573C323.804 71.488 323.187 71.7057 322.546 71.7978C321.905 71.8899 321.252 71.8547 320.625 71.6942C319.997 71.5337 319.408 71.2511 318.889 70.8624C294.539 61.5283 274.571 45.3757 257.451 24.7909C256.404 24.006 255.711 22.8368 255.526 21.5407C255.34 20.2445 255.676 18.9276 256.46 17.8795L256.854 17.3527Z" fill="#E6E6E6"/>
<path d="M250.744 312.737C249.856 313.237 249.202 314.068 248.925 315.05C248.649 316.031 248.772 317.082 249.267 317.973L271.441 357.646C271.939 358.536 272.769 359.192 273.75 359.469C274.73 359.746 275.781 359.622 276.67 359.124C277.559 358.625 278.214 357.794 278.491 356.812C278.768 355.831 278.644 354.779 278.147 353.889L255.973 314.216C255.474 313.327 254.644 312.672 253.664 312.395C252.683 312.118 251.634 312.241 250.744 312.737Z" fill="#E6E6E6"/>
<path d="M133.824 314.216L111.65 353.889C111.152 354.779 111.029 355.831 111.306 356.812C111.583 357.794 112.238 358.625 113.127 359.124C114.016 359.622 115.066 359.746 116.047 359.469C117.027 359.192 117.858 358.536 118.355 357.646L140.529 317.973C140.776 317.532 140.933 317.047 140.992 316.545C141.052 316.043 141.012 315.535 140.874 315.048C140.737 314.562 140.506 314.108 140.193 313.711C139.881 313.314 139.493 312.983 139.053 312.736C138.613 312.49 138.128 312.332 137.627 312.273C137.126 312.214 136.618 312.254 136.132 312.391C135.647 312.529 135.193 312.761 134.797 313.074C134.401 313.386 134.07 313.775 133.824 314.216H133.824Z" fill="#E6E6E6"/>
<path d="M275.932 367.804C282.491 367.804 287.808 362.481 287.808 355.914C287.808 349.347 282.491 344.024 275.932 344.024C269.373 344.024 264.056 349.347 264.056 355.914C264.056 362.481 269.373 367.804 275.932 367.804Z" fill="#E6E6E6"/>
<path d="M284.315 63.554C290.874 63.554 296.19 58.2305 296.19 51.6637C296.19 45.0969 290.874 39.7735 284.315 39.7735C277.756 39.7735 272.439 45.0969 272.439 51.6637C272.439 58.2305 277.756 63.554 284.315 63.554Z" fill="#E6E6E6"/>
<path d="M194.2 35.5769C200.759 35.5769 206.075 30.2535 206.075 23.6867C206.075 17.1199 200.759 11.7964 194.2 11.7964C187.641 11.7964 182.324 17.1199 182.324 23.6867C182.324 30.2535 187.641 35.5769 194.2 35.5769Z" fill="#E6E6E6"/>
<path d="M108.276 62.1551C114.835 62.1551 120.152 56.8317 120.152 50.2649C120.152 43.6981 114.835 38.3746 108.276 38.3746C101.717 38.3746 96.4004 43.6981 96.4004 50.2649C96.4004 56.8317 101.717 62.1551 108.276 62.1551Z" fill="#E6E6E6"/>
<path d="M115.96 367.804C122.519 367.804 127.836 362.481 127.836 355.914C127.836 349.347 122.519 344.024 115.96 344.024C109.402 344.024 104.085 349.347 104.085 355.914C104.085 362.481 109.402 367.804 115.96 367.804Z" fill="#E6E6E6"/>
<path d="M266.617 249.49C267.085 250.224 267.708 250.846 268.442 251.313C269.176 251.779 270.004 252.079 270.866 252.191C271.729 252.303 272.605 252.224 273.434 251.96C274.263 251.696 275.024 251.253 275.663 250.663L294.298 260.66L293.298 249.706L275.756 241.892C274.694 240.882 273.3 240.297 271.836 240.248C270.373 240.2 268.942 240.69 267.816 241.626C266.689 242.563 265.945 243.881 265.724 245.33C265.503 246.779 265.82 248.259 266.617 249.49H266.617Z" fill="#FFB7B7"/>
<path d="M280.194 253.313L287.497 243.22L322.676 259.871L366.453 251.647C368.617 251.241 370.844 251.316 372.976 251.868C375.107 252.42 377.091 253.435 378.787 254.841C380.482 256.248 381.848 258.01 382.787 260.004C383.725 261.998 384.214 264.174 384.218 266.379C384.221 270.36 382.647 274.18 379.84 277.001C377.033 279.821 373.224 281.412 369.247 281.424L319.079 281.517L280.194 253.313Z" fill="#3F3D56"/>
<path d="M268.947 427.628L261.558 424.091L271.708 393.17L282.612 398.392L268.947 427.628Z" fill="#FFB7B7"/>
<path d="M318.48 422.644C317.942 422.981 317.405 423.312 316.863 423.643C315.783 424.306 314.692 424.958 313.601 425.599C313.053 425.92 312.499 426.241 311.951 426.556V426.572L311.919 426.578L311.908 426.583L311.072 426.79L309.873 423.616L309.319 422.155L308.538 420.084L307.105 416.297L299.561 396.356L311.289 393.459L311.729 395.258H311.734L311.951 396.149L316.048 412.787L316.884 416.189L316.911 416.292L317.416 418.324L317.85 420.084L318.333 422.051L318.48 422.644Z" fill="#FFB7B7"/>
<path d="M388.44 352.614C387.696 353.809 386.936 354.999 386.171 356.178C384.749 358.373 383.29 360.536 381.792 362.666C381.792 362.671 381.786 362.671 381.781 362.677C380.907 363.487 379.942 364.193 378.905 364.78C378.861 364.812 378.812 364.834 378.769 364.861C378.005 365.284 377.192 365.61 376.348 365.834C376.045 365.91 375.735 365.986 375.431 366.062C374.335 366.323 373.25 366.545 372.17 366.741C370.249 367.083 368.349 367.328 366.461 367.48C366.309 367.496 366.157 367.507 366.005 367.518C358.239 368.089 350.679 367.17 342.788 365.665C338.892 364.926 334.914 364.041 330.794 363.122C329.449 362.818 328.097 362.519 326.73 362.22C326.627 362.199 326.518 362.171 326.41 362.15C324.456 361.72 322.47 361.297 320.434 360.878C317.873 360.351 315.23 359.84 312.484 359.357L312.679 363.231C312.842 366.211 313.461 369.149 314.514 371.941C315.686 375.375 316.614 378.092 314.655 383.748L313.71 386.487C314.2 387.847 314.368 389.302 314.201 390.738C314.035 392.174 313.538 393.551 312.75 394.762L312.56 395.05L320.434 414.997L320.945 416.291H316.912L311.952 416.296H303.546L291.416 391.932L290.836 390.769V390.709L292.089 343.887C292.106 343.474 292.138 343.056 292.192 342.643C292.414 340.766 293.006 338.951 293.935 337.305C294.864 335.66 296.111 334.216 297.603 333.058C299.033 331.939 300.671 331.116 302.422 330.636C304.172 330.157 306.001 330.031 307.8 330.265L311.952 330.803L320.434 331.901L326.409 332.678L326.529 332.694L344.15 334.976L345.415 329.814L345.648 329.727L353.067 327.005L378.725 317.588L378.791 317.567L380.478 316.947L380.679 317.273C380.739 317.371 380.799 317.469 380.853 317.567C382.521 320.561 383.879 323.718 384.907 326.989C386.635 332.331 388.057 337.768 389.167 343.273C389.216 343.512 389.259 343.73 389.297 343.925L389.314 343.985C389.33 344.077 389.341 344.137 389.346 344.153C389.938 346.62 389.525 349.631 388.44 352.614Z" fill="#2F2E41"/>
<path d="M389.523 335.358C389.442 335.011 389.338 334.657 389.23 334.315C388.368 331.722 387.365 329.179 386.223 326.697C384.943 323.872 383.407 320.845 381.578 317.569C380.693 315.982 379.742 314.332 378.723 312.619C378.213 311.76 377.683 310.885 377.133 309.994C377.112 309.953 377.088 309.913 377.063 309.875L376.905 309.614L351.518 313.015L342.064 314.281L341.5 318.998L341.364 320.166C341.359 320.166 341.359 320.166 341.364 320.171L340.984 323.355V323.361L340.479 327.567L340.436 327.561L326.407 325.741L311.95 323.866L304.184 322.861C302.384 322.626 300.556 322.752 298.805 323.232C297.054 323.711 295.416 324.535 293.987 325.654C292.495 326.812 291.248 328.256 290.319 329.902C289.39 331.547 288.797 333.362 288.576 335.239C288.527 335.619 288.495 336.01 288.478 336.396L281.152 353.779C276.768 364.174 273.976 375.172 272.87 386.402L267.498 403.6L268.263 403.67L279.649 404.73L282.655 405.012L289.276 395.335C290.03 394.232 290.747 393.096 291.414 391.934C292.513 390.034 293.49 388.067 294.339 386.044L308.661 351.92C309.768 352.11 310.864 352.292 311.95 352.464C316.97 353.279 321.789 353.943 326.407 354.458C341.424 356.137 354.427 356.267 366.003 354.844C369.253 354.447 372.396 353.925 375.429 353.279C376.542 353.045 377.64 352.793 378.723 352.523C378.978 352.464 379.228 352.404 379.478 352.339C381.721 351.759 383.783 350.626 385.475 349.043C387.167 347.46 388.436 345.477 389.165 343.275C390.035 340.724 390.159 337.978 389.523 335.358Z" fill="#2F2E41"/>
<path d="M271.307 422.579L263.313 418.743L262.06 418.14L260.057 423.063L246.077 426.144C245.386 426.296 244.761 426.665 244.295 427.197C243.828 427.73 243.543 428.398 243.483 429.104C243.422 429.809 243.588 430.516 243.958 431.121C244.327 431.725 244.879 432.196 245.535 432.463L259.194 438.044L263.53 434.137L262.467 439.38L267.611 441.483L273.25 423.514L271.307 422.579Z" fill="#2F2E41"/>
<path d="M320.434 414.997L320.945 416.291H320.434V414.997Z" fill="#2F2E41"/>
<path d="M317.651 416.567L309.274 419.473L307.96 419.927L309.996 424.836L302.228 436.874C301.843 437.469 301.659 438.171 301.701 438.878C301.744 439.585 302.011 440.261 302.464 440.805C302.917 441.349 303.532 441.734 304.219 441.904C304.906 442.073 305.629 442.018 306.283 441.747L319.911 436.089L320.246 430.258L323.176 434.733L328.309 432.603L319.688 415.862L317.651 416.567Z" fill="#2F2E41"/>
<path d="M387.434 343.231C386.937 343.23 386.447 343.108 386.007 342.876L341.805 319.752L341.295 317.658L340.332 311.033L340.346 310.971L344.549 291.567C344.472 291.4 344.311 291.127 344.129 290.818C342.253 287.635 336.541 277.945 347.441 264.603L366.579 242.264L383.004 241.557L383.191 241.793C387.583 247.312 390.545 253.832 391.814 260.774C393.082 267.715 392.618 274.863 390.463 281.582L388.753 312.509L390.587 318.754C391.66 322.425 391.483 326.348 390.083 329.906L390.504 340.019C390.52 340.434 390.453 340.847 390.306 341.235C390.16 341.623 389.936 341.978 389.65 342.277C389.363 342.577 389.019 342.816 388.639 342.98C388.258 343.144 387.848 343.229 387.434 343.231L387.434 343.231Z" fill="#3F3D56"/>
<path d="M349.092 368.736C349.841 368.293 350.484 367.691 350.975 366.973C351.467 366.254 351.795 365.436 351.936 364.577C352.078 363.718 352.03 362.838 351.795 362C351.56 361.161 351.145 360.385 350.578 359.724L361.205 341.426L350.236 342.045L341.826 359.326C340.781 360.354 340.149 361.729 340.05 363.192C339.95 364.654 340.389 366.103 341.285 367.263C342.181 368.422 343.47 369.213 344.909 369.485C346.348 369.756 347.837 369.49 349.092 368.736L349.092 368.736Z" fill="#FFB7B7"/>
<path d="M353.381 355.283L343.561 347.625L361.405 313.002L354.718 268.912C354.388 266.732 354.541 264.507 355.166 262.393C355.791 260.28 356.873 258.33 358.336 256.682C359.798 255.034 361.605 253.729 363.628 252.859C365.651 251.989 367.84 251.576 370.041 251.648C374.015 251.784 377.774 253.492 380.491 256.399C383.209 259.305 384.664 263.173 384.538 267.152L382.886 317.355L353.381 355.283Z" fill="#3F3D56"/>
<path d="M356.043 232.982V216.708C356.04 210.925 358.331 205.377 362.412 201.285C366.494 197.193 372.032 194.892 377.808 194.888C383.585 194.885 389.126 197.178 393.213 201.265C397.3 205.352 399.598 210.897 399.602 216.68V216.708C403.44 224.717 401.039 228.525 399.602 232.982C399.6 233.758 399.292 234.502 398.744 235.051C398.196 235.599 397.453 235.908 396.677 235.91H358.969C358.193 235.909 357.45 235.6 356.902 235.051C356.353 234.502 356.045 233.758 356.043 232.982Z" fill="#2F2E41"/>
<path d="M370.681 234.852C379.685 234.852 386.984 227.544 386.984 218.53C386.984 209.515 379.685 202.207 370.681 202.207C361.678 202.207 354.379 209.515 354.379 218.53C354.379 227.544 361.678 234.852 370.681 234.852Z" fill="#FFB7B7"/>
<path d="M387.743 222.809C387.595 222.785 387.447 222.754 387.299 222.731C384.757 222.279 382.214 221.835 379.678 221.376L379.445 215.622L376.373 220.776C369.367 223.104 362.811 221.789 356.644 218.884C354.61 217.918 352.636 216.828 350.734 215.622C351.252 212.44 352.474 209.414 354.311 206.765C356.147 204.116 358.552 201.912 361.349 200.314C361.582 200.182 361.808 200.065 362.041 199.948C362.042 199.948 362.043 199.948 362.044 199.948C362.045 199.947 362.046 199.947 362.047 199.946C362.047 199.945 362.048 199.945 362.048 199.944C362.049 199.943 362.049 199.942 362.049 199.941C362.445 199.754 362.85 199.575 363.254 199.411C366.42 198.172 369.872 197.859 373.209 198.506C376.546 199.154 379.631 200.737 382.105 203.071C387.082 207.828 389.321 215.684 387.743 222.809Z" fill="#2F2E41"/>
</g>
<defs>
<clipPath id="clip0_46_540">
<rect width="472" height="442" fill="white"/>
</clipPath>
</defs>
</svg>
