<svg width="542" height="377" viewBox="0 0 542 377" fill="none" xmlns="http://www.w3.org/2000/svg">
<path d="M452.861 57.9694L411.05 58.3765C409.085 48.7083 402.482 23.3405 408.428 16.4212C408.699 13.817 409.965 11.4175 411.962 9.72237C413.959 8.02722 416.533 7.16698 419.149 7.32074C425.629 -2.81616 436.423 -1.29417 443.719 5.03677C451.061 7.56842 453.829 12.0661 452.861 18.1696C458.298 22.9258 459.302 28.7124 456.861 35.2993L452.861 57.9694Z" fill="#2F2E41"/>
<path d="M448.836 83.7078L418.67 79.5341L412.637 70.7227C420.948 65.2139 423.889 57.5196 420.063 47.0712L440.946 46.6074C439.968 55.9119 443.047 63.1161 451.62 67.4764L448.836 83.7078Z" fill="#FFB9B9"/>
<path d="M411.539 355.6L410.385 371.357C410.333 372.071 410.434 372.787 410.681 373.458C410.929 374.129 411.317 374.739 411.82 375.248C412.323 375.757 412.929 376.152 413.597 376.408C414.266 376.664 414.981 376.774 415.695 376.73L423.795 376.24C424.17 376.217 424.536 376.112 424.866 375.932C425.196 375.752 425.482 375.502 425.704 375.199C425.927 374.896 426.079 374.548 426.152 374.179C426.224 373.81 426.215 373.43 426.123 373.066L421.628 355.096L411.539 355.6Z" fill="#E6E6E6"/>
<path d="M437.76 355.096L433.264 373.066C433.173 373.43 433.163 373.81 433.236 374.179C433.308 374.548 433.461 374.896 433.683 375.199C433.905 375.502 434.192 375.752 434.522 375.932C434.852 376.112 435.218 376.217 435.593 376.24L443.692 376.73C444.407 376.774 445.122 376.664 445.79 376.408C446.459 376.152 447.065 375.757 447.568 375.248C448.07 374.739 448.459 374.129 448.706 373.458C448.954 372.787 449.055 372.07 449.002 371.357L447.849 355.6L437.76 355.096Z" fill="#E6E6E6"/>
<path d="M448.372 357.787L437.442 356.691L426.56 240.457L422.448 356.317L411.709 355.932L393.61 195.473H462.758L448.372 357.787Z" fill="#008864"/>
<path d="M431.665 54.4913C443.199 54.4913 452.549 45.1479 452.549 33.6223C452.549 22.0967 443.199 12.7533 431.665 12.7533C420.131 12.7533 410.781 22.0967 410.781 33.6223C410.781 45.1479 420.131 54.4913 431.665 54.4913Z" fill="#FFB9B9"/>
<path d="M472.968 199.183L388.505 200.11C401.04 152.426 408.538 108.131 395.466 77.6791L416.35 67.4765C426.42 77.972 437.634 76.89 449.764 66.549L469.72 71.6503C466.302 111.583 467.834 154.351 472.968 199.183Z" fill="#008864"/>
<path d="M365.301 150.025L417.742 170.894L429.467 174.34C429.991 174.494 430.542 174.541 431.085 174.477C431.627 174.413 432.152 174.24 432.626 173.969C433.101 173.698 433.515 173.333 433.845 172.898C434.175 172.462 434.414 171.964 434.546 171.434C434.779 170.505 434.674 169.524 434.252 168.664C433.829 167.804 433.115 167.122 432.237 166.738L420.063 163.01L383.4 141.677L391.057 121.504L375.047 112.924L365.301 150.025Z" fill="#FFB9B9"/>
<path d="M365.765 111.997C375.742 115.887 383.678 122.525 389.897 131.475L409.389 103.186L395.466 77.6791L365.765 111.997Z" fill="#008864"/>
<path d="M455.202 30.2401C446.726 28.0577 438.392 27.758 430.291 30.5262C425.131 33.0237 418.934 32.7936 412.042 30.7358V9.91479L449.249 10.9063L455.202 30.2401Z" fill="#2F2E41"/>
<path d="M417.568 125.71C415.928 125.712 414.356 126.363 413.196 127.522C412.037 128.681 411.385 130.252 411.383 131.891L413.824 182.961C413.826 184.6 414.478 186.171 415.638 187.33C416.797 188.489 418.37 189.14 420.01 189.142H447.923C449.563 189.14 451.135 188.489 452.294 187.33C453.454 186.171 454.106 184.6 454.108 182.961L456.549 131.891C456.548 130.252 455.895 128.681 454.736 127.522C453.576 126.363 452.004 125.712 450.364 125.71H417.568Z" fill="#3F3D56"/>
<path d="M496.766 146.167L451.056 164.355L447.608 165.727C447.498 165.77 447.388 165.806 447.272 165.843L435.718 169.24C434.241 169.673 432.196 167.685 431 166.313C430.407 165.651 430.072 164.8 430.054 163.912C430.036 163.025 430.337 162.161 430.902 161.476C431.062 161.292 431.237 161.123 431.427 160.97C431.872 160.623 432.397 160.393 432.953 160.299L444.495 158.03C444.909 157.949 445.307 157.8 445.673 157.591L451.056 154.456L479.005 138.195C479.782 137.744 480.374 137.031 480.674 136.184C480.975 135.338 480.965 134.412 480.646 133.572L475.312 119.513C474.985 118.653 474.982 117.703 475.305 116.841C475.627 115.979 476.252 115.264 477.064 114.829L485.902 110.096C486.407 109.825 486.967 109.672 487.539 109.649C488.112 109.625 488.683 109.732 489.208 109.961C489.733 110.19 490.2 110.535 490.572 110.971C490.945 111.406 491.214 111.92 491.358 112.474L499.031 141.678C499.266 142.573 499.166 143.524 498.749 144.351C498.332 145.178 497.627 145.824 496.766 146.167Z" fill="#FFB9B9"/>
<path d="M499.421 106.896C489.444 110.785 481.508 117.424 475.289 126.373L455.797 98.0843L469.72 71.6503L499.421 106.896Z" fill="#008864"/>
<path d="M445.563 52.1967C436.427 55.9942 426.847 55.84 416.876 52.1967C419.777 47.2478 415.44 43.3718 413.214 38.3759L450.446 37.2703C447.599 41.6103 443.397 46.7379 445.563 52.1967Z" fill="white"/>
<path d="M450.052 38.0961L449.62 37.6648L450.23 37.0549L453.876 32.8025L454.34 33.1989L450.678 37.4684L450.052 38.0961Z" fill="white"/>
<path d="M410.663 35.5112L410.272 35.98L413.934 39.0294L414.325 38.5606L410.663 35.5112Z" fill="white"/>
<path d="M451.103 41.6823L444.693 51.7448L445.208 52.0723L451.618 42.0099L451.103 41.6823Z" fill="white"/>
<path d="M411.335 41.6812L410.82 42.0087L417.229 52.0721L417.744 51.7446L411.335 41.6812Z" fill="white"/>
<path d="M452.277 153.593V164.643L448.428 166.175C448.305 166.222 448.182 166.263 448.053 166.304L435.156 170.096C433.507 170.579 431.225 168.36 429.889 166.828C429.228 166.09 428.854 165.139 428.834 164.149C428.814 163.158 429.149 162.193 429.78 161.429C429.958 161.224 430.155 161.035 430.366 160.864C430.863 160.477 431.449 160.22 432.07 160.115L444.953 157.582C445.415 157.492 445.859 157.326 446.268 157.092L452.277 153.593Z" fill="white"/>
<path d="M457.856 114.18H455.65C455.65 83.0059 449.227 61.2814 442.967 61.2814L442.416 59.0773C448.029 59.0773 451.608 68.1188 453.622 75.704C456.352 85.987 457.856 99.6512 457.856 114.18Z" fill="#3F3D56"/>
<path d="M407.126 106.465H404.92C404.92 77.9151 411.387 60.1793 420.911 60.1793L420.36 62.3834C413.772 62.3834 407.126 76.014 407.126 106.465Z" fill="#3F3D56"/>
<path d="M456.753 120.241C459.798 120.241 462.267 117.774 462.267 114.731C462.267 111.687 459.798 109.22 456.753 109.22C453.707 109.22 451.239 111.687 451.239 114.731C451.239 117.774 453.707 120.241 456.753 120.241Z" fill="#3F3D56"/>
<path d="M398.303 119.69H396.097C396.097 111.79 400.55 105.363 406.023 105.363V107.567C401.766 107.567 398.303 113.006 398.303 119.69Z" fill="#3F3D56"/>
<path d="M415.948 119.69H413.742C413.742 113.006 410.279 107.567 406.022 107.567V105.363C411.495 105.363 415.948 111.79 415.948 119.69Z" fill="#3F3D56"/>
<path d="M414.845 122.445C416.063 122.445 417.05 121.458 417.05 120.241C417.05 119.024 416.063 118.037 414.845 118.037C413.627 118.037 412.64 119.024 412.64 120.241C412.64 121.458 413.627 122.445 414.845 122.445Z" fill="#3F3D56"/>
<path d="M397.2 122.445C398.418 122.445 399.405 121.458 399.405 120.241C399.405 119.024 398.418 118.037 397.2 118.037C395.982 118.037 394.994 119.024 394.994 120.241C394.994 121.458 395.982 122.445 397.2 122.445Z" fill="#3F3D56"/>
<path d="M131.393 46.17L92.6554 52.7252C91.6985 52.8884 90.715 52.691 89.8953 52.1713C89.0756 51.6516 88.478 50.8465 88.218 49.9118C85.4193 39.8179 79.568 26.6499 85.249 20.0396C85.5385 17.2587 86.89 14.6965 89.0224 12.8864C91.1547 11.0762 93.9036 10.1576 96.6966 10.3218C103.617 -0.502816 115.143 1.12243 122.934 7.88287C130.774 10.5863 133.73 15.389 132.696 21.9066C136.083 24.8693 137.859 28.2064 138.233 31.8691C138.411 33.9074 138.151 35.96 137.472 37.8901C136.793 39.8202 135.709 41.5833 134.294 43.0618L131.393 46.17Z" fill="#2F2E41"/>
<path d="M125.37 76.645L95.3401 74.8798C98.2831 68.1298 99.4587 61.6299 98.2842 55.4624H120.66C120.609 60.1978 122.967 68.3892 125.37 76.645Z" fill="#9F616A"/>
<path d="M89.2223 353.934L87.9906 370.761C87.9348 371.523 88.0427 372.287 88.3069 373.004C88.5712 373.72 88.9857 374.372 89.5227 374.916C90.0597 375.459 90.7068 375.881 91.4205 376.154C92.1342 376.427 92.8981 376.545 93.6609 376.498L102.31 375.975C102.711 375.951 103.101 375.838 103.453 375.646C103.806 375.454 104.112 375.187 104.349 374.863C104.586 374.54 104.75 374.168 104.827 373.774C104.904 373.38 104.894 372.975 104.797 372.585L99.9956 353.396L89.2223 353.934Z" fill="#E6E6E6"/>
<path d="M117.223 353.396L112.422 372.585C112.324 372.974 112.314 373.38 112.391 373.774C112.469 374.168 112.632 374.54 112.869 374.863C113.107 375.187 113.412 375.454 113.765 375.646C114.117 375.838 114.508 375.951 114.908 375.975L123.557 376.498C124.32 376.545 125.084 376.427 125.798 376.154C126.511 375.881 127.159 375.459 127.695 374.916C128.232 374.372 128.647 373.72 128.911 373.004C129.176 372.287 129.283 371.523 129.228 370.761L127.996 353.934L117.223 353.396Z" fill="#E6E6E6"/>
<path d="M128.554 356.27L116.883 355.1L105.263 230.98L100.871 354.7L89.4044 354.289L70.0774 182.944H143.917L128.554 356.27Z" fill="#008864"/>
<path d="M110.062 62.6053C122.378 62.6053 132.363 52.6281 132.363 40.3205C132.363 28.013 122.378 18.0358 110.062 18.0358C97.7458 18.0358 87.7615 28.013 87.7615 40.3205C87.7615 52.6281 97.7458 62.6053 110.062 62.6053Z" fill="#9F616A"/>
<path d="M135.196 29.6749C126.145 28.0997 117.246 27.8834 108.596 29.8814C103.085 31.684 96.4676 31.5179 89.1082 30.0327V15.0048L128.839 15.7204L135.196 29.6749Z" fill="#2F2E41"/>
<path d="M124.903 58.2013C115.147 62.2564 104.918 62.0918 94.2702 58.2013C97.3685 52.9166 92.7372 48.7777 90.3596 43.4429L130.117 42.2622C127.077 46.8967 122.591 52.3721 124.903 58.2013Z" fill="white"/>
<path d="M87.6221 40.3995L87.2312 40.8683L91.1413 44.1243L91.5322 43.6556L87.6221 40.3995Z" fill="white"/>
<path d="M130.838 46.984L123.993 57.7292L124.508 58.0568L131.353 47.3116L130.838 46.984Z" fill="white"/>
<path d="M88.335 46.9832L87.8201 47.3107L94.6634 58.0569L95.1783 57.7294L88.335 46.9832Z" fill="white"/>
<path d="M67.6652 141.958L50.5894 131.367L65.1521 88.7458C66.7763 84.3478 69.8873 80.6552 73.9472 78.3064L78.8529 75.4683L79.2794 118.465L67.6652 141.958Z" fill="#008864"/>
<path d="M141.475 162.658L138.949 141.035C138.814 129.621 140.757 118.587 145.39 108.419L147.745 76.645L121.837 66.0537C121.758 66.5813 121.69 67.1085 121.614 67.636L109.472 73.703L97.6297 71.0136L97.6953 67.2306L74.1424 77.8219C81.9313 114.008 77.683 151.585 64.2888 195.97L95.3177 204.449L95.5756 189.56L123.229 187.586C123.514 192.417 123.743 197.161 123.876 201.801C139.48 207.542 140.016 207.446 154.233 199.227C148.571 187.331 144.088 174.953 141.475 162.658Z" fill="#008864"/>
<path d="M181.308 136.662L165.41 131.367L139.98 101.784L147.745 76.6454L183.074 126.071L181.308 136.662Z" fill="#008864"/>
<path d="M131.483 159.565C131.744 160.706 132.446 161.697 133.436 162.321C134.426 162.945 135.624 163.152 136.766 162.895L150.262 159.841L148.311 151.233L134.815 154.286C133.673 154.545 132.68 155.246 132.056 156.236C131.431 157.226 131.225 158.424 131.483 159.565V159.565Z" fill="#E6E6E6"/>
<path d="M143.624 149.607L151.278 163.729C164.153 160.141 175.312 148.828 186.019 135.486L183.075 126.071L164.821 130.778L143.624 149.607Z" fill="#008864"/>
<path d="M43.8179 105.311L58.5129 107.933L92.1016 155.658L74.2578 151.462L43.8179 105.311Z" fill="#E6E6E6"/>
<path d="M41.2113 104.727C40.9874 104.73 40.7685 104.793 40.5775 104.91C40.3865 105.027 40.2304 105.193 40.1256 105.391C40.0208 105.589 39.971 105.811 39.9816 106.034C39.9922 106.258 40.0627 106.475 40.1857 106.662L71.5823 154.264C71.7575 154.53 72.0281 154.719 72.3384 154.792L86.9463 158.226C87.1926 158.284 87.4507 158.266 87.6864 158.174C87.9221 158.082 88.1242 157.921 88.2659 157.711C88.4076 157.502 88.4822 157.254 88.4799 157.001C88.4776 156.748 88.3983 156.502 88.2528 156.295L53.7813 107.316C53.6878 107.183 53.5689 107.069 53.4314 106.981C53.2939 106.894 53.1405 106.834 52.98 106.806L41.4468 104.748C41.369 104.734 41.2903 104.727 41.2113 104.727Z" fill="#3F3D56"/>
<path d="M60.7966 138.762L61.6692 147.545L75.4387 146.179C76.6042 146.063 77.6761 145.49 78.4184 144.585C79.1608 143.679 79.5129 142.516 79.3972 141.352C79.2815 140.187 78.7076 139.116 77.8016 138.374C76.8957 137.632 75.7319 137.28 74.5664 137.396L60.7966 138.762Z" fill="#E6E6E6"/>
<path d="M48.8232 137.745C48.8432 140.739 50.0469 143.605 52.1719 145.717C54.297 147.829 57.1712 149.016 60.1682 149.019H62.4323L64.0806 135.292L50.4327 130.383L48.8232 137.745Z" fill="#008864"/>
<path d="M129.03 43.7806L128.598 43.3494L129.25 42.698L133.144 38.1559L133.607 38.5523L129.697 43.1115L129.03 43.7806Z" fill="white"/>
<path d="M516 375H26V377H516V375Z" fill="#3F3D56"/>
<path d="M206.912 375.17H335.088V219.812C335.088 211.585 326.979 204.893 317.012 204.893H224.987C215.021 204.893 206.912 211.585 206.912 219.812V375.17Z" fill="#E6E6E6"/>
<path d="M216.678 368.746H325.322V237.061C325.322 230.088 318.449 224.415 310.001 224.415H231.999C223.551 224.415 216.678 230.088 216.678 237.061V368.746Z" fill="white"/>
<path d="M205.944 192.802C202.776 192.802 200.198 194.929 200.198 197.544V211.233C200.198 213.848 202.776 215.976 205.944 215.976H336.056C339.225 215.976 341.802 213.848 341.802 211.233V197.544C341.802 194.929 339.225 192.802 336.056 192.802H205.944Z" fill="#3F3D56"/>
<path d="M232.658 351.86C231.17 351.865 229.745 352.457 228.693 353.508C227.642 354.559 227.049 355.983 227.044 357.47C227.049 358.956 227.642 360.38 228.693 361.431C229.745 362.482 231.17 363.075 232.658 363.079H243.165V351.86H232.658Z" fill="#3F3D56"/>
<path d="M252.808 351.86H242.589V363.079H252.808C254.295 363.075 255.721 362.482 256.772 361.431C257.824 360.38 258.417 358.956 258.421 357.47C258.417 355.983 257.824 354.559 256.772 353.508C255.721 352.457 254.295 351.865 252.808 351.86Z" fill="#008864"/>
<path opacity="0.2" d="M256.471 353.234C257.356 354.248 257.844 355.549 257.845 356.894C257.841 358.381 257.248 359.805 256.197 360.856C255.145 361.907 253.72 362.499 252.232 362.504H242.589V363.079H252.808C254.295 363.075 255.721 362.482 256.772 361.431C257.824 360.38 258.417 358.956 258.421 357.47C258.42 356.665 258.245 355.87 257.908 355.139C257.572 354.408 257.081 353.759 256.471 353.234Z" fill="black"/>
<path d="M280.071 267.369C279.047 266.291 277.638 265.661 276.152 265.617C274.665 265.573 273.221 266.119 272.136 267.135C271.056 268.158 270.426 269.566 270.382 271.052C270.338 272.537 270.884 273.98 271.902 275.065L279.109 282.705L287.278 275.01L280.071 267.369Z" fill="#3F3D56"/>
<path d="M293.892 282.022L286.883 274.591L278.714 282.286L285.723 289.717C286.747 290.795 288.156 291.426 289.642 291.469C291.129 291.513 292.573 290.967 293.658 289.951C294.737 288.928 295.368 287.52 295.412 286.035C295.456 284.549 294.909 283.106 293.892 282.022Z" fill="#008864"/>
<path opacity="0.2" d="M295.405 285.628C295.273 286.967 294.661 288.214 293.682 289.138C292.597 290.154 291.153 290.7 289.666 290.656C288.18 290.612 286.771 289.982 285.747 288.904L279.133 281.892L278.714 282.286L285.723 289.717C286.747 290.796 288.156 291.426 289.642 291.469C291.129 291.513 292.573 290.967 293.658 289.951C294.243 289.398 294.702 288.726 295.003 287.98C295.305 287.234 295.442 286.431 295.405 285.628Z" fill="black"/>
<path d="M250.163 285.057C249.14 283.979 247.731 283.349 246.244 283.305C244.757 283.261 243.314 283.807 242.228 284.823C241.149 285.846 240.519 287.254 240.475 288.74C240.431 290.225 240.977 291.668 241.994 292.753L249.201 300.393L257.37 292.698L250.163 285.057Z" fill="#3F3D56"/>
<path d="M263.985 299.71L256.975 292.279L248.806 299.974L255.816 307.405C256.839 308.483 258.248 309.113 259.735 309.157C261.222 309.201 262.665 308.655 263.751 307.639C264.83 306.616 265.46 305.208 265.504 303.723C265.548 302.237 265.002 300.794 263.985 299.71Z" fill="#008864"/>
<path opacity="0.2" d="M265.497 303.315C265.366 304.655 264.754 305.902 263.775 306.826C262.689 307.842 261.246 308.388 259.759 308.344C258.272 308.3 256.863 307.67 255.84 306.592L249.225 299.579L248.806 299.974L255.816 307.405C256.839 308.483 258.248 309.113 259.735 309.157C261.222 309.201 262.665 308.655 263.751 307.639C264.336 307.086 264.794 306.414 265.096 305.668C265.397 304.921 265.534 304.119 265.497 303.315Z" fill="black"/>
<path d="M280.071 301.525C279.047 300.447 277.638 299.817 276.152 299.773C274.665 299.729 273.221 300.275 272.136 301.291C271.056 302.314 270.426 303.722 270.382 305.208C270.338 306.693 270.884 308.136 271.902 309.221L279.109 316.861L287.278 309.166L280.071 301.525Z" fill="#3F3D56"/>
<path d="M293.892 316.178L286.883 308.747L278.714 316.442L285.723 323.873C286.747 324.951 288.156 325.581 289.642 325.625C291.129 325.669 292.573 325.123 293.658 324.107C294.737 323.084 295.368 321.676 295.412 320.191C295.456 318.705 294.909 317.262 293.892 316.178Z" fill="#008864"/>
<path opacity="0.2" d="M295.405 319.783C295.273 321.123 294.661 322.37 293.682 323.294C292.597 324.31 291.153 324.856 289.666 324.812C288.18 324.768 286.771 324.138 285.747 323.06L279.133 316.047L278.714 316.442L285.723 323.873C286.747 324.951 288.156 325.581 289.642 325.625C291.129 325.669 292.573 325.123 293.658 324.107C294.243 323.554 294.702 322.882 295.003 322.136C295.305 321.389 295.442 320.587 295.405 319.783Z" fill="black"/>
<path d="M298.316 336.576C299.383 335.54 299.996 334.125 300.022 332.639C300.048 331.153 299.484 329.717 298.454 328.645C297.417 327.578 296.001 326.966 294.514 326.94C293.026 326.914 291.59 327.477 290.517 328.507L282.959 335.801L290.759 343.87L298.316 336.576Z" fill="#3F3D56"/>
<path d="M283.823 350.565L291.173 343.471L283.374 335.401L276.023 342.496C274.956 343.531 274.343 344.947 274.317 346.433C274.291 347.919 274.855 349.355 275.885 350.427C276.922 351.493 278.338 352.106 279.826 352.132C281.313 352.158 282.75 351.594 283.823 350.565Z" fill="#008864"/>
<path opacity="0.2" d="M280.233 352.12C278.891 352.005 277.636 351.409 276.699 350.441C275.669 349.369 275.105 347.933 275.131 346.447C275.157 344.961 275.77 343.546 276.837 342.51L283.773 335.815L283.374 335.401L276.023 342.496C274.956 343.531 274.343 344.947 274.317 346.433C274.291 347.919 274.855 349.355 275.885 350.427C276.446 351.005 277.124 351.455 277.874 351.747C278.625 352.04 279.429 352.167 280.233 352.12Z" fill="black"/>
<path d="M258.032 318.888C259.099 317.853 259.712 316.437 259.738 314.951C259.764 313.465 259.2 312.029 258.17 310.957C257.134 309.891 255.717 309.278 254.23 309.252C252.743 309.226 251.306 309.789 250.233 310.819L242.676 318.113L250.475 326.182L258.032 318.888Z" fill="#3F3D56"/>
<path d="M243.539 332.877L250.889 325.783L243.09 317.714L235.739 324.808C234.672 325.844 234.059 327.259 234.033 328.745C234.007 330.231 234.571 331.667 235.601 332.739C236.638 333.805 238.054 334.418 239.542 334.444C241.029 334.47 242.466 333.907 243.539 332.877Z" fill="#008864"/>
<path opacity="0.2" d="M239.949 334.432C238.607 334.317 237.352 333.721 236.416 332.754C235.385 331.681 234.822 330.245 234.847 328.759C234.873 327.273 235.487 325.858 236.553 324.822L243.49 318.127L243.09 317.714L235.739 324.808C234.672 325.844 234.059 327.259 234.033 328.745C234.007 330.231 234.571 331.667 235.601 332.739C236.162 333.317 236.84 333.768 237.59 334.06C238.341 334.352 239.145 334.479 239.949 334.432Z" fill="black"/>
<path d="M315.406 297.541C316.473 296.505 317.086 295.09 317.112 293.603C317.138 292.117 316.574 290.681 315.544 289.609C314.507 288.543 313.091 287.93 311.604 287.905C310.117 287.879 308.68 288.442 307.607 289.472L300.049 296.766L307.849 304.835L315.406 297.541Z" fill="#3F3D56"/>
<path d="M300.912 311.53L308.263 304.435L300.463 296.366L293.113 303.46C292.046 304.496 291.433 305.912 291.407 307.398C291.381 308.884 291.945 310.32 292.975 311.392C294.012 312.458 295.428 313.071 296.915 313.097C298.403 313.122 299.84 312.559 300.912 311.53Z" fill="#008864"/>
<path opacity="0.2" d="M297.323 313.084C295.981 312.969 294.726 312.373 293.789 311.406C292.759 310.334 292.195 308.898 292.221 307.412C292.247 305.926 292.86 304.51 293.927 303.474L300.863 296.78L300.463 296.366L293.113 303.46C292.046 304.496 291.433 305.912 291.407 307.398C291.381 308.884 291.945 310.32 292.975 311.392C293.536 311.97 294.214 312.42 294.964 312.712C295.714 313.004 296.519 313.131 297.323 313.084Z" fill="black"/>
<path d="M302.654 341.781C301.631 340.702 300.222 340.072 298.735 340.028C297.248 339.984 295.805 340.53 294.719 341.547C293.64 342.569 293.009 343.977 292.966 345.463C292.922 346.949 293.468 348.391 294.485 349.476L301.692 357.116L309.861 349.421L302.654 341.781Z" fill="#3F3D56"/>
<path d="M316.476 356.433L309.466 349.002L301.297 356.697L308.307 364.128C309.33 365.207 310.739 365.837 312.226 365.881C313.713 365.925 315.156 365.379 316.242 364.362C317.321 363.34 317.951 361.932 317.995 360.446C318.039 358.96 317.493 357.518 316.476 356.433Z" fill="#008864"/>
<path opacity="0.2" d="M317.988 360.039C317.857 361.378 317.245 362.625 316.266 363.549C315.18 364.565 313.737 365.111 312.25 365.067C310.763 365.023 309.354 364.393 308.331 363.315L301.716 356.303L301.297 356.697L308.307 364.128C309.33 365.207 310.739 365.837 312.226 365.881C313.713 365.924 315.156 365.379 316.242 364.362C316.827 363.809 317.285 363.137 317.587 362.391C317.888 361.645 318.025 360.842 317.988 360.039Z" fill="black"/>
<path d="M262.981 341.171C261.957 340.092 260.548 339.462 259.061 339.418C257.575 339.374 256.131 339.92 255.046 340.937C253.966 341.959 253.336 343.367 253.292 344.853C253.248 346.339 253.794 347.781 254.811 348.866L262.018 356.506L270.188 348.811L262.981 341.171Z" fill="#3F3D56"/>
<path d="M276.802 355.823L269.793 348.392L261.624 356.087L268.633 363.518C269.657 364.597 271.065 365.227 272.552 365.271C274.039 365.315 275.483 364.769 276.568 363.752C277.647 362.73 278.278 361.322 278.322 359.836C278.366 358.35 277.819 356.908 276.802 355.823Z" fill="#008864"/>
<path opacity="0.2" d="M278.314 359.429C278.183 360.768 277.571 362.015 276.592 362.939C275.507 363.955 274.063 364.501 272.576 364.457C271.09 364.414 269.681 363.784 268.657 362.705L262.042 355.693L261.624 356.087L268.633 363.518C269.657 364.597 271.065 365.227 272.552 365.271C274.039 365.315 275.483 364.769 276.568 363.752C277.153 363.199 277.612 362.527 277.913 361.781C278.215 361.035 278.351 360.233 278.314 359.429Z" fill="black"/>
<path d="M274.148 321.047C274.149 322.912 273.504 324.72 272.324 326.164C271.144 327.609 269.5 328.602 267.672 328.975C266.603 329.191 265.502 329.191 264.434 328.975C262.605 328.602 260.962 327.609 259.782 326.164C258.602 324.719 257.958 322.912 257.958 321.047C257.958 319.182 258.602 317.375 259.782 315.93C260.962 314.486 262.605 313.493 264.434 313.119C265.502 312.904 266.603 312.904 267.672 313.119C269.5 313.492 271.144 314.485 272.324 315.93C273.504 317.374 274.149 319.182 274.148 321.047Z" fill="#008864"/>
<path opacity="0.2" d="M267.671 313.119V328.975C266.603 329.191 265.502 329.191 264.434 328.975V313.119C265.502 312.904 266.603 312.904 267.671 313.119Z" fill="black"/>
<path d="M277.81 288.721C277.811 290.586 277.166 292.394 275.986 293.838C274.806 295.283 273.162 296.276 271.334 296.649C270.265 296.864 269.164 296.864 268.096 296.649C266.268 296.275 264.624 295.282 263.444 293.838C262.264 292.393 261.62 290.586 261.62 288.721C261.62 286.856 262.264 285.049 263.444 283.604C264.624 282.159 266.268 281.166 268.096 280.793C269.164 280.577 270.265 280.577 271.334 280.793C273.163 281.166 274.806 282.159 275.986 283.604C277.166 285.048 277.811 286.856 277.81 288.721Z" fill="#008864"/>
<path opacity="0.2" d="M271.334 280.793V296.649C270.265 296.864 269.164 296.864 268.096 296.649V280.793C269.164 280.577 270.265 280.577 271.334 280.793Z" fill="black"/>
<path d="M277.81 335.075C277.811 336.94 277.166 338.748 275.986 340.193C274.806 341.637 273.162 342.63 271.334 343.003C270.265 343.219 269.164 343.219 268.096 343.003C266.268 342.63 264.624 341.637 263.444 340.192C262.264 338.748 261.62 336.94 261.62 335.075C261.62 333.211 262.264 331.403 263.444 329.958C264.624 328.514 266.268 327.521 268.096 327.148C269.164 326.932 270.265 326.932 271.334 327.148C273.163 327.521 274.806 328.513 275.986 329.958C277.166 331.403 277.811 333.211 277.81 335.075Z" fill="#008864"/>
<path opacity="0.2" d="M271.334 327.148V343.003C270.265 343.219 269.164 343.219 268.096 343.003V327.148C269.164 326.932 270.265 326.932 271.334 327.148Z" fill="black"/>
<path d="M297.952 357.643C297.953 359.508 297.308 361.315 296.128 362.76C294.948 364.205 293.305 365.198 291.476 365.571C290.407 365.786 289.307 365.786 288.238 365.571C286.41 365.197 284.766 364.204 283.586 362.76C282.406 361.315 281.762 359.508 281.762 357.643C281.762 355.778 282.406 353.97 283.586 352.526C284.766 351.081 286.41 350.088 288.238 349.715C289.307 349.499 290.407 349.499 291.476 349.715C293.305 350.088 294.948 351.081 296.128 352.525C297.308 353.97 297.953 355.778 297.952 357.643Z" fill="#008864"/>
<path opacity="0.2" d="M291.475 349.715V365.571C290.407 365.786 289.306 365.786 288.238 365.571V349.715C289.306 349.499 290.407 349.499 291.475 349.715Z" fill="black"/>
<path d="M315.745 316.122C317.089 317.415 317.944 319.134 318.166 320.985C318.388 322.837 317.963 324.708 316.963 326.283C316.377 327.201 315.613 327.993 314.716 328.613C313.178 329.669 311.322 330.162 309.462 330.009C307.603 329.855 305.853 329.065 304.509 327.77C303.166 326.476 302.311 324.758 302.089 322.907C301.867 321.055 302.292 319.184 303.292 317.609C303.878 316.691 304.642 315.899 305.539 315.279C307.076 314.223 308.932 313.729 310.792 313.883C312.652 314.036 314.402 314.827 315.745 316.122Z" fill="#008864"/>
<path opacity="0.2" d="M305.539 315.279L316.963 326.283C316.377 327.201 315.613 327.993 314.716 328.613L303.292 317.609C303.878 316.691 304.642 315.899 305.539 315.279Z" fill="black"/>
<path d="M318.187 333.809C319.531 335.103 320.386 336.822 320.608 338.673C320.83 340.525 320.404 342.396 319.404 343.971C318.818 344.889 318.054 345.681 317.157 346.301C315.619 347.357 313.764 347.85 311.904 347.697C310.044 347.543 308.294 346.753 306.951 345.458C305.607 344.164 304.752 342.446 304.53 340.595C304.308 338.743 304.733 336.872 305.733 335.297C306.319 334.379 307.083 333.587 307.98 332.967C309.518 331.911 311.374 331.417 313.234 331.571C315.093 331.724 316.843 332.515 318.187 333.809Z" fill="#008864"/>
<path opacity="0.2" d="M307.98 332.967L319.404 343.971C318.818 344.889 318.054 345.681 317.157 346.3L305.733 335.297C306.319 334.379 307.083 333.586 307.98 332.967Z" fill="black"/>
<path d="M245.554 338.079C246.898 339.373 247.753 341.091 247.975 342.943C248.197 344.794 247.772 346.666 246.771 348.24C246.185 349.159 245.421 349.951 244.524 350.57C242.986 351.626 241.131 352.12 239.271 351.966C237.411 351.813 235.661 351.022 234.318 349.728C232.974 348.434 232.119 346.716 231.897 344.864C231.675 343.012 232.1 341.141 233.1 339.567C233.686 338.648 234.45 337.856 235.347 337.237C236.885 336.18 238.741 335.687 240.601 335.84C242.461 335.994 244.21 336.784 245.554 338.079Z" fill="#008864"/>
<path opacity="0.2" d="M235.348 337.237L246.772 348.24C246.186 349.159 245.421 349.951 244.524 350.57L233.1 339.567C233.686 338.648 234.451 337.856 235.348 337.237Z" fill="black"/>
<path opacity="0.2" d="M219.424 192.802H216.373V215.369H219.424V192.802Z" fill="black"/>
<path opacity="0.2" d="M237.125 192.802H234.073V215.369H237.125V192.802Z" fill="black"/>
<path opacity="0.2" d="M254.825 192.802H251.774V215.369H254.825V192.802Z" fill="black"/>
<path opacity="0.2" d="M272.525 192.802H269.474V215.369H272.525V192.802Z" fill="black"/>
<path opacity="0.2" d="M290.226 192.802H287.175V215.369H290.226V192.802Z" fill="black"/>
<path opacity="0.2" d="M307.926 192.802H304.875V215.369H307.926V192.802Z" fill="black"/>
<path opacity="0.2" d="M325.627 192.802H322.575V215.369H325.627V192.802Z" fill="black"/>
</svg>
